<svg version="1.1" viewBox="0.0 0.0 600.0 371.0" fill="none" stroke="none" stroke-linecap="square" stroke-miterlimit="10" width="600" height="371" xmlns:xlink="http://www.w3.org/1999/xlink" xmlns="http://www.w3.org/2000/svg"><path fill="#ffffff" d="M0 0L600.0 0L600.0 371.0L0 371.0L0 0Z" fill-rule="nonzero"/><path fill="#4285f4" d="M300.0 78.916664C345.86426 78.916664 388.6752 101.905655 414.00903 140.13821C439.34283 178.37077 443.82642 226.7564 425.9492 268.99304L300.0 215.68333Z" fill-rule="nonzero"/><path fill="#34a853" d="M250.59418 88.152214C266.35086 82.04805 283.10226 78.916664 300.0 78.916664L300.0 215.68333Z" fill-rule="nonzero"/><path fill="#fbbc04" d="M201.81358 310.89127C169.88591 277.96475 156.58783 231.22685 166.39972 186.42442C176.2116 141.622 207.82703 104.7203 250.59418 88.152214L300.0 215.68333Z" fill-rule="nonzero"/><path fill="#ea4335" d="M425.9492 268.99304C408.07193 311.2297 370.21414 341.69376 325.1308 350.12128C280.0475 358.54883 233.74126 343.81775 201.81358 310.89127L300.0 215.68333Z" fill-rule="nonzero"/><path fill="#1a1a1a" d="M19.096874 87.15104L20.159374 87.05729Q20.2375 87.71354 20.51875 88.11979Q20.8 88.52604 21.378124 88.791664Q21.971874 89.041664 22.70625 89.041664Q23.346874 89.041664 23.846874 88.854164Q24.346874 88.65104 24.58125 88.322914Q24.83125 87.979164 24.83125 87.58854Q24.83125 87.18229 24.596874 86.885414Q24.3625 86.572914 23.83125 86.36979Q23.471874 86.229164 22.284374 85.947914Q21.1125 85.666664 20.64375 85.416664Q20.01875 85.08854 19.721874 84.61979Q19.425 84.135414 19.425 83.541664Q19.425 82.90104 19.784374 82.33854Q20.159374 81.760414 20.8625 81.479164Q21.58125 81.18229 22.440624 81.18229Q23.39375 81.18229 24.128124 81.49479Q24.8625 81.791664 25.253124 82.40104Q25.64375 82.99479 25.675 83.74479L24.58125 83.822914Q24.4875 83.010414 23.971874 82.604164Q23.471874 82.18229 22.4875 82.18229Q21.45625 82.18229 20.9875 82.55729Q20.51875 82.93229 20.51875 83.46354Q20.51875 83.93229 20.846874 84.229164Q21.175 84.52604 22.55 84.83854Q23.940624 85.15104 24.45625 85.385414Q25.20625 85.74479 25.565624 86.27604Q25.925 86.791664 25.925 87.49479Q25.925 88.18229 25.534374 88.791664Q25.14375 89.385414 24.409374 89.729164Q23.675 90.05729 22.753124 90.05729Q21.58125 90.05729 20.784374 89.729164Q20.003124 89.385414 19.55 88.697914Q19.1125 88.010414 19.096874 87.15104ZM29.64375 88.979164L29.8 89.90104Q29.346874 89.99479 29.003124 89.99479Q28.425 89.99479 28.1125 89.822914Q27.8 89.635414 27.659374 89.33854Q27.534374 89.041664 27.534374 88.08854L27.534374 84.510414L26.76875 84.510414L26.76875 83.697914L27.534374 83.697914L27.534374 82.15104L28.58125 81.52604L28.58125 83.697914L29.64375 83.697914L29.64375 84.510414L28.58125 84.510414L28.58125 88.15104Q28.58125 88.604164 28.628124 88.729164Q28.690624 88.854164 28.815624 88.93229Q28.940624 89.010414 29.175 89.010414Q29.3625 89.010414 29.64375 88.979164ZM30.33125 89.916664L30.33125 83.697914L31.284374 83.697914L31.284374 84.635414Q31.64375 83.979164 31.940624 83.77604Q32.253124 83.55729 32.628124 83.55729Q33.159374 83.55729 33.70625 83.885414L33.346874 84.86979Q32.95625 84.635414 32.58125 84.635414Q32.221874 84.635414 31.940624 84.854164Q31.675 85.05729 31.565624 85.43229Q31.378124 85.99479 31.378124 86.65104L31.378124 89.916664L30.33125 89.916664ZM33.95625 86.80729Q33.95625 85.072914 34.909374 84.24479Q35.70625 83.55729 36.8625 83.55729Q38.14375 83.55729 38.95625 84.40104Q39.784374 85.229164 39.784374 86.71354Q39.784374 87.916664 39.425 88.604164Q39.065624 89.291664 38.3625 89.68229Q37.675 90.05729 36.8625 90.05729Q35.565624 90.05729 34.753124 89.229164Q33.95625 88.385414 33.95625 86.80729ZM35.034374 86.80729Q35.034374 87.99479 35.55 88.58854Q36.08125 89.18229 36.8625 89.18229Q37.659374 89.18229 38.175 88.58854Q38.690624 87.99479 38.690624 86.77604Q38.690624 85.61979 38.159374 85.02604Q37.64375 84.43229 36.8625 84.43229Q36.08125 84.43229 35.55 85.02604Q35.034374 85.604164 35.034374 86.80729ZM41.346874 89.916664L41.346874 83.697914L42.284374 83.697914L42.284374 84.572914Q42.971874 83.55729 44.26875 83.55729Q44.83125 83.55729 45.3 83.760414Q45.784374 83.96354 46.01875 84.291664Q46.253124 84.61979 46.346874 85.05729Q46.39375 85.354164 46.39375 86.08854L46.39375 89.916664L45.346874 89.916664L45.346874 86.135414Q45.346874 85.479164 45.221874 85.166664Q45.096874 84.854164 44.784374 84.666664Q44.471874 84.46354 44.05 84.46354Q43.378124 84.46354 42.878124 84.90104Q42.39375 85.322914 42.39375 86.510414L42.39375 89.916664L41.346874 89.916664ZM48.14375 90.43229L49.175 90.58854Q49.2375 91.05729 49.534374 91.27604Q49.925 91.572914 50.596874 91.572914Q51.33125 91.572914 51.721874 91.27604Q52.128124 90.979164 52.26875 90.46354Q52.3625 90.135414 52.346874 89.104164Q51.659374 89.916664 50.628124 89.916664Q49.346874 89.916664 48.64375 88.99479Q47.940624 88.05729 47.940624 86.77604Q47.940624 85.885414 48.253124 85.135414Q48.58125 84.36979 49.190624 83.96354Q49.8 83.55729 50.628124 83.55729Q51.7375 83.55729 52.45625 84.447914L52.45625 83.697914L53.425 83.697914L53.425 89.072914Q53.425 90.52604 53.128124 91.135414Q52.83125 91.74479 52.190624 92.08854Q51.55 92.447914 50.6125 92.447914Q49.503124 92.447914 48.815624 91.947914Q48.128124 91.447914 48.14375 90.43229ZM49.01875 86.697914Q49.01875 87.916664 49.503124 88.479164Q49.9875 89.041664 50.721874 89.041664Q51.45625 89.041664 51.940624 88.479164Q52.440624 87.916664 52.440624 86.729164Q52.440624 85.58854 51.925 85.010414Q51.425 84.43229 50.70625 84.43229Q50.003124 84.43229 49.503124 85.010414Q49.01875 85.572914 49.01875 86.697914ZM55.315624 89.916664L55.315624 81.322914L56.378124 81.322914L56.378124 89.916664L55.315624 89.916664ZM58.3 92.30729L58.175 91.322914Q58.51875 91.416664 58.784374 91.416664Q59.128124 91.416664 59.33125 91.291664Q59.55 91.18229 59.690624 90.979164Q59.784374 90.80729 60.01875 90.18229Q60.034374 90.104164 60.1125 89.93229L57.7375 83.697914L58.878124 83.697914L60.175 87.291664Q60.425 87.979164 60.628124 88.74479Q60.815624 88.010414 61.065624 87.322914L62.39375 83.697914L63.440624 83.697914L61.08125 90.02604Q60.690624 91.041664 60.4875 91.43229Q60.20625 91.96354 59.83125 92.197914Q59.471874 92.447914 58.971874 92.447914Q58.675 92.447914 58.3 92.30729ZM66.47188 89.916664L66.47188 81.322914L69.44063 81.322914Q70.44063 81.322914 70.97188 81.447914Q71.70625 81.61979 72.22188 82.05729Q72.90938 82.635414 73.2375 83.541664Q73.58125 84.43229 73.58125 85.572914Q73.58125 86.55729 73.34688 87.30729Q73.12813 88.05729 72.76875 88.55729Q72.40938 89.05729 71.97188 89.33854Q71.55 89.61979 70.95625 89.77604Q70.3625 89.916664 69.58125 89.916664L66.47188 89.916664ZM67.6125 88.90104L69.44063 88.90104Q70.3 88.90104 70.78438 88.74479Q71.26875 88.58854 71.55 88.291664Q71.95625 87.90104 72.175 87.21354Q72.40938 86.52604 72.40938 85.55729Q72.40938 84.21354 71.95625 83.49479Q71.51875 82.760414 70.89375 82.510414Q70.425 82.33854 69.425 82.33854L67.6125 82.33854L67.6125 88.90104ZM75.34688 82.541664L75.34688 81.322914L76.40938 81.322914L76.40938 82.541664L75.34688 82.541664ZM75.34688 89.916664L75.34688 83.697914L76.40938 83.697914L76.40938 89.916664L75.34688 89.916664ZM77.925 88.05729L78.95625 87.90104Q79.05 88.52604 79.44063 88.854164Q79.84688 89.18229 80.58125 89.18229Q81.3 89.18229 81.64375 88.90104Q82.00313 88.604164 82.00313 88.197914Q82.00313 87.83854 81.69063 87.635414Q81.47188 87.49479 80.6125 87.27604Q79.45625 86.979164 79.00313 86.77604Q78.56563 86.55729 78.33125 86.18229Q78.09688 85.80729 78.09688 85.33854Q78.09688 84.93229 78.28438 84.572914Q78.47188 84.21354 78.8 83.979164Q79.05 83.80729 79.47188 83.68229Q79.89375 83.55729 80.39375 83.55729Q81.1125 83.55729 81.65938 83.77604Q82.22188 83.979164 82.4875 84.33854Q82.75313 84.697914 82.84688 85.291664L81.81563 85.43229Q81.75313 84.96354 81.40938 84.697914Q81.08125 84.416664 80.45625 84.416664Q79.7375 84.416664 79.425 84.666664Q79.1125 84.90104 79.1125 85.229164Q79.1125 85.43229 79.2375 85.58854Q79.37813 85.760414 79.64375 85.86979Q79.8 85.93229 80.58125 86.135414Q81.70625 86.447914 82.14375 86.635414Q82.58125 86.822914 82.83125 87.18229Q83.08125 87.541664 83.08125 88.08854Q83.08125 88.61979 82.76875 89.08854Q82.47188 89.541664 81.89375 89.80729Q81.31563 90.05729 80.58125 90.05729Q79.3625 90.05729 78.72188 89.55729Q78.09688 89.041664 77.925 88.05729ZM89.40938 89.15104Q88.81563 89.65104 88.26875 89.854164Q87.7375 90.05729 87.1125 90.05729Q86.08125 90.05729 85.53438 89.55729Q84.9875 89.05729 84.9875 88.27604Q84.9875 87.822914 85.19063 87.447914Q85.39375 87.05729 85.7375 86.83854Q86.08125 86.604164 86.50313 86.49479Q86.8 86.40104 87.44063 86.322914Q88.70625 86.18229 89.31563 85.96354Q89.31563 85.74479 89.31563 85.697914Q89.31563 85.041664 89.01875 84.77604Q88.6125 84.43229 87.81563 84.43229Q87.08125 84.43229 86.72188 84.697914Q86.3625 84.947914 86.19063 85.604164L85.15938 85.46354Q85.3 84.80729 85.62813 84.40104Q85.95625 83.99479 86.56563 83.77604Q87.175 83.55729 87.97188 83.55729Q88.76875 83.55729 89.26875 83.74479Q89.76875 83.93229 90.00313 84.21354Q90.2375 84.49479 90.33125 84.93229Q90.37813 85.197914 90.37813 85.90104L90.37813 87.30729Q90.37813 88.77604 90.44063 89.166664Q90.51875 89.55729 90.72188 89.916664L89.6125 89.916664Q89.45625 89.58854 89.40938 89.15104ZM89.31563 86.791664Q88.7375 87.02604 87.59688 87.197914Q86.94063 87.291664 86.675 87.416664Q86.40938 87.52604 86.25313 87.74479Q86.1125 87.96354 86.1125 88.24479Q86.1125 88.666664 86.425 88.947914Q86.75313 89.229164 87.3625 89.229164Q87.97188 89.229164 88.44063 88.96354Q88.925 88.697914 89.14375 88.229164Q89.31563 87.86979 89.31563 87.18229L89.31563 86.791664ZM92.14375 90.43229L93.175 90.58854Q93.2375 91.05729 93.53438 91.27604Q93.925 91.572914 94.59688 91.572914Q95.33125 91.572914 95.72188 91.27604Q96.12813 90.979164 96.26875 90.46354Q96.3625 90.135414 96.34688 89.104164Q95.65938 89.916664 94.62813 89.916664Q93.34688 89.916664 92.64375 88.99479Q91.94063 88.05729 91.94063 86.77604Q91.94063 85.885414 92.25313 85.135414Q92.58125 84.36979 93.19063 83.96354Q93.8 83.55729 94.62813 83.55729Q95.7375 83.55729 96.45625 84.447914L96.45625 83.697914L97.425 83.697914L97.425 89.072914Q97.425 90.52604 97.12813 91.135414Q96.83125 91.74479 96.19063 92.08854Q95.55 92.447914 94.6125 92.447914Q93.50313 92.447914 92.81563 91.947914Q92.12813 91.447914 92.14375 90.43229ZM93.01875 86.697914Q93.01875 87.916664 93.50313 88.479164Q93.9875 89.041664 94.72188 89.041664Q95.45625 89.041664 95.94063 88.479164Q96.44063 87.916664 96.44063 86.729164Q96.44063 85.58854 95.925 85.010414Q95.425 84.43229 94.70625 84.43229Q94.00313 84.43229 93.50313 85.010414Q93.01875 85.572914 93.01875 86.697914ZM99.33125 89.916664L99.33125 83.697914L100.28438 83.697914L100.28438 84.635414Q100.64375 83.979164 100.94063 83.77604Q101.25313 83.55729 101.62813 83.55729Q102.15938 83.55729 102.70625 83.885414L102.34688 84.86979Q101.95625 84.635414 101.58125 84.635414Q101.22188 84.635414 100.94063 84.854164Q100.675 85.05729 100.56563 85.43229Q100.37813 85.99479 100.37813 86.65104L100.37813 89.916664L99.33125 89.916664ZM107.59688 87.916664L108.69063 88.041664Q108.44063 88.99479 107.7375 89.52604Q107.03438 90.05729 105.95625 90.05729Q104.59688 90.05729 103.78438 89.21354Q102.9875 88.36979 102.9875 86.854164Q102.9875 85.291664 103.8 84.43229Q104.6125 83.55729 105.89375 83.55729Q107.14375 83.55729 107.925 84.40104Q108.72188 85.24479 108.72188 86.791664Q108.72188 86.885414 108.72188 87.072914L104.08125 87.072914Q104.14375 88.104164 104.65938 88.65104Q105.175 89.18229 105.95625 89.18229Q106.53438 89.18229 106.94063 88.885414Q107.3625 88.572914 107.59688 87.916664ZM104.14375 86.21354L107.6125 86.21354Q107.55 85.416664 107.22188 85.02604Q106.70625 84.416664 105.90938 84.416664Q105.175 84.416664 104.675 84.90104Q104.19063 85.385414 104.14375 86.21354ZM114.59688 87.916664L115.69063 88.041664Q115.44063 88.99479 114.7375 89.52604Q114.03438 90.05729 112.95625 90.05729Q111.59688 90.05729 110.78438 89.21354Q109.9875 88.36979 109.9875 86.854164Q109.9875 85.291664 110.8 84.43229Q111.6125 83.55729 112.89375 83.55729Q114.14375 83.55729 114.925 84.40104Q115.72188 85.24479 115.72188 86.791664Q115.72188 86.885414 115.72188 87.072914L111.08125 87.072914Q111.14375 88.104164 111.65938 88.65104Q112.175 89.18229 112.95625 89.18229Q113.53438 89.18229 113.94063 88.885414Q114.3625 88.572914 114.59688 87.916664ZM111.14375 86.21354L114.6125 86.21354Q114.55 85.416664 114.22188 85.02604Q113.70625 84.416664 112.90938 84.416664Q112.175 84.416664 111.675 84.90104Q111.19063 85.385414 111.14375 86.21354Z" fill-rule="nonzero"/><path fill="#9e9e9e" d="M19.05 104.666664L20.159374 104.572914Q20.284374 105.385414 20.721874 105.791664Q21.175 106.197914 21.815624 106.197914Q22.565624 106.197914 23.096874 105.61979Q23.628124 105.041664 23.628124 104.104164Q23.628124 103.197914 23.1125 102.68229Q22.6125 102.15104 21.784374 102.15104Q21.284374 102.15104 20.8625 102.385414Q20.45625 102.61979 20.221874 102.979164L19.2375 102.854164L20.065624 98.447914L24.346874 98.447914L24.346874 99.447914L20.909374 99.447914L20.45625 101.760414Q21.221874 101.21354 22.065624 101.21354Q23.190624 101.21354 23.95625 101.99479Q24.7375 102.77604 24.7375 104.010414Q24.7375 105.166664 24.065624 106.02604Q23.2375 107.05729 21.815624 107.05729Q20.64375 107.05729 19.89375 106.40104Q19.159374 105.74479 19.05 104.666664ZM26.64375 106.916664L26.64375 105.71354L27.846874 105.71354L27.846874 106.916664L26.64375 106.916664ZM29.20625 104.93229L30.221874 104.83854Q30.346874 105.55729 30.70625 105.885414Q31.08125 106.197914 31.64375 106.197914Q32.128124 106.197914 32.4875 105.979164Q32.8625 105.74479 33.096874 105.385414Q33.33125 105.010414 33.4875 104.385414Q33.64375 103.74479 33.64375 103.08854Q33.64375 103.010414 33.64375 102.86979Q33.33125 103.36979 32.784374 103.697914Q32.2375 104.010414 31.596874 104.010414Q30.51875 104.010414 29.784374 103.24479Q29.05 102.46354 29.05 101.197914Q29.05 99.885414 29.815624 99.08854Q30.596874 98.291664 31.753124 98.291664Q32.58125 98.291664 33.26875 98.74479Q33.971874 99.197914 34.33125 100.041664Q34.690624 100.86979 34.690624 102.447914Q34.690624 104.08854 34.33125 105.072914Q33.9875 106.041664 33.26875 106.55729Q32.565624 107.05729 31.628124 107.05729Q30.6125 107.05729 29.971874 106.510414Q29.33125 105.947914 29.20625 104.93229ZM33.51875 101.135414Q33.51875 100.229164 33.034374 99.697914Q32.565624 99.166664 31.878124 99.166664Q31.175 99.166664 30.64375 99.74479Q30.128124 100.30729 30.128124 101.229164Q30.128124 102.041664 30.628124 102.55729Q31.128124 103.072914 31.846874 103.072914Q32.58125 103.072914 33.05 102.55729Q33.51875 102.041664 33.51875 101.135414ZM36.253124 100.385414Q36.253124 99.46354 36.70625 98.822914Q37.175 98.18229 38.05 98.18229Q38.8625 98.18229 39.39375 98.760414Q39.925 99.33854 39.925 100.447914Q39.925 101.541664 39.378124 102.135414Q38.846874 102.71354 38.065624 102.71354Q37.284374 102.71354 36.76875 102.135414Q36.253124 101.55729 36.253124 100.385414ZM38.08125 98.90104Q37.690624 98.90104 37.425 99.24479Q37.175 99.58854 37.175 100.49479Q37.175 101.322914 37.425 101.666664Q37.690624 101.99479 38.08125 101.99479Q38.4875 101.99479 38.7375 101.65104Q39.003124 101.30729 39.003124 100.416664Q39.003124 99.572914 38.7375 99.24479Q38.471874 98.90104 38.08125 98.90104ZM38.08125 107.229164L42.784374 98.18229L43.64375 98.18229L38.95625 107.229164L38.08125 107.229164ZM41.8 104.90104Q41.8 103.979164 42.253124 103.33854Q42.721874 102.697914 43.6125 102.697914Q44.425 102.697914 44.95625 103.27604Q45.4875 103.83854 45.4875 104.96354Q45.4875 106.05729 44.940624 106.65104Q44.409374 107.229164 43.6125 107.229164Q42.846874 107.229164 42.315624 106.65104Q41.8 106.072914 41.8 104.90104ZM43.64375 103.416664Q43.2375 103.416664 42.971874 103.760414Q42.721874 104.104164 42.721874 105.010414Q42.721874 105.822914 42.9875 106.166664Q43.253124 106.510414 43.64375 106.510414Q44.034374 106.510414 44.3 106.166664Q44.565624 105.822914 44.565624 104.916664Q44.565624 104.08854 44.3 103.760414Q44.034374 103.416664 43.64375 103.416664Z" fill-rule="nonzero"/><path stroke="#757575" stroke-width="1.0" stroke-linecap="butt" d="M18.55 94.416664L157.23334 94.416664L276.12573 87.96728" fill-rule="nonzero"/><path fill="#9e9e9e" d="M278.12573 87.96728C278.12573 86.86271 277.2303 85.96728 276.12573 85.96728C275.02115 85.96728 274.12573 86.86271 274.12573 87.96728C274.12573 89.071846 275.02115 89.96728 276.12573 89.96728C277.2303 89.96728 278.12573 89.071846 278.12573 87.96728" fill-rule="nonzero"/><path fill="#1a1a1a" d="M19.471874 183.38736L19.471874 174.79361L22.440624 174.79361Q23.440624 174.79361 23.971874 174.91861Q24.70625 175.09048 25.221874 175.52798Q25.909374 176.10611 26.2375 177.01236Q26.58125 177.90298 26.58125 179.04361Q26.58125 180.02798 26.346874 180.77798Q26.128124 181.52798 25.76875 182.02798Q25.409374 182.52798 24.971874 182.80923Q24.55 183.09048 23.95625 183.24673Q23.3625 183.38736 22.58125 183.38736L19.471874 183.38736ZM20.6125 182.37173L22.440624 182.37173Q23.3 182.37173 23.784374 182.21548Q24.26875 182.05923 24.55 181.76236Q24.95625 181.37173 25.175 180.68423Q25.409374 179.99673 25.409374 179.02798Q25.409374 177.68423 24.95625 176.96548Q24.51875 176.23111 23.89375 175.98111Q23.425 175.80923 22.425 175.80923L20.6125 175.80923L20.6125 182.37173ZM28.346874 176.01236L28.346874 174.79361L29.409374 174.79361L29.409374 176.01236L28.346874 176.01236ZM28.346874 183.38736L28.346874 177.16861L29.409374 177.16861L29.409374 183.38736L28.346874 183.38736ZM30.925 181.52798L31.95625 181.37173Q32.05 181.99673 32.440624 182.32486Q32.846874 182.65298 33.58125 182.65298Q34.3 182.65298 34.64375 182.37173Q35.003124 182.07486 35.003124 181.66861Q35.003124 181.30923 34.690624 181.10611Q34.471874 180.96548 33.6125 180.74673Q32.45625 180.44986 32.003124 180.24673Q31.565624 180.02798 31.33125 179.65298Q31.096874 179.27798 31.096874 178.80923Q31.096874 178.40298 31.284374 178.04361Q31.471874 177.68423 31.8 177.44986Q32.05 177.27798 32.471874 177.15298Q32.89375 177.02798 33.39375 177.02798Q34.1125 177.02798 34.659374 177.24673Q35.221874 177.44986 35.4875 177.80923Q35.753124 178.16861 35.846874 178.76236L34.815624 178.90298Q34.753124 178.43423 34.409374 178.16861Q34.08125 177.88736 33.45625 177.88736Q32.7375 177.88736 32.425 178.13736Q32.1125 178.37173 32.1125 178.69986Q32.1125 178.90298 32.2375 179.05923Q32.378124 179.23111 32.64375 179.34048Q32.8 179.40298 33.58125 179.60611Q34.70625 179.91861 35.14375 180.10611Q35.58125 180.29361 35.83125 180.65298Q36.08125 181.01236 36.08125 181.55923Q36.08125 182.09048 35.76875 182.55923Q35.471874 183.01236 34.89375 183.27798Q34.315624 183.52798 33.58125 183.52798Q32.3625 183.52798 31.721874 183.02798Q31.096874 182.51236 30.925 181.52798ZM42.409374 182.62173Q41.815624 183.12173 41.26875 183.32486Q40.7375 183.52798 40.1125 183.52798Q39.08125 183.52798 38.534374 183.02798Q37.9875 182.52798 37.9875 181.74673Q37.9875 181.29361 38.190624 180.91861Q38.39375 180.52798 38.7375 180.30923Q39.08125 180.07486 39.503124 179.96548Q39.8 179.87173 40.440624 179.79361Q41.70625 179.65298 42.315624 179.43423Q42.315624 179.21548 42.315624 179.16861Q42.315624 178.51236 42.01875 178.24673Q41.6125 177.90298 40.815624 177.90298Q40.08125 177.90298 39.721874 178.16861Q39.3625 178.41861 39.190624 179.07486L38.159374 178.93423Q38.3 178.27798 38.628124 177.87173Q38.95625 177.46548 39.565624 177.24673Q40.175 177.02798 40.971874 177.02798Q41.76875 177.02798 42.26875 177.21548Q42.76875 177.40298 43.003124 177.68423Q43.2375 177.96548 43.33125 178.40298Q43.378124 178.66861 43.378124 179.37173L43.378124 180.77798Q43.378124 182.24673 43.440624 182.63736Q43.51875 183.02798 43.721874 183.38736L42.6125 183.38736Q42.45625 183.05923 42.409374 182.62173ZM42.315624 180.26236Q41.7375 180.49673 40.596874 180.66861Q39.940624 180.76236 39.675 180.88736Q39.409374 180.99673 39.253124 181.21548Q39.1125 181.43423 39.1125 181.71548Q39.1125 182.13736 39.425 182.41861Q39.753124 182.69986 40.3625 182.69986Q40.971874 182.69986 41.440624 182.43423Q41.925 182.16861 42.14375 181.69986Q42.315624 181.34048 42.315624 180.65298L42.315624 180.26236ZM45.14375 183.90298L46.175 184.05923Q46.2375 184.52798 46.534374 184.74673Q46.925 185.04361 47.596874 185.04361Q48.33125 185.04361 48.721874 184.74673Q49.128124 184.44986 49.26875 183.93423Q49.3625 183.60611 49.346874 182.57486Q48.659374 183.38736 47.628124 183.38736Q46.346874 183.38736 45.64375 182.46548Q44.940624 181.52798 44.940624 180.24673Q44.940624 179.35611 45.253124 178.60611Q45.58125 177.84048 46.190624 177.43423Q46.8 177.02798 47.628124 177.02798Q48.7375 177.02798 49.45625 177.91861L49.45625 177.16861L50.425 177.16861L50.425 182.54361Q50.425 183.99673 50.128124 184.60611Q49.83125 185.21548 49.190624 185.55923Q48.55 185.91861 47.6125 185.91861Q46.503124 185.91861 45.815624 185.41861Q45.128124 184.91861 45.14375 183.90298ZM46.01875 180.16861Q46.01875 181.38736 46.503124 181.94986Q46.9875 182.51236 47.721874 182.51236Q48.45625 182.51236 48.940624 181.94986Q49.440624 181.38736 49.440624 180.19986Q49.440624 179.05923 48.925 178.48111Q48.425 177.90298 47.70625 177.90298Q47.003124 177.90298 46.503124 178.48111Q46.01875 179.04361 46.01875 180.16861ZM52.33125 183.38736L52.33125 177.16861L53.284374 177.16861L53.284374 178.10611Q53.64375 177.44986 53.940624 177.24673Q54.253124 177.02798 54.628124 177.02798Q55.159374 177.02798 55.70625 177.35611L55.346874 178.34048Q54.95625 178.10611 54.58125 178.10611Q54.221874 178.10611 53.940624 178.32486Q53.675 178.52798 53.565624 178.90298Q53.378124 179.46548 53.378124 180.12173L53.378124 183.38736L52.33125 183.38736ZM60.596874 181.38736L61.690624 181.51236Q61.440624 182.46548 60.7375 182.99673Q60.034374 183.52798 58.95625 183.52798Q57.596874 183.52798 56.784374 182.68423Q55.9875 181.84048 55.9875 180.32486Q55.9875 178.76236 56.8 177.90298Q57.6125 177.02798 58.89375 177.02798Q60.14375 177.02798 60.925 177.87173Q61.721874 178.71548 61.721874 180.26236Q61.721874 180.35611 61.721874 180.54361L57.08125 180.54361Q57.14375 181.57486 57.659374 182.12173Q58.175 182.65298 58.95625 182.65298Q59.534374 182.65298 59.940624 182.35611Q60.3625 182.04361 60.596874 181.38736ZM57.14375 179.68423L60.6125 179.68423Q60.55 178.88736 60.221874 178.49673Q59.70625 177.88736 58.909374 177.88736Q58.175 177.88736 57.675 178.37173Q57.190624 178.85611 57.14375 179.68423ZM67.59688 181.38736L68.69063 181.51236Q68.44063 182.46548 67.7375 182.99673Q67.03438 183.52798 65.95625 183.52798Q64.59688 183.52798 63.784374 182.68423Q62.9875 181.84048 62.9875 180.32486Q62.9875 178.76236 63.8 177.90298Q64.6125 177.02798 65.89375 177.02798Q67.14375 177.02798 67.925 177.87173Q68.72188 178.71548 68.72188 180.26236Q68.72188 180.35611 68.72188 180.54361L64.08125 180.54361Q64.14375 181.57486 64.65938 182.12173Q65.175 182.65298 65.95625 182.65298Q66.53438 182.65298 66.94063 182.35611Q67.3625 182.04361 67.59688 181.38736ZM64.14375 179.68423L67.6125 179.68423Q67.55 178.88736 67.22188 178.49673Q66.70625 177.88736 65.90938 177.88736Q65.175 177.88736 64.675 178.37173Q64.19063 178.85611 64.14375 179.68423Z" fill-rule="nonzero"/><path fill="#9e9e9e" d="M19.05 198.12173L20.1125 197.98111Q20.284374 198.87173 20.721874 199.27798Q21.159374 199.66861 21.784374 199.66861Q22.534374 199.66861 23.05 199.15298Q23.565624 198.63736 23.565624 197.87173Q23.565624 197.15298 23.08125 196.68423Q22.6125 196.19986 21.878124 196.19986Q21.58125 196.19986 21.128124 196.32486L21.253124 195.38736Q21.3625 195.40298 21.425 195.40298Q22.096874 195.40298 22.628124 195.05923Q23.175 194.69986 23.175 193.96548Q23.175 193.38736 22.784374 193.01236Q22.39375 192.62173 21.76875 192.62173Q21.159374 192.62173 20.7375 193.01236Q20.33125 193.40298 20.221874 194.16861L19.159374 193.98111Q19.346874 192.93423 20.034374 192.35611Q20.721874 191.76236 21.7375 191.76236Q22.440624 191.76236 23.034374 192.07486Q23.628124 192.37173 23.940624 192.88736Q24.253124 193.40298 24.253124 193.99673Q24.253124 194.54361 23.95625 195.01236Q23.659374 195.46548 23.08125 195.73111Q23.83125 195.90298 24.253124 196.46548Q24.675 197.01236 24.675 197.85611Q24.675 198.98111 23.846874 199.76236Q23.034374 200.54361 21.784374 200.54361Q20.659374 200.54361 19.909374 199.87173Q19.159374 199.18423 19.05 198.12173ZM30.01875 200.38736L28.971874 200.38736L28.971874 193.66861Q28.58125 194.02798 27.95625 194.40298Q27.346874 194.76236 26.8625 194.93423L26.8625 193.91861Q27.7375 193.49673 28.39375 192.91861Q29.065624 192.32486 29.346874 191.76236L30.01875 191.76236L30.01875 200.38736ZM33.64375 200.38736L33.64375 199.18423L34.846874 199.18423L34.846874 200.38736L33.64375 200.38736ZM39.425 200.38736L39.425 198.32486L35.70625 198.32486L35.70625 197.35611L39.628124 191.79361L40.4875 191.79361L40.4875 197.35611L41.64375 197.35611L41.64375 198.32486L40.4875 198.32486L40.4875 200.38736L39.425 200.38736ZM39.425 197.35611L39.425 193.49673L36.7375 197.35611L39.425 197.35611ZM43.253124 193.85611Q43.253124 192.93423 43.70625 192.29361Q44.175 191.65298 45.05 191.65298Q45.8625 191.65298 46.39375 192.23111Q46.925 192.80923 46.925 193.91861Q46.925 195.01236 46.378124 195.60611Q45.846874 196.18423 45.065624 196.18423Q44.284374 196.18423 43.76875 195.60611Q43.253124 195.02798 43.253124 193.85611ZM45.08125 192.37173Q44.690624 192.37173 44.425 192.71548Q44.175 193.05923 44.175 193.96548Q44.175 194.79361 44.425 195.13736Q44.690624 195.46548 45.08125 195.46548Q45.4875 195.46548 45.7375 195.12173Q46.003124 194.77798 46.003124 193.88736Q46.003124 193.04361 45.7375 192.71548Q45.471874 192.37173 45.08125 192.37173ZM45.08125 200.69986L49.784374 191.65298L50.64375 191.65298L45.95625 200.69986L45.08125 200.69986ZM48.8 198.37173Q48.8 197.44986 49.253124 196.80923Q49.721874 196.16861 50.6125 196.16861Q51.425 196.16861 51.95625 196.74673Q52.4875 197.30923 52.4875 198.43423Q52.4875 199.52798 51.940624 200.12173Q51.409374 200.69986 50.6125 200.69986Q49.846874 200.69986 49.315624 200.12173Q48.8 199.54361 48.8 198.37173ZM50.64375 196.88736Q50.2375 196.88736 49.971874 197.23111Q49.721874 197.57486 49.721874 198.48111Q49.721874 199.29361 49.9875 199.63736Q50.253124 199.98111 50.64375 199.98111Q51.034374 199.98111 51.3 199.63736Q51.565624 199.29361 51.565624 198.38736Q51.565624 197.55923 51.3 197.23111Q51.034374 196.88736 50.64375 196.88736Z" fill-rule="nonzero"/><path stroke="#757575" stroke-width="1.0" stroke-linecap="butt" d="M18.55 187.88736L157.23334 187.88736L173.07973 187.88736" fill-rule="nonzero"/><path fill="#9e9e9e" d="M175.07973 187.88736C175.07973 186.78279 174.1843 185.88736 173.07973 185.88736C171.97516 185.88736 171.07973 186.78279 171.07973 187.88736C171.07973 188.99193 171.97516 189.88736 173.07973 189.88736C174.1843 189.88736 175.07973 188.99193 175.07973 187.88736" fill-rule="nonzero"/><path fill="#1a1a1a" d="M549.4344 139.41547L552.73126 130.82172L553.95 130.82172L557.46564 139.41547L556.1844 139.41547L555.16876 136.80609L551.59064 136.80609L550.6375 139.41547L549.4344 139.41547ZM551.91876 135.88422L554.825 135.88422L553.9344 133.50922Q553.5125 132.43109 553.325 131.72797Q553.15314 132.55609 552.85626 133.36859L551.91876 135.88422ZM557.04376 139.93109L558.075 140.08734Q558.1375 140.55609 558.4344 140.77484Q558.825 141.07172 559.4969 141.07172Q560.23126 141.07172 560.6219 140.77484Q561.02814 140.47797 561.16876 139.96234Q561.2625 139.63422 561.2469 138.60297Q560.5594 139.41547 559.52814 139.41547Q558.2469 139.41547 557.54376 138.49359Q556.84064 137.55609 556.84064 136.27484Q556.84064 135.38422 557.15314 134.63422Q557.48126 133.86859 558.09064 133.46234Q558.7 133.05609 559.52814 133.05609Q560.6375 133.05609 561.35626 133.94672L561.35626 133.19672L562.325 133.19672L562.325 138.57172Q562.325 140.02484 562.02814 140.63422Q561.73126 141.24359 561.09064 141.58734Q560.45 141.94672 559.5125 141.94672Q558.40314 141.94672 557.71564 141.44672Q557.02814 140.94672 557.04376 139.93109ZM557.91876 136.19672Q557.91876 137.41547 558.40314 137.97797Q558.8875 138.54047 559.6219 138.54047Q560.35626 138.54047 560.84064 137.97797Q561.34064 137.41547 561.34064 136.22797Q561.34064 135.08734 560.825 134.50922Q560.325 133.93109 559.60626 133.93109Q558.90314 133.93109 558.40314 134.50922Q557.91876 135.07172 557.91876 136.19672ZM564.23126 139.41547L564.23126 133.19672L565.1844 133.19672L565.1844 134.13422Q565.54376 133.47797 565.84064 133.27484Q566.15314 133.05609 566.52814 133.05609Q567.0594 133.05609 567.60626 133.38422L567.2469 134.36859Q566.85626 134.13422 566.48126 134.13422Q566.1219 134.13422 565.84064 134.35297Q565.575 134.55609 565.46564 134.93109Q565.27814 135.49359 565.27814 136.14984L565.27814 139.41547L564.23126 139.41547ZM572.4969 137.41547L573.59064 137.54047Q573.34064 138.49359 572.6375 139.02484Q571.9344 139.55609 570.85626 139.55609Q569.4969 139.55609 568.6844 138.71234Q567.8875 137.86859 567.8875 136.35297Q567.8875 134.79047 568.7 133.93109Q569.5125 133.05609 570.79376 133.05609Q572.04376 133.05609 572.825 133.89984Q573.6219 134.74359 573.6219 136.29047Q573.6219 136.38422 573.6219 136.57172L568.98126 136.57172Q569.04376 137.60297 569.5594 138.14984Q570.075 138.68109 570.85626 138.68109Q571.4344 138.68109 571.84064 138.38422Q572.2625 138.07172 572.4969 137.41547ZM569.04376 135.71234L572.5125 135.71234Q572.45 134.91547 572.1219 134.52484Q571.60626 133.91547 570.8094 133.91547Q570.075 133.91547 569.575 134.39984Q569.09064 134.88422 569.04376 135.71234ZM579.4969 137.41547L580.59064 137.54047Q580.34064 138.49359 579.6375 139.02484Q578.9344 139.55609 577.85626 139.55609Q576.4969 139.55609 575.6844 138.71234Q574.8875 137.86859 574.8875 136.35297Q574.8875 134.79047 575.7 133.93109Q576.5125 133.05609 577.79376 133.05609Q579.04376 133.05609 579.825 133.89984Q580.6219 134.74359 580.6219 136.29047Q580.6219 136.38422 580.6219 136.57172L575.98126 136.57172Q576.04376 137.60297 576.5594 138.14984Q577.075 138.68109 577.85626 138.68109Q578.4344 138.68109 578.84064 138.38422Q579.2625 138.07172 579.4969 137.41547ZM576.04376 135.71234L579.5125 135.71234Q579.45 134.91547 579.1219 134.52484Q578.60626 133.91547 577.8094 133.91547Q577.075 133.91547 576.575 134.39984Q576.09064 134.88422 576.04376 135.71234Z" fill-rule="nonzero"/><path fill="#9e9e9e" d="M546.95 154.14984L548.0125 154.00922Q548.1844 154.89984 548.6219 155.30609Q549.0594 155.69672 549.6844 155.69672Q550.4344 155.69672 550.95 155.18109Q551.46564 154.66547 551.46564 153.89984Q551.46564 153.18109 550.98126 152.71234Q550.5125 152.22797 549.77814 152.22797Q549.48126 152.22797 549.02814 152.35297L549.15314 151.41547Q549.2625 151.43109 549.325 151.43109Q549.9969 151.43109 550.52814 151.08734Q551.075 150.72797 551.075 149.99359Q551.075 149.41547 550.6844 149.04047Q550.29376 148.64984 549.66876 148.64984Q549.0594 148.64984 548.6375 149.04047Q548.23126 149.43109 548.1219 150.19672L547.0594 150.00922Q547.2469 148.96234 547.9344 148.38422Q548.6219 147.79047 549.6375 147.79047Q550.34064 147.79047 550.9344 148.10297Q551.52814 148.39984 551.84064 148.91547Q552.15314 149.43109 552.15314 150.02484Q552.15314 150.57172 551.85626 151.04047Q551.5594 151.49359 550.98126 151.75922Q551.73126 151.93109 552.15314 152.49359Q552.575 153.04047 552.575 153.88422Q552.575 155.00922 551.7469 155.79047Q550.9344 156.57172 549.6844 156.57172Q548.5594 156.57172 547.8094 155.89984Q547.0594 155.21234 546.95 154.14984ZM557.91876 156.41547L556.8719 156.41547L556.8719 149.69672Q556.48126 150.05609 555.85626 150.43109Q555.2469 150.79047 554.7625 150.96234L554.7625 149.94672Q555.6375 149.52484 556.29376 148.94672Q556.96564 148.35297 557.2469 147.79047L557.91876 147.79047L557.91876 156.41547ZM561.54376 156.41547L561.54376 155.21234L562.7469 155.21234L562.7469 156.41547L561.54376 156.41547ZM567.325 156.41547L567.325 154.35297L563.60626 154.35297L563.60626 153.38422L567.52814 147.82172L568.3875 147.82172L568.3875 153.38422L569.54376 153.38422L569.54376 154.35297L568.3875 154.35297L568.3875 156.41547L567.325 156.41547ZM567.325 153.38422L567.325 149.52484L564.6375 153.38422L567.325 153.38422ZM571.15314 149.88422Q571.15314 148.96234 571.60626 148.32172Q572.075 147.68109 572.95 147.68109Q573.7625 147.68109 574.29376 148.25922Q574.825 148.83734 574.825 149.94672Q574.825 151.04047 574.27814 151.63422Q573.7469 152.21234 572.96564 152.21234Q572.1844 152.21234 571.66876 151.63422Q571.15314 151.05609 571.15314 149.88422ZM572.98126 148.39984Q572.59064 148.39984 572.325 148.74359Q572.075 149.08734 572.075 149.99359Q572.075 150.82172 572.325 151.16547Q572.59064 151.49359 572.98126 151.49359Q573.3875 151.49359 573.6375 151.14984Q573.90314 150.80609 573.90314 149.91547Q573.90314 149.07172 573.6375 148.74359Q573.3719 148.39984 572.98126 148.39984ZM572.98126 156.72797L577.6844 147.68109L578.54376 147.68109L573.85626 156.72797L572.98126 156.72797ZM576.7 154.39984Q576.7 153.47797 577.15314 152.83734Q577.6219 152.19672 578.5125 152.19672Q579.325 152.19672 579.85626 152.77484Q580.3875 153.33734 580.3875 154.46234Q580.3875 155.55609 579.84064 156.14984Q579.3094 156.72797 578.5125 156.72797Q577.7469 156.72797 577.21564 156.14984Q576.7 155.57172 576.7 154.39984ZM578.54376 152.91547Q578.1375 152.91547 577.8719 153.25922Q577.6219 153.60297 577.6219 154.50922Q577.6219 155.32172 577.8875 155.66547Q578.15314 156.00922 578.54376 156.00922Q578.9344 156.00922 579.2 155.66547Q579.46564 155.32172 579.46564 154.41547Q579.46564 153.58734 579.2 153.25922Q578.9344 152.91547 578.54376 152.91547Z" fill-rule="nonzero"/><path stroke="#757575" stroke-width="1.0" stroke-linecap="butt" d="M581.45 143.91547L442.76666 143.91547L408.30856 143.91547" fill-rule="nonzero"/><path fill="#9e9e9e" d="M410.30856 143.91547C410.30856 142.8109 409.41315 141.91547 408.30856 141.91547C407.204 141.91547 406.30856 142.8109 406.30856 143.91547C406.30856 145.02005 407.204 145.91547 408.30856 145.91547C409.41315 145.91547 410.30856 145.02005 410.30856 143.91547" fill-rule="nonzero"/><path fill="#1a1a1a" d="M502.9969 329.6844L504.0594 329.59064Q504.1375 330.2469 504.41876 330.65314Q504.7 331.0594 505.27814 331.325Q505.8719 331.575 506.60626 331.575Q507.2469 331.575 507.7469 331.3875Q508.2469 331.1844 508.48126 330.85626Q508.73126 330.5125 508.73126 330.1219Q508.73126 329.71564 508.4969 329.41876Q508.2625 329.10626 507.73126 328.90314Q507.3719 328.7625 506.1844 328.48126Q505.0125 328.2 504.54376 327.95Q503.91876 327.6219 503.6219 327.15314Q503.325 326.66876 503.325 326.075Q503.325 325.4344 503.6844 324.8719Q504.0594 324.29376 504.7625 324.0125Q505.48126 323.71564 506.34064 323.71564Q507.29376 323.71564 508.02814 324.02814Q508.7625 324.325 509.15314 324.9344Q509.54376 325.52814 509.575 326.27814L508.48126 326.35626Q508.3875 325.54376 507.8719 325.1375Q507.3719 324.71564 506.3875 324.71564Q505.35626 324.71564 504.8875 325.09064Q504.41876 325.46564 504.41876 325.9969Q504.41876 326.46564 504.7469 326.7625Q505.075 327.0594 506.45 327.3719Q507.84064 327.6844 508.35626 327.91876Q509.10626 328.27814 509.46564 328.8094Q509.825 329.325 509.825 330.02814Q509.825 330.71564 509.4344 331.325Q509.04376 331.91876 508.3094 332.2625Q507.575 332.59064 506.65314 332.59064Q505.48126 332.59064 504.6844 332.2625Q503.90314 331.91876 503.45 331.23126Q503.0125 330.54376 502.9969 329.6844ZM513.54376 331.5125L513.7 332.4344Q513.2469 332.52814 512.90314 332.52814Q512.325 332.52814 512.0125 332.35626Q511.7 332.16876 511.5594 331.8719Q511.4344 331.575 511.4344 330.6219L511.4344 327.04376L510.66876 327.04376L510.66876 326.23126L511.4344 326.23126L511.4344 324.6844L512.48126 324.0594L512.48126 326.23126L513.54376 326.23126L513.54376 327.04376L512.48126 327.04376L512.48126 330.6844Q512.48126 331.1375 512.52814 331.2625Q512.59064 331.3875 512.71564 331.46564Q512.84064 331.54376 513.075 331.54376Q513.2625 331.54376 513.54376 331.5125ZM514.23126 332.45L514.23126 326.23126L515.1844 326.23126L515.1844 327.16876Q515.54376 326.5125 515.84064 326.3094Q516.15314 326.09064 516.52814 326.09064Q517.0594 326.09064 517.60626 326.41876L517.2469 327.40314Q516.85626 327.16876 516.48126 327.16876Q516.1219 327.16876 515.84064 327.3875Q515.575 327.59064 515.46564 327.96564Q515.27814 328.52814 515.27814 329.1844L515.27814 332.45L514.23126 332.45ZM517.85626 329.34064Q517.85626 327.60626 518.8094 326.77814Q519.60626 326.09064 520.7625 326.09064Q522.04376 326.09064 522.85626 326.9344Q523.6844 327.7625 523.6844 329.2469Q523.6844 330.45 523.325 331.1375Q522.96564 331.825 522.2625 332.21564Q521.575 332.59064 520.7625 332.59064Q519.46564 332.59064 518.65314 331.7625Q517.85626 330.91876 517.85626 329.34064ZM518.9344 329.34064Q518.9344 330.52814 519.45 331.1219Q519.98126 331.71564 520.7625 331.71564Q521.5594 331.71564 522.075 331.1219Q522.59064 330.52814 522.59064 329.3094Q522.59064 328.15314 522.0594 327.5594Q521.54376 326.96564 520.7625 326.96564Q519.98126 326.96564 519.45 327.5594Q518.9344 328.1375 518.9344 329.34064ZM525.2469 332.45L525.2469 326.23126L526.1844 326.23126L526.1844 327.10626Q526.8719 326.09064 528.16876 326.09064Q528.73126 326.09064 529.2 326.29376Q529.6844 326.4969 529.91876 326.825Q530.15314 327.15314 530.2469 327.59064Q530.29376 327.8875 530.29376 328.6219L530.29376 332.45L529.2469 332.45L529.2469 328.66876Q529.2469 328.0125 529.1219 327.7Q528.9969 327.3875 528.6844 327.2Q528.3719 326.9969 527.95 326.9969Q527.27814 326.9969 526.77814 327.4344Q526.29376 327.85626 526.29376 329.04376L526.29376 332.45L525.2469 332.45ZM532.04376 332.96564L533.075 333.1219Q533.1375 333.59064 533.4344 333.8094Q533.825 334.10626 534.4969 334.10626Q535.23126 334.10626 535.6219 333.8094Q536.02814 333.5125 536.16876 332.9969Q536.2625 332.66876 536.2469 331.6375Q535.5594 332.45 534.52814 332.45Q533.2469 332.45 532.54376 331.52814Q531.84064 330.59064 531.84064 329.3094Q531.84064 328.41876 532.15314 327.66876Q532.48126 326.90314 533.09064 326.4969Q533.7 326.09064 534.52814 326.09064Q535.6375 326.09064 536.35626 326.98126L536.35626 326.23126L537.325 326.23126L537.325 331.60626Q537.325 333.0594 537.02814 333.66876Q536.73126 334.27814 536.09064 334.6219Q535.45 334.98126 534.5125 334.98126Q533.40314 334.98126 532.71564 334.48126Q532.02814 333.98126 532.04376 332.96564ZM532.91876 329.23126Q532.91876 330.45 533.40314 331.0125Q533.8875 331.575 534.6219 331.575Q535.35626 331.575 535.84064 331.0125Q536.34064 330.45 536.34064 329.2625Q536.34064 328.1219 535.825 327.54376Q535.325 326.96564 534.60626 326.96564Q533.90314 326.96564 533.40314 327.54376Q532.91876 328.10626 532.91876 329.23126ZM539.21564 332.45L539.21564 323.85626L540.27814 323.85626L540.27814 332.45L539.21564 332.45ZM542.2 334.84064L542.075 333.85626Q542.41876 333.95 542.6844 333.95Q543.02814 333.95 543.23126 333.825Q543.45 333.71564 543.59064 333.5125Q543.6844 333.34064 543.91876 332.71564Q543.9344 332.6375 544.0125 332.46564L541.6375 326.23126L542.77814 326.23126L544.075 329.825Q544.325 330.5125 544.52814 331.27814Q544.71564 330.54376 544.96564 329.85626L546.29376 326.23126L547.34064 326.23126L544.98126 332.5594Q544.59064 333.575 544.3875 333.96564Q544.10626 334.4969 543.73126 334.73126Q543.3719 334.98126 542.8719 334.98126Q542.575 334.98126 542.2 334.84064ZM549.4344 332.45L552.73126 323.85626L553.95 323.85626L557.46564 332.45L556.1844 332.45L555.16876 329.84064L551.59064 329.84064L550.6375 332.45L549.4344 332.45ZM551.91876 328.91876L554.825 328.91876L553.9344 326.54376Q553.5125 325.46564 553.325 324.7625Q553.15314 325.59064 552.85626 326.40314L551.91876 328.91876ZM557.04376 332.96564L558.075 333.1219Q558.1375 333.59064 558.4344 333.8094Q558.825 334.10626 559.4969 334.10626Q560.23126 334.10626 560.6219 333.8094Q561.02814 333.5125 561.16876 332.9969Q561.2625 332.66876 561.2469 331.6375Q560.5594 332.45 559.52814 332.45Q558.2469 332.45 557.54376 331.52814Q556.84064 330.59064 556.84064 329.3094Q556.84064 328.41876 557.15314 327.66876Q557.48126 326.90314 558.09064 326.4969Q558.7 326.09064 559.52814 326.09064Q560.6375 326.09064 561.35626 326.98126L561.35626 326.23126L562.325 326.23126L562.325 331.60626Q562.325 333.0594 562.02814 333.66876Q561.73126 334.27814 561.09064 334.6219Q560.45 334.98126 559.5125 334.98126Q558.40314 334.98126 557.71564 334.48126Q557.02814 333.98126 557.04376 332.96564ZM557.91876 329.23126Q557.91876 330.45 558.40314 331.0125Q558.8875 331.575 559.6219 331.575Q560.35626 331.575 560.84064 331.0125Q561.34064 330.45 561.34064 329.2625Q561.34064 328.1219 560.825 327.54376Q560.325 326.96564 559.60626 326.96564Q558.90314 326.96564 558.40314 327.54376Q557.91876 328.10626 557.91876 329.23126ZM564.23126 332.45L564.23126 326.23126L565.1844 326.23126L565.1844 327.16876Q565.54376 326.5125 565.84064 326.3094Q566.15314 326.09064 566.52814 326.09064Q567.0594 326.09064 567.60626 326.41876L567.2469 327.40314Q566.85626 327.16876 566.48126 327.16876Q566.1219 327.16876 565.84064 327.3875Q565.575 327.59064 565.46564 327.96564Q565.27814 328.52814 565.27814 329.1844L565.27814 332.45L564.23126 332.45ZM572.4969 330.45L573.59064 330.575Q573.34064 331.52814 572.6375 332.0594Q571.9344 332.59064 570.85626 332.59064Q569.4969 332.59064 568.6844 331.7469Q567.8875 330.90314 567.8875 329.3875Q567.8875 327.825 568.7 326.96564Q569.5125 326.09064 570.79376 326.09064Q572.04376 326.09064 572.825 326.9344Q573.6219 327.77814 573.6219 329.325Q573.6219 329.41876 573.6219 329.60626L568.98126 329.60626Q569.04376 330.6375 569.5594 331.1844Q570.075 331.71564 570.85626 331.71564Q571.4344 331.71564 571.84064 331.41876Q572.2625 331.10626 572.4969 330.45ZM569.04376 328.7469L572.5125 328.7469Q572.45 327.95 572.1219 327.5594Q571.60626 326.95 570.8094 326.95Q570.075 326.95 569.575 327.4344Q569.09064 327.91876 569.04376 328.7469ZM579.4969 330.45L580.59064 330.575Q580.34064 331.52814 579.6375 332.0594Q578.9344 332.59064 577.85626 332.59064Q576.4969 332.59064 575.6844 331.7469Q574.8875 330.90314 574.8875 329.3875Q574.8875 327.825 575.7 326.96564Q576.5125 326.09064 577.79376 326.09064Q579.04376 326.09064 579.825 326.9344Q580.6219 327.77814 580.6219 329.325Q580.6219 329.41876 580.6219 329.60626L575.98126 329.60626Q576.04376 330.6375 576.5594 331.1844Q577.075 331.71564 577.85626 331.71564Q578.4344 331.71564 578.84064 331.41876Q579.2625 331.10626 579.4969 330.45ZM576.04376 328.7469L579.5125 328.7469Q579.45 327.95 579.1219 327.5594Q578.60626 326.95 577.8094 326.95Q577.075 326.95 576.575 327.4344Q576.09064 327.91876 576.04376 328.7469Z" fill-rule="nonzero"/><path fill="#9e9e9e" d="M546.95 347.1844L548.0125 347.04376Q548.1844 347.9344 548.6219 348.34064Q549.0594 348.73126 549.6844 348.73126Q550.4344 348.73126 550.95 348.21564Q551.46564 347.7 551.46564 346.9344Q551.46564 346.21564 550.98126 345.7469Q550.5125 345.2625 549.77814 345.2625Q549.48126 345.2625 549.02814 345.3875L549.15314 344.45Q549.2625 344.46564 549.325 344.46564Q549.9969 344.46564 550.52814 344.1219Q551.075 343.7625 551.075 343.02814Q551.075 342.45 550.6844 342.075Q550.29376 341.6844 549.66876 341.6844Q549.0594 341.6844 548.6375 342.075Q548.23126 342.46564 548.1219 343.23126L547.0594 343.04376Q547.2469 341.9969 547.9344 341.41876Q548.6219 340.825 549.6375 340.825Q550.34064 340.825 550.9344 341.1375Q551.52814 341.4344 551.84064 341.95Q552.15314 342.46564 552.15314 343.0594Q552.15314 343.60626 551.85626 344.075Q551.5594 344.52814 550.98126 344.79376Q551.73126 344.96564 552.15314 345.52814Q552.575 346.075 552.575 346.91876Q552.575 348.04376 551.7469 348.825Q550.9344 349.60626 549.6844 349.60626Q548.5594 349.60626 547.8094 348.9344Q547.0594 348.2469 546.95 347.1844ZM557.91876 349.45L556.8719 349.45L556.8719 342.73126Q556.48126 343.09064 555.85626 343.46564Q555.2469 343.825 554.7625 343.9969L554.7625 342.98126Q555.6375 342.5594 556.29376 341.98126Q556.96564 341.3875 557.2469 340.825L557.91876 340.825L557.91876 349.45ZM561.54376 349.45L561.54376 348.2469L562.7469 348.2469L562.7469 349.45L561.54376 349.45ZM567.325 349.45L567.325 347.3875L563.60626 347.3875L563.60626 346.41876L567.52814 340.85626L568.3875 340.85626L568.3875 346.41876L569.54376 346.41876L569.54376 347.3875L568.3875 347.3875L568.3875 349.45L567.325 349.45ZM567.325 346.41876L567.325 342.5594L564.6375 346.41876L567.325 346.41876ZM571.15314 342.91876Q571.15314 341.9969 571.60626 341.35626Q572.075 340.71564 572.95 340.71564Q573.7625 340.71564 574.29376 341.29376Q574.825 341.8719 574.825 342.98126Q574.825 344.075 574.27814 344.66876Q573.7469 345.2469 572.96564 345.2469Q572.1844 345.2469 571.66876 344.66876Q571.15314 344.09064 571.15314 342.91876ZM572.98126 341.4344Q572.59064 341.4344 572.325 341.77814Q572.075 342.1219 572.075 343.02814Q572.075 343.85626 572.325 344.2Q572.59064 344.52814 572.98126 344.52814Q573.3875 344.52814 573.6375 344.1844Q573.90314 343.84064 573.90314 342.95Q573.90314 342.10626 573.6375 341.77814Q573.3719 341.4344 572.98126 341.4344ZM572.98126 349.7625L577.6844 340.71564L578.54376 340.71564L573.85626 349.7625L572.98126 349.7625ZM576.7 347.4344Q576.7 346.5125 577.15314 345.8719Q577.6219 345.23126 578.5125 345.23126Q579.325 345.23126 579.85626 345.8094Q580.3875 346.3719 580.3875 347.4969Q580.3875 348.59064 579.84064 349.1844Q579.3094 349.7625 578.5125 349.7625Q577.7469 349.7625 577.21564 349.1844Q576.7 348.60626 576.7 347.4344ZM578.54376 345.95Q578.1375 345.95 577.8719 346.29376Q577.6219 346.6375 577.6219 347.54376Q577.6219 348.35626 577.8875 348.7Q578.15314 349.04376 578.54376 349.04376Q578.9344 349.04376 579.2 348.7Q579.46564 348.35626 579.46564 347.45Q579.46564 346.6219 579.2 346.29376Q578.9344 345.95 578.54376 345.95Z" fill-rule="nonzero"/><path stroke="#757575" stroke-width="1.0" stroke-linecap="butt" d="M581.45 336.95L442.76666 336.95L323.87427 343.39938" fill-rule="nonzero"/><path fill="#9e9e9e" d="M325.87427 343.39938C325.87427 342.29483 324.97885 341.39938 323.87427 341.39938C322.7697 341.39938 321.87427 342.29483 321.87427 343.39938C321.87427 344.50397 322.7697 345.39938 323.87427 345.39938C324.97885 345.39938 325.87427 344.50397 325.87427 343.39938" fill-rule="nonzero"/><path fill="#757575" d="M20.409374 37.55L20.409374 23.2375L22.315624 23.2375L22.315624 37.55L20.409374 37.55ZM33.784374 37.55L30.6125 27.175L32.425 27.175L34.08125 33.159374L34.690624 35.39375Q34.7375 35.221874 35.221874 33.253124L36.878124 27.175L38.690624 27.175L40.2375 33.190624L40.753124 35.175L41.346874 33.175L43.128124 27.175L44.83125 27.175L41.596874 37.55L39.76875 37.55L38.1125 31.33125L37.721874 29.565624L35.6125 37.55L33.784374 37.55ZM46.221874 32.3625Q46.221874 29.4875 47.815624 28.096874Q49.159374 26.940624 51.08125 26.940624Q53.221874 26.940624 54.565624 28.346874Q55.925 29.753124 55.925 32.221874Q55.925 34.221874 55.33125 35.378124Q54.7375 36.51875 53.58125 37.159374Q52.440624 37.784374 51.08125 37.784374Q48.89375 37.784374 47.55 36.39375Q46.221874 34.9875 46.221874 32.3625ZM48.01875 32.3625Q48.01875 34.3625 48.878124 35.346874Q49.753124 36.33125 51.08125 36.33125Q52.39375 36.33125 53.253124 35.346874Q54.128124 34.346874 54.128124 32.3Q54.128124 30.378124 53.253124 29.39375Q52.378124 28.39375 51.08125 28.39375Q49.753124 28.39375 48.878124 29.39375Q48.01875 30.378124 48.01875 32.3625ZM64.65938 37.55L64.65938 36.01875Q63.45625 37.784374 61.378124 37.784374Q60.45625 37.784374 59.659374 37.440624Q58.8625 37.08125 58.471874 36.55Q58.096874 36.01875 57.940624 35.2375Q57.83125 34.721874 57.83125 33.596874L57.83125 27.175L59.58125 27.175L59.58125 32.925Q59.58125 34.3 59.690624 34.784374Q59.8625 35.471874 60.39375 35.878124Q60.940624 36.26875 61.721874 36.26875Q62.51875 36.26875 63.20625 35.8625Q63.909374 35.45625 64.19063 34.76875Q64.4875 34.065624 64.4875 32.7375L64.4875 27.175L66.2375 27.175L66.2375 37.55L64.65938 37.55ZM67.83125 37.55L67.83125 23.2375L69.58125 23.2375L69.58125 37.55L67.83125 37.55ZM78.59688 37.55L78.59688 36.2375Q77.6125 37.784374 75.69063 37.784374Q74.45625 37.784374 73.40938 37.096874Q72.37813 36.409374 71.8 35.190624Q71.2375 33.971874 71.2375 32.378124Q71.2375 30.815624 71.75313 29.55Q72.26875 28.284374 73.3 27.6125Q74.34688 26.940624 75.6125 26.940624Q76.55 26.940624 77.28438 27.346874Q78.01875 27.7375 78.4875 28.3625L78.4875 23.2375L80.22188 23.2375L80.22188 37.55L78.59688 37.55ZM73.03438 32.378124Q73.03438 34.3625 73.87813 35.346874Q74.72188 36.33125 75.8625 36.33125Q77.01875 36.33125 77.81563 35.39375Q78.62813 34.45625 78.62813 32.51875Q78.62813 30.39375 77.8 29.39375Q76.9875 28.39375 75.78438 28.39375Q74.6125 28.39375 73.81563 29.3625Q73.03438 30.315624 73.03438 32.378124ZM92.70625 35.971874L92.95625 37.534374Q92.22188 37.690624 91.62813 37.690624Q90.675 37.690624 90.14375 37.39375Q89.62813 37.08125 89.40938 36.596874Q89.19063 36.096874 89.19063 34.51875L89.19063 28.55L87.90938 28.55L87.90938 27.175L89.19063 27.175L89.19063 24.6125L90.94063 23.55L90.94063 27.175L92.70625 27.175L92.70625 28.55L90.94063 28.55L90.94063 34.6125Q90.94063 35.3625 91.03438 35.58125Q91.12813 35.784374 91.33125 35.925Q91.55 36.05 91.94063 36.05Q92.22188 36.05 92.70625 35.971874ZM101.64375 36.26875Q100.65938 37.096874 99.75313 37.440624Q98.84688 37.784374 97.81563 37.784374Q96.1125 37.784374 95.19063 36.95625Q94.26875 36.1125 94.26875 34.815624Q94.26875 34.05 94.6125 33.425Q94.97188 32.8 95.53438 32.425Q96.09688 32.034374 96.8 31.83125Q97.31563 31.70625 98.3625 31.565624Q100.4875 31.315624 101.4875 30.971874Q101.50313 30.6125 101.50313 30.503124Q101.50313 29.440624 101.00313 28.9875Q100.33125 28.39375 99.00313 28.39375Q97.75313 28.39375 97.15938 28.83125Q96.58125 29.26875 96.3 30.378124L94.58125 30.14375Q94.81563 29.034374 95.34688 28.3625Q95.87813 27.675 96.89375 27.315624Q97.90938 26.940624 99.25313 26.940624Q100.58125 26.940624 101.40938 27.253124Q102.2375 27.565624 102.62813 28.05Q103.01875 28.51875 103.175 29.2375Q103.26875 29.690624 103.26875 30.8625L103.26875 33.20625Q103.26875 35.659374 103.37813 36.315624Q103.4875 36.95625 103.83125 37.55L101.9875 37.55Q101.72188 37.003124 101.64375 36.26875ZM101.4875 32.346874Q100.53438 32.7375 98.6125 33.003124Q97.53438 33.159374 97.08125 33.3625Q96.64375 33.55 96.39375 33.925Q96.14375 34.3 96.14375 34.76875Q96.14375 35.471874 96.675 35.940624Q97.20625 36.409374 98.2375 36.409374Q99.25313 36.409374 100.03438 35.971874Q100.83125 35.51875 101.20625 34.753124Q101.4875 34.14375 101.4875 32.9875L101.4875 32.346874ZM105.87813 37.55L105.87813 23.2375L107.64375 23.2375L107.64375 31.39375L111.8 27.175L114.06563 27.175L110.1125 31.01875L114.47188 37.55L112.3 37.55L108.87813 32.253124L107.64375 33.440624L107.64375 37.55L105.87813 37.55ZM122.97188 34.20625L124.78438 34.440624Q124.3625 36.01875 123.19063 36.909374Q122.03438 37.784374 120.22188 37.784374Q117.95625 37.784374 116.6125 36.39375Q115.28438 34.9875 115.28438 32.45625Q115.28438 29.83125 116.62813 28.39375Q117.97188 26.940624 120.12813 26.940624Q122.20625 26.940624 123.51875 28.3625Q124.84688 29.76875 124.84688 32.346874Q124.84688 32.503124 124.83125 32.815624L117.09688 32.815624Q117.19063 34.51875 118.06563 35.425Q118.94063 36.33125 120.2375 36.33125Q121.20625 36.33125 121.87813 35.83125Q122.56563 35.315624 122.97188 34.20625ZM117.19063 31.3625L122.9875 31.3625Q122.87813 30.065624 122.33125 29.409374Q121.4875 28.39375 120.14375 28.39375Q118.94063 28.39375 118.1125 29.20625Q117.28438 30.003124 117.19063 31.3625ZM132.8625 41.51875L132.8625 27.175L134.47188 27.175L134.47188 28.51875Q135.03438 27.7375 135.7375 27.346874Q136.45625 26.940624 137.47188 26.940624Q138.8 26.940624 139.81563 27.628124Q140.83125 28.315624 141.34688 29.565624Q141.87813 30.8 141.87813 32.284374Q141.87813 33.878124 141.3 35.159374Q140.7375 36.425 139.64375 37.1125Q138.55 37.784374 137.34688 37.784374Q136.47188 37.784374 135.76875 37.409374Q135.08125 37.034374 134.62813 36.471874L134.62813 41.51875L132.8625 41.51875ZM134.45625 32.425Q134.45625 34.425 135.26875 35.378124Q136.08125 36.33125 137.2375 36.33125Q138.40938 36.33125 139.2375 35.346874Q140.08125 34.3625 140.08125 32.26875Q140.08125 30.3 139.25313 29.315624Q138.44063 28.315624 137.31563 28.315624Q136.19063 28.315624 135.31563 29.378124Q134.45625 30.425 134.45625 32.425ZM150.65938 37.55L150.65938 36.01875Q149.45625 37.784374 147.37813 37.784374Q146.45625 37.784374 145.65938 37.440624Q144.8625 37.08125 144.47188 36.55Q144.09688 36.01875 143.94063 35.2375Q143.83125 34.721874 143.83125 33.596874L143.83125 27.175L145.58125 27.175L145.58125 32.925Q145.58125 34.3 145.69063 34.784374Q145.8625 35.471874 146.39375 35.878124Q146.94063 36.26875 147.72188 36.26875Q148.51875 36.26875 149.20625 35.8625Q149.90938 35.45625 150.19063 34.76875Q150.4875 34.065624 150.4875 32.7375L150.4875 27.175L152.2375 27.175L152.2375 37.55L150.65938 37.55ZM155.4875 37.55L153.8625 37.55L153.8625 23.2375L155.6125 23.2375L155.6125 28.346874Q156.7375 26.940624 158.45625 26.940624Q159.40938 26.940624 160.26875 27.33125Q161.12813 27.721874 161.675 28.425Q162.22188 29.1125 162.53438 30.096874Q162.84688 31.08125 162.84688 32.20625Q162.84688 34.878124 161.53438 36.33125Q160.22188 37.784374 158.37813 37.784374Q156.53438 37.784374 155.4875 36.253124L155.4875 37.55ZM155.47188 32.284374Q155.47188 34.14375 155.97188 34.9875Q156.81563 36.33125 158.22188 36.33125Q159.37813 36.33125 160.20625 35.33125Q161.05 34.33125 161.05 32.346874Q161.05 30.315624 160.2375 29.3625Q159.44063 28.39375 158.3 28.39375Q157.14375 28.39375 156.3 29.39375Q155.47188 30.39375 155.47188 32.284374ZM164.83125 37.55L164.83125 23.2375L166.58125 23.2375L166.58125 37.55L164.83125 37.55ZM168.87813 25.253124L168.87813 23.2375L170.64375 23.2375L170.64375 25.253124L168.87813 25.253124ZM168.87813 37.55L168.87813 27.175L170.64375 27.175L170.64375 37.55L168.87813 37.55ZM179.64375 33.753124L181.3625 33.971874Q181.08125 35.76875 179.90938 36.784374Q178.75313 37.784374 177.05 37.784374Q174.925 37.784374 173.62813 36.39375Q172.33125 35.003124 172.33125 32.409374Q172.33125 30.721874 172.87813 29.471874Q173.44063 28.20625 174.58125 27.58125Q175.72188 26.940624 177.06563 26.940624Q178.75313 26.940624 179.81563 27.8Q180.89375 28.659374 181.20625 30.221874L179.4875 30.4875Q179.25313 29.440624 178.62813 28.925Q178.00313 28.39375 177.12813 28.39375Q175.8 28.39375 174.97188 29.346874Q174.14375 30.3 174.14375 32.346874Q174.14375 34.440624 174.94063 35.39375Q175.7375 36.33125 177.03438 36.33125Q178.06563 36.33125 178.75313 35.70625Q179.45625 35.065624 179.64375 33.753124ZM192.70625 35.971874L192.95625 37.534374Q192.22188 37.690624 191.62813 37.690624Q190.675 37.690624 190.14375 37.39375Q189.62813 37.08125 189.40938 36.596874Q189.19063 36.096874 189.19063 34.51875L189.19063 28.55L187.90938 28.55L187.90938 27.175L189.19063 27.175L189.19063 24.6125L190.94063 23.55L190.94063 27.175L192.70625 27.175L192.70625 28.55L190.94063 28.55L190.94063 34.6125Q190.94063 35.3625 191.03438 35.58125Q191.12813 35.784374 191.33125 35.925Q191.55 36.05 191.94063 36.05Q192.22188 36.05 192.70625 35.971874ZM194.84688 37.55L194.84688 27.175L196.425 27.175L196.425 28.753124Q197.03438 27.64375 197.55 27.3Q198.06563 26.940624 198.675 26.940624Q199.56563 26.940624 200.4875 27.503124L199.87813 29.14375Q199.2375 28.753124 198.59688 28.753124Q198.01875 28.753124 197.55 29.1125Q197.09688 29.45625 196.89375 30.065624Q196.6125 31.003124 196.6125 32.1125L196.6125 37.55L194.84688 37.55ZM208.64375 36.26875Q207.65938 37.096874 206.75313 37.440624Q205.84688 37.784374 204.81563 37.784374Q203.1125 37.784374 202.19063 36.95625Q201.26875 36.1125 201.26875 34.815624Q201.26875 34.05 201.6125 33.425Q201.97188 32.8 202.53438 32.425Q203.09688 32.034374 203.8 31.83125Q204.31563 31.70625 205.3625 31.565624Q207.4875 31.315624 208.4875 30.971874Q208.50313 30.6125 208.50313 30.503124Q208.50313 29.440624 208.00313 28.9875Q207.33125 28.39375 206.00313 28.39375Q204.75313 28.39375 204.15938 28.83125Q203.58125 29.26875 203.3 30.378124L201.58125 30.14375Q201.81563 29.034374 202.34688 28.3625Q202.87813 27.675 203.89375 27.315624Q204.90938 26.940624 206.25313 26.940624Q207.58125 26.940624 208.40938 27.253124Q209.2375 27.565624 209.62813 28.05Q210.01875 28.51875 210.175 29.2375Q210.26875 29.690624 210.26875 30.8625L210.26875 33.20625Q210.26875 35.659374 210.37813 36.315624Q210.4875 36.95625 210.83125 37.55L208.9875 37.55Q208.72188 37.003124 208.64375 36.26875ZM208.4875 32.346874Q207.53438 32.7375 205.6125 33.003124Q204.53438 33.159374 204.08125 33.3625Q203.64375 33.55 203.39375 33.925Q203.14375 34.3 203.14375 34.76875Q203.14375 35.471874 203.675 35.940624Q204.20625 36.409374 205.2375 36.409374Q206.25313 36.409374 207.03438 35.971874Q207.83125 35.51875 208.20625 34.753124Q208.4875 34.14375 208.4875 32.9875L208.4875 32.346874ZM212.8625 37.55L212.8625 27.175L214.45625 27.175L214.45625 28.659374Q215.59688 26.940624 217.75313 26.940624Q218.69063 26.940624 219.47188 27.284374Q220.26875 27.6125 220.65938 28.159374Q221.05 28.70625 221.20625 29.45625Q221.3 29.95625 221.3 31.175L221.3 37.55L219.53438 37.55L219.53438 31.2375Q219.53438 30.159374 219.33125 29.628124Q219.12813 29.096874 218.59688 28.784374Q218.08125 28.471874 217.37813 28.471874Q216.25313 28.471874 215.44063 29.190624Q214.62813 29.89375 214.62813 31.878124L214.62813 37.55L212.8625 37.55ZM222.15938 34.45625L223.90938 34.175Q224.05 35.221874 224.72188 35.784374Q225.39375 36.33125 226.59688 36.33125Q227.8 36.33125 228.37813 35.846874Q228.97188 35.346874 228.97188 34.690624Q228.97188 34.096874 228.45625 33.753124Q228.09688 33.51875 226.65938 33.159374Q224.72188 32.659374 223.97188 32.315624Q223.2375 31.95625 222.84688 31.33125Q222.45625 30.690624 222.45625 29.925Q222.45625 29.2375 222.76875 28.64375Q223.09688 28.05 223.64375 27.659374Q224.05 27.3625 224.75313 27.159374Q225.47188 26.940624 226.28438 26.940624Q227.50313 26.940624 228.425 27.3Q229.34688 27.64375 229.78438 28.253124Q230.22188 28.846874 230.39375 29.846874L228.675 30.08125Q228.55 29.284374 227.9875 28.846874Q227.425 28.39375 226.40938 28.39375Q225.19063 28.39375 224.675 28.8Q224.15938 29.190624 224.15938 29.721874Q224.15938 30.065624 224.37813 30.346874Q224.58125 30.628124 225.05 30.815624Q225.31563 30.909374 226.59688 31.253124Q228.47188 31.753124 229.20625 32.08125Q229.94063 32.39375 230.3625 33.003124Q230.78438 33.596874 230.78438 34.503124Q230.78438 35.378124 230.26875 36.159374Q229.75313 36.940624 228.78438 37.3625Q227.81563 37.784374 226.59688 37.784374Q224.58125 37.784374 223.51875 36.940624Q222.45625 36.096874 222.15938 34.45625ZM232.8625 41.51875L232.8625 27.175L234.47188 27.175L234.47188 28.51875Q235.03438 27.7375 235.7375 27.346874Q236.45625 26.940624 237.47188 26.940624Q238.8 26.940624 239.81563 27.628124Q240.83125 28.315624 241.34688 29.565624Q241.87813 30.8 241.87813 32.284374Q241.87813 33.878124 241.3 35.159374Q240.7375 36.425 239.64375 37.1125Q238.55 37.784374 237.34688 37.784374Q236.47188 37.784374 235.76875 37.409374Q235.08125 37.034374 234.62813 36.471874L234.62813 41.51875L232.8625 41.51875ZM234.45625 32.425Q234.45625 34.425 235.26875 35.378124Q236.08125 36.33125 237.2375 36.33125Q238.40938 36.33125 239.2375 35.346874Q240.08125 34.3625 240.08125 32.26875Q240.08125 30.3 239.25313 29.315624Q238.44063 28.315624 237.31563 28.315624Q236.19063 28.315624 235.31563 29.378124Q234.45625 30.425 234.45625 32.425ZM243.22188 32.3625Q243.22188 29.4875 244.81563 28.096874Q246.15938 26.940624 248.08125 26.940624Q250.22188 26.940624 251.56563 28.346874Q252.925 29.753124 252.925 32.221874Q252.925 34.221874 252.33125 35.378124Q251.7375 36.51875 250.58125 37.159374Q249.44063 37.784374 248.08125 37.784374Q245.89375 37.784374 244.55 36.39375Q243.22188 34.9875 243.22188 32.3625ZM245.01875 32.3625Q245.01875 34.3625 245.87813 35.346874Q246.75313 36.33125 248.08125 36.33125Q249.39375 36.33125 250.25313 35.346874Q251.12813 34.346874 251.12813 32.3Q251.12813 30.378124 250.25313 29.39375Q249.37813 28.39375 248.08125 28.39375Q246.75313 28.39375 245.87813 29.39375Q245.01875 30.378124 245.01875 32.3625ZM254.84688 37.55L254.84688 27.175L256.425 27.175L256.425 28.753124Q257.03436 27.64375 257.55 27.3Q258.0656 26.940624 258.675 26.940624Q259.5656 26.940624 260.4875 27.503124L259.8781 29.14375Q259.2375 28.753124 258.59686 28.753124Q258.01874 28.753124 257.55 29.1125Q257.09686 29.45625 256.89374 30.065624Q256.6125 31.003124 256.6125 32.1125L256.6125 37.55L254.84688 37.55ZM265.70624 35.971874L265.95624 37.534374Q265.22186 37.690624 264.6281 37.690624Q263.675 37.690624 263.14374 37.39375Q262.6281 37.08125 262.40936 36.596874Q262.1906 36.096874 262.1906 34.51875L262.1906 28.55L260.90936 28.55L260.90936 27.175L262.1906 27.175L262.1906 24.6125L263.9406 23.55L263.9406 27.175L265.70624 27.175L265.70624 28.55L263.9406 28.55L263.9406 34.6125Q263.9406 35.3625 264.03436 35.58125Q264.1281 35.784374 264.33124 35.925Q264.55 36.05 264.9406 36.05Q265.22186 36.05 265.70624 35.971874ZM274.64374 36.26875Q273.65936 37.096874 272.7531 37.440624Q271.84686 37.784374 270.8156 37.784374Q269.1125 37.784374 268.1906 36.95625Q267.26874 36.1125 267.26874 34.815624Q267.26874 34.05 267.6125 33.425Q267.97186 32.8 268.53436 32.425Q269.09686 32.034374 269.8 31.83125Q270.3156 31.70625 271.3625 31.565624Q273.4875 31.315624 274.4875 30.971874Q274.5031 30.6125 274.5031 30.503124Q274.5031 29.440624 274.0031 28.9875Q273.33124 28.39375 272.0031 28.39375Q270.7531 28.39375 270.15936 28.83125Q269.58124 29.26875 269.3 30.378124L267.58124 30.14375Q267.8156 29.034374 268.34686 28.3625Q268.8781 27.675 269.89374 27.315624Q270.90936 26.940624 272.2531 26.940624Q273.58124 26.940624 274.40936 27.253124Q275.2375 27.565624 275.6281 28.05Q276.01874 28.51875 276.175 29.2375Q276.26874 29.690624 276.26874 30.8625L276.26874 33.20625Q276.26874 35.659374 276.3781 36.315624Q276.4875 36.95625 276.83124 37.55L274.9875 37.55Q274.72186 37.003124 274.64374 36.26875ZM274.4875 32.346874Q273.53436 32.7375 271.6125 33.003124Q270.53436 33.159374 270.08124 33.3625Q269.64374 33.55 269.39374 33.925Q269.14374 34.3 269.14374 34.76875Q269.14374 35.471874 269.675 35.940624Q270.20624 36.409374 271.2375 36.409374Q272.2531 36.409374 273.03436 35.971874Q273.83124 35.51875 274.20624 34.753124Q274.4875 34.14375 274.4875 32.9875L274.4875 32.346874ZM282.70624 35.971874L282.95624 37.534374Q282.22186 37.690624 281.6281 37.690624Q280.675 37.690624 280.14374 37.39375Q279.6281 37.08125 279.40936 36.596874Q279.1906 36.096874 279.1906 34.51875L279.1906 28.55L277.90936 28.55L277.90936 27.175L279.1906 27.175L279.1906 24.6125L280.9406 23.55L280.9406 27.175L282.70624 27.175L282.70624 28.55L280.9406 28.55L280.9406 34.6125Q280.9406 35.3625 281.03436 35.58125Q281.1281 35.784374 281.33124 35.925Q281.55 36.05 281.9406 36.05Q282.22186 36.05 282.70624 35.971874ZM284.8781 25.253124L284.8781 23.2375L286.64374 23.2375L286.64374 25.253124L284.8781 25.253124ZM284.8781 37.55L284.8781 27.175L286.64374 27.175L286.64374 37.55L284.8781 37.55ZM288.22186 32.3625Q288.22186 29.4875 289.8156 28.096874Q291.15936 26.940624 293.08124 26.940624Q295.22186 26.940624 296.5656 28.346874Q297.925 29.753124 297.925 32.221874Q297.925 34.221874 297.33124 35.378124Q296.7375 36.51875 295.58124 37.159374Q294.4406 37.784374 293.08124 37.784374Q290.89374 37.784374 289.55 36.39375Q288.22186 34.9875 288.22186 32.3625ZM290.01874 32.3625Q290.01874 34.3625 290.8781 35.346874Q291.7531 36.33125 293.08124 36.33125Q294.39374 36.33125 295.2531 35.346874Q296.1281 34.346874 296.1281 32.3Q296.1281 30.378124 295.2531 29.39375Q294.3781 28.39375 293.08124 28.39375Q291.7531 28.39375 290.8781 29.39375Q290.01874 30.378124 290.01874 32.3625ZM299.8625 37.55L299.8625 27.175L301.45624 27.175L301.45624 28.659374Q302.59686 26.940624 304.7531 26.940624Q305.6906 26.940624 306.47186 27.284374Q307.26874 27.6125 307.65936 28.159374Q308.05 28.70625 308.20624 29.45625Q308.3 29.95625 308.3 31.175L308.3 37.55L306.53436 37.55L306.53436 31.2375Q306.53436 30.159374 306.33124 29.628124Q306.1281 29.096874 305.59686 28.784374Q305.08124 28.471874 304.3781 28.471874Q303.2531 28.471874 302.4406 29.190624Q301.6281 29.89375 301.6281 31.878124L301.6281 37.55L299.8625 37.55ZM319.70624 35.971874L319.95624 37.534374Q319.22186 37.690624 318.6281 37.690624Q317.675 37.690624 317.14374 37.39375Q316.6281 37.08125 316.40936 36.596874Q316.1906 36.096874 316.1906 34.51875L316.1906 28.55L314.90936 28.55L314.90936 27.175L316.1906 27.175L316.1906 24.6125L317.9406 23.55L317.9406 27.175L319.70624 27.175L319.70624 28.55L317.9406 28.55L317.9406 34.6125Q317.9406 35.3625 318.03436 35.58125Q318.1281 35.784374 318.33124 35.925Q318.55 36.05 318.9406 36.05Q319.22186 36.05 319.70624 35.971874ZM321.22186 32.3625Q321.22186 29.4875 322.8156 28.096874Q324.15936 26.940624 326.08124 26.940624Q328.22186 26.940624 329.5656 28.346874Q330.925 29.753124 330.925 32.221874Q330.925 34.221874 330.33124 35.378124Q329.7375 36.51875 328.58124 37.159374Q327.4406 37.784374 326.08124 37.784374Q323.89374 37.784374 322.55 36.39375Q321.22186 34.9875 321.22186 32.3625ZM323.01874 32.3625Q323.01874 34.3625 323.8781 35.346874Q324.7531 36.33125 326.08124 36.33125Q327.39374 36.33125 328.2531 35.346874Q329.1281 34.346874 329.1281 32.3Q329.1281 30.378124 328.2531 29.39375Q327.3781 28.39375 326.08124 28.39375Q324.7531 28.39375 323.8781 29.39375Q323.01874 30.378124 323.01874 32.3625ZM338.15936 34.45625L339.90936 34.175Q340.05 35.221874 340.72186 35.784374Q341.39374 36.33125 342.59686 36.33125Q343.8 36.33125 344.3781 35.846874Q344.97186 35.346874 344.97186 34.690624Q344.97186 34.096874 344.45624 33.753124Q344.09686 33.51875 342.65936 33.159374Q340.72186 32.659374 339.97186 32.315624Q339.2375 31.95625 338.84686 31.33125Q338.45624 30.690624 338.45624 29.925Q338.45624 29.2375 338.76874 28.64375Q339.09686 28.05 339.64374 27.659374Q340.05 27.3625 340.7531 27.159374Q341.47186 26.940624 342.28436 26.940624Q343.5031 26.940624 344.425 27.3Q345.34686 27.64375 345.78436 28.253124Q346.22186 28.846874 346.39374 29.846874L344.675 30.08125Q344.55 29.284374 343.9875 28.846874Q343.425 28.39375 342.40936 28.39375Q341.1906 28.39375 340.675 28.8Q340.15936 29.190624 340.15936 29.721874Q340.15936 30.065624 340.3781 30.346874Q340.58124 30.628124 341.05 30.815624Q341.3156 30.909374 342.59686 31.253124Q344.47186 31.753124 345.20624 32.08125Q345.9406 32.39375 346.3625 33.003124Q346.78436 33.596874 346.78436 34.503124Q346.78436 35.378124 346.26874 36.159374Q345.7531 36.940624 344.78436 37.3625Q343.8156 37.784374 342.59686 37.784374Q340.58124 37.784374 339.51874 36.940624Q338.45624 36.096874 338.15936 34.45625ZM355.64374 33.753124L357.3625 33.971874Q357.08124 35.76875 355.90936 36.784374Q354.7531 37.784374 353.05 37.784374Q350.925 37.784374 349.6281 36.39375Q348.33124 35.003124 348.33124 32.409374Q348.33124 30.721874 348.8781 29.471874Q349.4406 28.20625 350.58124 27.58125Q351.72186 26.940624 353.0656 26.940624Q354.7531 26.940624 355.8156 27.8Q356.89374 28.659374 357.20624 30.221874L355.4875 30.4875Q355.2531 29.440624 354.6281 28.925Q354.0031 28.39375 353.1281 28.39375Q351.8 28.39375 350.97186 29.346874Q350.14374 30.3 350.14374 32.346874Q350.14374 34.440624 350.9406 35.39375Q351.7375 36.33125 353.03436 36.33125Q354.0656 36.33125 354.7531 35.70625Q355.45624 35.065624 355.64374 33.753124ZM358.8625 37.55L358.8625 23.2375L360.6281 23.2375L360.6281 28.3625Q361.8625 26.940624 363.7375 26.940624Q364.8781 26.940624 365.72186 27.39375Q366.58124 27.846874 366.9406 28.659374Q367.3156 29.45625 367.3156 30.971874L367.3156 37.55L365.5656 37.55L365.5656 30.971874Q365.5656 29.659374 364.9875 29.065624Q364.40936 28.45625 363.3781 28.45625Q362.59686 28.45625 361.89374 28.8625Q361.20624 29.26875 360.90936 29.971874Q360.6281 30.659374 360.6281 31.878124L360.6281 37.55L358.8625 37.55ZM368.22186 32.3625Q368.22186 29.4875 369.8156 28.096874Q371.15936 26.940624 373.08124 26.940624Q375.22186 26.940624 376.5656 28.346874Q377.925 29.753124 377.925 32.221874Q377.925 34.221874 377.33124 35.378124Q376.7375 36.51875 375.58124 37.159374Q374.4406 37.784374 373.08124 37.784374Q370.89374 37.784374 369.55 36.39375Q368.22186 34.9875 368.22186 32.3625ZM370.01874 32.3625Q370.01874 34.3625 370.8781 35.346874Q371.7531 36.33125 373.08124 36.33125Q374.39374 36.33125 375.2531 35.346874Q376.1281 34.346874 376.1281 32.3Q376.1281 30.378124 375.2531 29.39375Q374.3781 28.39375 373.08124 28.39375Q371.7531 28.39375 370.8781 29.39375Q370.01874 30.378124 370.01874 32.3625ZM379.22186 32.3625Q379.22186 29.4875 380.8156 28.096874Q382.15936 26.940624 384.08124 26.940624Q386.22186 26.940624 387.5656 28.346874Q388.925 29.753124 388.925 32.221874Q388.925 34.221874 388.33124 35.378124Q387.7375 36.51875 386.58124 37.159374Q385.4406 37.784374 384.08124 37.784374Q381.89374 37.784374 380.55 36.39375Q379.22186 34.9875 379.22186 32.3625ZM381.01874 32.3625Q381.01874 34.3625 381.8781 35.346874Q382.7531 36.33125 384.08124 36.33125Q385.39374 36.33125 386.2531 35.346874Q387.1281 34.346874 387.1281 32.3Q387.1281 30.378124 386.2531 29.39375Q385.3781 28.39375 384.08124 28.39375Q382.7531 28.39375 381.8781 29.39375Q381.01874 30.378124 381.01874 32.3625ZM390.83124 37.55L390.83124 23.2375L392.58124 23.2375L392.58124 37.55L390.83124 37.55ZM400.8781 25.253124L400.8781 23.2375L402.64374 23.2375L402.64374 25.253124L400.8781 25.253124ZM400.8781 37.55L400.8781 27.175L402.64374 27.175L402.64374 37.55L400.8781 37.55ZM405.28436 37.55L405.28436 28.55L403.7375 28.55L403.7375 27.175L405.28436 27.175L405.28436 26.08125Q405.28436 25.034374 405.47186 24.51875Q405.72186 23.83125 406.3625 23.409374Q407.0031 22.9875 408.15936 22.9875Q408.90936 22.9875 409.8 23.159374L409.53436 24.690624Q408.9875 24.596874 408.5031 24.596874Q407.70624 24.596874 407.3625 24.940624Q407.03436 25.284374 407.03436 26.221874L407.03436 27.175L409.0656 27.175L409.0656 28.55L407.03436 28.55L407.03436 37.55L405.28436 37.55ZM416.8781 25.253124L416.8781 23.2375L418.64374 23.2375L418.64374 25.253124L416.8781 25.253124ZM416.8781 37.55L416.8781 27.175L418.64374 27.175L418.64374 37.55L416.8781 37.55ZM424.70624 35.971874L424.95624 37.534374Q424.22186 37.690624 423.6281 37.690624Q422.675 37.690624 422.14374 37.39375Q421.6281 37.08125 421.40936 36.596874Q421.1906 36.096874 421.1906 34.51875L421.1906 28.55L419.90936 28.55L419.90936 27.175L421.1906 27.175L421.1906 24.6125L422.9406 23.55L422.9406 27.175L424.70624 27.175L424.70624 28.55L422.9406 28.55L422.9406 34.6125Q422.9406 35.3625 423.03436 35.58125Q423.1281 35.784374 423.33124 35.925Q423.55 36.05 423.9406 36.05Q424.22186 36.05 424.70624 35.971874ZM436.70624 35.971874L436.95624 37.534374Q436.22186 37.690624 435.6281 37.690624Q434.675 37.690624 434.14374 37.39375Q433.6281 37.08125 433.40936 36.596874Q433.1906 36.096874 433.1906 34.51875L433.1906 28.55L431.90936 28.55L431.90936 27.175L433.1906 27.175L433.1906 24.6125L434.9406 23.55L434.9406 27.175L436.70624 27.175L436.70624 28.55L434.9406 28.55L434.9406 34.6125Q434.9406 35.3625 435.03436 35.58125Q435.1281 35.784374 435.33124 35.925Q435.55 36.05 435.9406 36.05Q436.22186 36.05 436.70624 35.971874ZM438.22186 32.3625Q438.22186 29.4875 439.8156 28.096874Q441.15936 26.940624 443.08124 26.940624Q445.22186 26.940624 446.5656 28.346874Q447.925 29.753124 447.925 32.221874Q447.925 34.221874 447.33124 35.378124Q446.7375 36.51875 445.58124 37.159374Q444.4406 37.784374 443.08124 37.784374Q440.89374 37.784374 439.55 36.39375Q438.22186 34.9875 438.22186 32.3625ZM440.01874 32.3625Q440.01874 34.3625 440.8781 35.346874Q441.7531 36.33125 443.08124 36.33125Q444.39374 36.33125 445.2531 35.346874Q446.1281 34.346874 446.1281 32.3Q446.1281 30.378124 445.2531 29.39375Q444.3781 28.39375 443.08124 28.39375Q441.7531 28.39375 440.8781 29.39375Q440.01874 30.378124 440.01874 32.3625ZM449.22186 32.3625Q449.22186 29.4875 450.8156 28.096874Q452.15936 26.940624 454.08124 26.940624Q456.22186 26.940624 457.5656 28.346874Q458.925 29.753124 458.925 32.221874Q458.925 34.221874 458.33124 35.378124Q457.7375 36.51875 456.58124 37.159374Q455.4406 37.784374 454.08124 37.784374Q451.89374 37.784374 450.55 36.39375Q449.22186 34.9875 449.22186 32.3625ZM451.01874 32.3625Q451.01874 34.3625 451.8781 35.346874Q452.7531 36.33125 454.08124 36.33125Q455.39374 36.33125 456.2531 35.346874Q457.1281 34.346874 457.1281 32.3Q457.1281 30.378124 456.2531 29.39375Q455.3781 28.39375 454.08124 28.39375Q452.7531 28.39375 451.8781 29.39375Q451.01874 30.378124 451.01874 32.3625ZM460.8781 37.55L460.8781 23.2375L462.64374 23.2375L462.64374 31.39375L466.8 27.175L469.0656 27.175L465.1125 31.01875L469.47186 37.55L467.3 37.55L463.8781 32.253124L462.64374 33.440624L462.64374 37.55L460.8781 37.55ZM480.70624 35.971874L480.95624 37.534374Q480.22186 37.690624 479.6281 37.690624Q478.675 37.690624 478.14374 37.39375Q477.6281 37.08125 477.40936 36.596874Q477.1906 36.096874 477.1906 34.51875L477.1906 28.55L475.90936 28.55L475.90936 27.175L477.1906 27.175L477.1906 24.6125L478.9406 23.55L478.9406 27.175L480.70624 27.175L480.70624 28.55L478.9406 28.55L478.9406 34.6125Q478.9406 35.3625 479.03436 35.58125Q479.1281 35.784374 479.33124 35.925Q479.55 36.05 479.9406 36.05Q480.22186 36.05 480.70624 35.971874ZM482.8625 37.55L482.8625 23.2375L484.6281 23.2375L484.6281 28.3625Q485.8625 26.940624 487.7375 26.940624Q488.8781 26.940624 489.72186 27.39375Q490.58124 27.846874 490.9406 28.659374Q491.3156 29.45625 491.3156 30.971874L491.3156 37.55L489.5656 37.55L489.5656 30.971874Q489.5656 29.659374 488.9875 29.065624Q488.40936 28.45625 487.3781 28.45625Q486.59686 28.45625 485.89374 28.8625Q485.20624 29.26875 484.90936 29.971874Q484.6281 30.659374 484.6281 31.878124L484.6281 37.55L482.8625 37.55ZM499.97186 34.20625L501.78436 34.440624Q501.3625 36.01875 500.1906 36.909374Q499.03436 37.784374 497.22186 37.784374Q494.95624 37.784374 493.6125 36.39375Q492.28436 34.9875 492.28436 32.45625Q492.28436 29.83125 493.6281 28.39375Q494.97186 26.940624 497.1281 26.940624Q499.20624 26.940624 500.51874 28.3625Q501.84686 29.76875 501.84686 32.346874Q501.84686 32.503124 501.83124 32.815624L494.09686 32.815624Q494.1906 34.51875 495.0656 35.425Q495.9406 36.33125 497.2375 36.33125Q498.20624 36.33125 498.8781 35.83125Q499.5656 35.315624 499.97186 34.20625ZM494.1906 31.3625L499.9875 31.3625Q499.8781 30.065624 499.33124 29.409374Q498.4875 28.39375 497.14374 28.39375Q495.9406 28.39375 495.1125 29.20625Q494.28436 30.003124 494.1906 31.3625ZM509.15936 34.45625L510.90936 34.175Q511.05 35.221874 511.72186 35.784374Q512.39374 36.33125 513.59686 36.33125Q514.8 36.33125 515.3781 35.846874Q515.97186 35.346874 515.97186 34.690624Q515.97186 34.096874 515.45624 33.753124Q515.09686 33.51875 513.65936 33.159374Q511.72186 32.659374 510.97186 32.315624Q510.2375 31.95625 509.84686 31.33125Q509.45624 30.690624 509.45624 29.925Q509.45624 29.2375 509.76874 28.64375Q510.09686 28.05 510.64374 27.659374Q511.05 27.3625 511.7531 27.159374Q512.47186 26.940624 513.28436 26.940624Q514.5031 26.940624 515.425 27.3Q516.34686 27.64375 516.78436 28.253124Q517.22186 28.846874 517.39374 29.846874L515.675 30.08125Q515.55 29.284374 514.9875 28.846874Q514.425 28.39375 513.40936 28.39375Q512.1906 28.39375 511.675 28.8Q511.15936 29.190624 511.15936 29.721874Q511.15936 30.065624 511.3781 30.346874Q511.58124 30.628124 512.05 30.815624Q512.3156 30.909374 513.59686 31.253124Q515.47186 31.753124 516.20624 32.08125Q516.9406 32.39375 517.3625 33.003124Q517.78436 33.596874 517.78436 34.503124Q517.78436 35.378124 517.26874 36.159374Q516.7531 36.940624 515.78436 37.3625Q514.8156 37.784374 513.59686 37.784374Q511.58124 37.784374 510.51874 36.940624Q509.45624 36.096874 509.15936 34.45625ZM526.64374 36.26875Q525.65936 37.096874 524.7531 37.440624Q523.84686 37.784374 522.8156 37.784374Q521.1125 37.784374 520.1906 36.95625Q519.26874 36.1125 519.26874 34.815624Q519.26874 34.05 519.6125 33.425Q519.97186 32.8 520.53436 32.425Q521.09686 32.034374 521.8 31.83125Q522.3156 31.70625 523.3625 31.565624Q525.4875 31.315624 526.4875 30.971874Q526.5031 30.6125 526.5031 30.503124Q526.5031 29.440624 526.0031 28.9875Q525.33124 28.39375 524.0031 28.39375Q522.7531 28.39375 522.15936 28.83125Q521.58124 29.26875 521.3 30.378124L519.58124 30.14375Q519.8156 29.034374 520.34686 28.3625Q520.8781 27.675 521.89374 27.315624Q522.90936 26.940624 524.2531 26.940624Q525.58124 26.940624 526.40936 27.253124Q527.2375 27.565624 527.6281 28.05Q528.01874 28.51875 528.175 29.2375Q528.26874 29.690624 528.26874 30.8625L528.26874 33.20625Q528.26874 35.659374 528.3781 36.315624Q528.4875 36.95625 528.83124 37.55L526.9875 37.55Q526.72186 37.003124 526.64374 36.26875ZM526.4875 32.346874Q525.53436 32.7375 523.6125 33.003124Q522.53436 33.159374 522.08124 33.3625Q521.64374 33.55 521.39374 33.925Q521.14374 34.3 521.14374 34.76875Q521.14374 35.471874 521.675 35.940624Q522.20624 36.409374 523.2375 36.409374Q524.2531 36.409374 525.03436 35.971874Q525.83124 35.51875 526.20624 34.753124Q526.4875 34.14375 526.4875 32.9875L526.4875 32.346874ZM530.8625 37.55L530.8625 27.175L532.4406 27.175L532.4406 28.628124Q532.925 27.878124 533.7375 27.409374Q534.55 26.940624 535.58124 26.940624Q536.7375 26.940624 537.47186 27.425Q538.20624 27.89375 538.51874 28.753124Q539.7531 26.940624 541.72186 26.940624Q543.26874 26.940624 544.09686 27.8Q544.925 28.659374 544.925 30.425L544.925 37.55L543.175 37.55L543.175 31.01875Q543.175 29.95625 543.0031 29.503124Q542.83124 29.034374 542.3781 28.753124Q541.9406 28.471874 541.33124 28.471874Q540.2375 28.471874 539.5031 29.20625Q538.78436 29.925 538.78436 31.51875L538.78436 37.55L537.03436 37.55L537.03436 30.815624Q537.03436 29.64375 536.59686 29.065624Q536.175 28.471874 535.1906 28.471874Q534.45624 28.471874 533.8156 28.8625Q533.1906 29.253124 532.90936 30.003124Q532.6281 30.753124 532.6281 32.175L532.6281 37.55L530.8625 37.55ZM553.97186 34.20625L555.78436 34.440624Q555.3625 36.01875 554.1906 36.909374Q553.03436 37.784374 551.22186 37.784374Q548.95624 37.784374 547.6125 36.39375Q546.28436 34.9875 546.28436 32.45625Q546.28436 29.83125 547.6281 28.39375Q548.97186 26.940624 551.1281 26.940624Q553.20624 26.940624 554.51874 28.3625Q555.84686 29.76875 555.84686 32.346874Q555.84686 32.503124 555.83124 32.815624L548.09686 32.815624Q548.1906 34.51875 549.0656 35.425Q549.9406 36.33125 551.2375 36.33125Q552.20624 36.33125 552.8781 35.83125Q553.5656 35.315624 553.97186 34.20625ZM548.1906 31.3625L553.9875 31.3625Q553.8781 30.065624 553.33124 29.409374Q552.4875 28.39375 551.14374 28.39375Q549.9406 28.39375 549.1125 29.20625Q548.28436 30.003124 548.1906 31.3625Z" fill-rule="nonzero"/><path fill="#757575" d="M26.64375 60.26875Q25.659374 61.096874 24.753124 61.440624Q23.846874 61.784374 22.815624 61.784374Q21.1125 61.784374 20.190624 60.95625Q19.26875 60.1125 19.26875 58.815624Q19.26875 58.05 19.6125 57.425Q19.971874 56.8 20.534374 56.425Q21.096874 56.034374 21.8 55.83125Q22.315624 55.70625 23.3625 55.565624Q25.4875 55.315624 26.4875 54.971874Q26.503124 54.6125 26.503124 54.503124Q26.503124 53.440624 26.003124 52.9875Q25.33125 52.39375 24.003124 52.39375Q22.753124 52.39375 22.159374 52.83125Q21.58125 53.26875 21.3 54.378124L19.58125 54.14375Q19.815624 53.034374 20.346874 52.3625Q20.878124 51.675 21.89375 51.315624Q22.909374 50.940624 24.253124 50.940624Q25.58125 50.940624 26.409374 51.253124Q27.2375 51.565624 27.628124 52.05Q28.01875 52.51875 28.175 53.2375Q28.26875 53.690624 28.26875 54.8625L28.26875 57.20625Q28.26875 59.659374 28.378124 60.315624Q28.4875 60.95625 28.83125 61.55L26.9875 61.55Q26.721874 61.003124 26.64375 60.26875ZM26.4875 56.346874Q25.534374 56.7375 23.6125 57.003124Q22.534374 57.159374 22.08125 57.3625Q21.64375 57.55 21.39375 57.925Q21.14375 58.3 21.14375 58.76875Q21.14375 59.471874 21.675 59.940624Q22.20625 60.409374 23.2375 60.409374Q24.253124 60.409374 25.034374 59.971874Q25.83125 59.51875 26.20625 58.753124Q26.4875 58.14375 26.4875 56.9875L26.4875 56.346874ZM30.8625 61.55L30.8625 51.175L32.440624 51.175L32.440624 52.628124Q32.925 51.878124 33.7375 51.409374Q34.55 50.940624 35.58125 50.940624Q36.7375 50.940624 37.471874 51.425Q38.20625 51.89375 38.51875 52.753124Q39.753124 50.940624 41.721874 50.940624Q43.26875 50.940624 44.096874 51.8Q44.925 52.659374 44.925 54.425L44.925 61.55L43.175 61.55L43.175 55.01875Q43.175 53.95625 43.003124 53.503124Q42.83125 53.034374 42.378124 52.753124Q41.940624 52.471874 41.33125 52.471874Q40.2375 52.471874 39.503124 53.20625Q38.784374 53.925 38.784374 55.51875L38.784374 61.55L37.034374 61.55L37.034374 54.815624Q37.034374 53.64375 36.596874 53.065624Q36.175 52.471874 35.190624 52.471874Q34.45625 52.471874 33.815624 52.8625Q33.190624 53.253124 32.909374 54.003124Q32.628124 54.753124 32.628124 56.175L32.628124 61.55L30.8625 61.55ZM46.221874 56.3625Q46.221874 53.4875 47.815624 52.096874Q49.159374 50.940624 51.08125 50.940624Q53.221874 50.940624 54.565624 52.346874Q55.925 53.753124 55.925 56.221874Q55.925 58.221874 55.33125 59.378124Q54.7375 60.51875 53.58125 61.159374Q52.440624 61.784374 51.08125 61.784374Q48.89375 61.784374 47.55 60.39375Q46.221874 58.9875 46.221874 56.3625ZM48.01875 56.3625Q48.01875 58.3625 48.878124 59.346874Q49.753124 60.33125 51.08125 60.33125Q52.39375 60.33125 53.253124 59.346874Q54.128124 58.346874 54.128124 56.3Q54.128124 54.378124 53.253124 53.39375Q52.378124 52.39375 51.08125 52.39375Q49.753124 52.39375 48.878124 53.39375Q48.01875 54.378124 48.01875 56.3625ZM64.65938 61.55L64.65938 60.01875Q63.45625 61.784374 61.378124 61.784374Q60.45625 61.784374 59.659374 61.440624Q58.8625 61.08125 58.471874 60.55Q58.096874 60.01875 57.940624 59.2375Q57.83125 58.721874 57.83125 57.596874L57.83125 51.175L59.58125 51.175L59.58125 56.925Q59.58125 58.3 59.690624 58.784374Q59.8625 59.471874 60.39375 59.878124Q60.940624 60.26875 61.721874 60.26875Q62.51875 60.26875 63.20625 59.8625Q63.909374 59.45625 64.19063 58.76875Q64.4875 58.065624 64.4875 56.7375L64.4875 51.175L66.2375 51.175L66.2375 61.55L64.65938 61.55ZM67.8625 61.55L67.8625 51.175L69.45625 51.175L69.45625 52.659374Q70.59688 50.940624 72.75313 50.940624Q73.69063 50.940624 74.47188 51.284374Q75.26875 51.6125 75.65938 52.159374Q76.05 52.70625 76.20625 53.45625Q76.3 53.95625 76.3 55.175L76.3 61.55L74.53438 61.55L74.53438 55.2375Q74.53438 54.159374 74.33125 53.628124Q74.12813 53.096874 73.59688 52.784374Q73.08125 52.471874 72.37813 52.471874Q71.25313 52.471874 70.44063 53.190624Q69.62813 53.89375 69.62813 55.878124L69.62813 61.55L67.8625 61.55ZM81.70625 59.971874L81.95625 61.534374Q81.22188 61.690624 80.62813 61.690624Q79.675 61.690624 79.14375 61.39375Q78.62813 61.08125 78.40938 60.596874Q78.19063 60.096874 78.19063 58.51875L78.19063 52.55L76.90938 52.55L76.90938 51.175L78.19063 51.175L78.19063 48.6125L79.94063 47.55L79.94063 51.175L81.70625 51.175L81.70625 52.55L79.94063 52.55L79.94063 58.6125Q79.94063 59.3625 80.03438 59.58125Q80.12813 59.784374 80.33125 59.925Q80.55 60.05 80.94063 60.05Q81.22188 60.05 81.70625 59.971874ZM89.22188 56.3625Q89.22188 53.4875 90.81563 52.096874Q92.15938 50.940624 94.08125 50.940624Q96.22188 50.940624 97.56563 52.346874Q98.925 53.753124 98.925 56.221874Q98.925 58.221874 98.33125 59.378124Q97.7375 60.51875 96.58125 61.159374Q95.44063 61.784374 94.08125 61.784374Q91.89375 61.784374 90.55 60.39375Q89.22188 58.9875 89.22188 56.3625ZM91.01875 56.3625Q91.01875 58.3625 91.87813 59.346874Q92.75313 60.33125 94.08125 60.33125Q95.39375 60.33125 96.25313 59.346874Q97.12813 58.346874 97.12813 56.3Q97.12813 54.378124 96.25313 53.39375Q95.37813 52.39375 94.08125 52.39375Q92.75313 52.39375 91.87813 53.39375Q91.01875 54.378124 91.01875 56.3625ZM101.28438 61.55L101.28438 52.55L99.7375 52.55L99.7375 51.175L101.28438 51.175L101.28438 50.08125Q101.28438 49.034374 101.47188 48.51875Q101.72188 47.83125 102.3625 47.409374Q103.00313 46.9875 104.15938 46.9875Q104.90938 46.9875 105.8 47.159374L105.53438 48.690624Q104.9875 48.596874 104.50313 48.596874Q103.70625 48.596874 103.3625 48.940624Q103.03438 49.284374 103.03438 50.221874L103.03438 51.175L105.06563 51.175L105.06563 52.55L103.03438 52.55L103.03438 61.55L101.28438 61.55ZM116.70625 59.971874L116.95625 61.534374Q116.22188 61.690624 115.62813 61.690624Q114.675 61.690624 114.14375 61.39375Q113.62813 61.08125 113.40938 60.596874Q113.19063 60.096874 113.19063 58.51875L113.19063 52.55L111.90938 52.55L111.90938 51.175L113.19063 51.175L113.19063 48.6125L114.94063 47.55L114.94063 51.175L116.70625 51.175L116.70625 52.55L114.94063 52.55L114.94063 58.6125Q114.94063 59.3625 115.03438 59.58125Q115.12813 59.784374 115.33125 59.925Q115.55 60.05 115.94063 60.05Q116.22188 60.05 116.70625 59.971874ZM118.87813 49.253124L118.87813 47.2375L120.64375 47.2375L120.64375 49.253124L118.87813 49.253124ZM118.87813 61.55L118.87813 51.175L120.64375 51.175L120.64375 61.55L118.87813 61.55ZM122.8625 61.55L122.8625 51.175L124.44063 51.175L124.44063 52.628124Q124.925 51.878124 125.7375 51.409374Q126.55 50.940624 127.58125 50.940624Q128.7375 50.940624 129.47188 51.425Q130.20625 51.89375 130.51875 52.753124Q131.75313 50.940624 133.72188 50.940624Q135.26875 50.940624 136.09688 51.8Q136.925 52.659374 136.925 54.425L136.925 61.55L135.175 61.55L135.175 55.01875Q135.175 53.95625 135.00313 53.503124Q134.83125 53.034374 134.37813 52.753124Q133.94063 52.471874 133.33125 52.471874Q132.2375 52.471874 131.50313 53.20625Q130.78438 53.925 130.78438 55.51875L130.78438 61.55L129.03438 61.55L129.03438 54.815624Q129.03438 53.64375 128.59688 53.065624Q128.175 52.471874 127.19063 52.471874Q126.45625 52.471874 125.81563 52.8625Q125.19063 53.253124 124.90938 54.003124Q124.62813 54.753124 124.62813 56.175L124.62813 61.55L122.8625 61.55ZM145.97188 58.20625L147.78438 58.440624Q147.3625 60.01875 146.19063 60.909374Q145.03438 61.784374 143.22188 61.784374Q140.95625 61.784374 139.6125 60.39375Q138.28438 58.9875 138.28438 56.45625Q138.28438 53.83125 139.62813 52.39375Q140.97188 50.940624 143.12813 50.940624Q145.20625 50.940624 146.51875 52.3625Q147.84688 53.76875 147.84688 56.346874Q147.84688 56.503124 147.83125 56.815624L140.09688 56.815624Q140.19063 58.51875 141.06563 59.425Q141.94063 60.33125 143.2375 60.33125Q144.20625 60.33125 144.87813 59.83125Q145.56563 59.315624 145.97188 58.20625ZM140.19063 55.3625L145.9875 55.3625Q145.87813 54.065624 145.33125 53.409374Q144.4875 52.39375 143.14375 52.39375Q141.94063 52.39375 141.1125 53.20625Q140.28438 54.003124 140.19063 55.3625ZM162.64375 60.26875Q161.65938 61.096874 160.75313 61.440624Q159.84688 61.784374 158.81563 61.784374Q157.1125 61.784374 156.19063 60.95625Q155.26875 60.1125 155.26875 58.815624Q155.26875 58.05 155.6125 57.425Q155.97188 56.8 156.53438 56.425Q157.09688 56.034374 157.8 55.83125Q158.31563 55.70625 159.3625 55.565624Q161.4875 55.315624 162.4875 54.971874Q162.50313 54.6125 162.50313 54.503124Q162.50313 53.440624 162.00313 52.9875Q161.33125 52.39375 160.00313 52.39375Q158.75313 52.39375 158.15938 52.83125Q157.58125 53.26875 157.3 54.378124L155.58125 54.14375Q155.81563 53.034374 156.34688 52.3625Q156.87813 51.675 157.89375 51.315624Q158.90938 50.940624 160.25313 50.940624Q161.58125 50.940624 162.40938 51.253124Q163.2375 51.565624 163.62813 52.05Q164.01875 52.51875 164.175 53.2375Q164.26875 53.690624 164.26875 54.8625L164.26875 57.20625Q164.26875 59.659374 164.37813 60.315624Q164.4875 60.95625 164.83125 61.55L162.9875 61.55Q162.72188 61.003124 162.64375 60.26875ZM162.4875 56.346874Q161.53438 56.7375 159.6125 57.003124Q158.53438 57.159374 158.08125 57.3625Q157.64375 57.55 157.39375 57.925Q157.14375 58.3 157.14375 58.76875Q157.14375 59.471874 157.675 59.940624Q158.20625 60.409374 159.2375 60.409374Q160.25313 60.409374 161.03438 59.971874Q161.83125 59.51875 162.20625 58.753124Q162.4875 58.14375 162.4875 56.9875L162.4875 56.346874ZM166.15938 58.45625L167.90938 58.175Q168.05 59.221874 168.72188 59.784374Q169.39375 60.33125 170.59688 60.33125Q171.8 60.33125 172.37813 59.846874Q172.97188 59.346874 172.97188 58.690624Q172.97188 58.096874 172.45625 57.753124Q172.09688 57.51875 170.65938 57.159374Q168.72188 56.659374 167.97188 56.315624Q167.2375 55.95625 166.84688 55.33125Q166.45625 54.690624 166.45625 53.925Q166.45625 53.2375 166.76875 52.64375Q167.09688 52.05 167.64375 51.659374Q168.05 51.3625 168.75313 51.159374Q169.47188 50.940624 170.28438 50.940624Q171.50313 50.940624 172.425 51.3Q173.34688 51.64375 173.78438 52.253124Q174.22188 52.846874 174.39375 53.846874L172.675 54.08125Q172.55 53.284374 171.9875 52.846874Q171.425 52.39375 170.40938 52.39375Q169.19063 52.39375 168.675 52.8Q168.15938 53.190624 168.15938 53.721874Q168.15938 54.065624 168.37813 54.346874Q168.58125 54.628124 169.05 54.815624Q169.31563 54.909374 170.59688 55.253124Q172.47188 55.753124 173.20625 56.08125Q173.94063 56.39375 174.3625 57.003124Q174.78438 57.596874 174.78438 58.503124Q174.78438 59.378124 174.26875 60.159374Q173.75313 60.940624 172.78438 61.3625Q171.81563 61.784374 170.59688 61.784374Q168.58125 61.784374 167.51875 60.940624Q166.45625 60.096874 166.15938 58.45625ZM189.59688 61.55L189.59688 60.2375Q188.6125 61.784374 186.69063 61.784374Q185.45625 61.784374 184.40938 61.096874Q183.37813 60.409374 182.8 59.190624Q182.2375 57.971874 182.2375 56.378124Q182.2375 54.815624 182.75313 53.55Q183.26875 52.284374 184.3 51.6125Q185.34688 50.940624 186.6125 50.940624Q187.55 50.940624 188.28438 51.346874Q189.01875 51.7375 189.4875 52.3625L189.4875 47.2375L191.22188 47.2375L191.22188 61.55L189.59688 61.55ZM184.03438 56.378124Q184.03438 58.3625 184.87813 59.346874Q185.72188 60.33125 186.8625 60.33125Q188.01875 60.33125 188.81563 59.39375Q189.62813 58.45625 189.62813 56.51875Q189.62813 54.39375 188.8 53.39375Q187.9875 52.39375 186.78438 52.39375Q185.6125 52.39375 184.81563 53.3625Q184.03438 54.315624 184.03438 56.378124ZM193.84688 61.55L193.84688 51.175L195.425 51.175L195.425 52.753124Q196.03438 51.64375 196.55 51.3Q197.06563 50.940624 197.675 50.940624Q198.56563 50.940624 199.4875 51.503124L198.87813 53.14375Q198.2375 52.753124 197.59688 52.753124Q197.01875 52.753124 196.55 53.1125Q196.09688 53.45625 195.89375 54.065624Q195.6125 55.003124 195.6125 56.1125L195.6125 61.55L193.84688 61.55ZM200.87813 49.253124L200.87813 47.2375L202.64375 47.2375L202.64375 49.253124L200.87813 49.253124ZM200.87813 61.55L200.87813 51.175L202.64375 51.175L202.64375 61.55L200.87813 61.55ZM207.75313 61.55L203.8 51.175L205.65938 51.175L207.89375 57.39375Q208.25313 58.39375 208.55 59.471874Q208.78438 58.659374 209.20625 57.503124L211.50313 51.175L213.31563 51.175L209.39375 61.55L207.75313 61.55ZM213.87813 49.253124L213.87813 47.2375L215.64375 47.2375L215.64375 49.253124L213.87813 49.253124ZM213.87813 61.55L213.87813 51.175L215.64375 51.175L215.64375 61.55L213.87813 61.55ZM217.8625 61.55L217.8625 51.175L219.45625 51.175L219.45625 52.659374Q220.59688 50.940624 222.75313 50.940624Q223.69063 50.940624 224.47188 51.284374Q225.26875 51.6125 225.65938 52.159374Q226.05 52.70625 226.20625 53.45625Q226.3 53.95625 226.3 55.175L226.3 61.55L224.53438 61.55L224.53438 55.2375Q224.53438 54.159374 224.33125 53.628124Q224.12813 53.096874 223.59688 52.784374Q223.08125 52.471874 222.37813 52.471874Q221.25313 52.471874 220.44063 53.190624Q219.62813 53.89375 219.62813 55.878124L219.62813 61.55L217.8625 61.55ZM227.55 62.409374L229.25313 62.659374Q229.3625 63.45625 229.84688 63.815624Q230.50313 64.3 231.64375 64.3Q232.8625 64.3 233.51875 63.815624Q234.19063 63.33125 234.425 62.45625Q234.56563 61.909374 234.55 60.190624Q233.39375 61.55 231.675 61.55Q229.53438 61.55 228.3625 60.003124Q227.19063 58.45625 227.19063 56.3Q227.19063 54.815624 227.72188 53.565624Q228.26875 52.315624 229.28438 51.628124Q230.31563 50.940624 231.69063 50.940624Q233.51875 50.940624 234.72188 52.425L234.72188 51.175L236.33125 51.175L236.33125 60.14375Q236.33125 62.565624 235.83125 63.565624Q235.34688 64.58125 234.26875 65.15938Q233.20625 65.75313 231.64375 65.75313Q229.8 65.75313 228.64375 64.925Q227.50313 64.09688 227.55 62.409374ZM229.00313 56.175Q229.00313 58.221874 229.81563 59.159374Q230.62813 60.096874 231.84688 60.096874Q233.05 60.096874 233.8625 59.159374Q234.69063 58.221874 234.69063 56.2375Q234.69063 54.33125 233.84688 53.3625Q233.00313 52.39375 231.81563 52.39375Q230.64375 52.39375 229.81563 53.346874Q229.00313 54.3 229.00313 56.175Z" fill-rule="nonzero"/></svg>