<svg version="1.1" viewBox="0.0 0.0 600.0 371.0" fill="none" stroke="none" stroke-linecap="square" stroke-miterlimit="10" width="600" height="371" xmlns:xlink="http://www.w3.org/1999/xlink" xmlns="http://www.w3.org/2000/svg"><path fill="#ffffff" d="M0 0L600.0 0L600.0 371.0L0 371.0L0 0Z" fill-rule="nonzero"/><path fill="#fbbc04" d="M246.25928 64.96255C263.39844 58.3228 281.61966 54.916668 300.0 54.916668L300.0 203.68333Z" fill-rule="nonzero"/><path fill="#ea4335" d="M237.82143 338.83267C183.5372 313.85797 149.46378 258.82748 151.3039 199.10205C153.14401 139.37662 190.54054 86.5481 246.25928 64.96255L300.0 203.68333Z" fill-rule="nonzero"/><path fill="#4285f4" d="M300.0 54.916668C360.86612 54.916668 415.59283 91.994026 438.16174 148.52127C460.73065 205.04852 446.5888 269.62213 402.4596 311.54227C358.33038 353.4624 293.1162 364.2723 237.82143 338.83267L300.0 203.68333Z" fill-rule="nonzero"/><path fill="#1a1a1a" d="M19.471874 65.916664L19.471874 57.322914L22.440624 57.322914Q23.440624 57.322914 23.971874 57.447914Q24.70625 57.61979 25.221874 58.05729Q25.909374 58.635414 26.2375 59.541664Q26.58125 60.43229 26.58125 61.572914Q26.58125 62.55729 26.346874 63.30729Q26.128124 64.05729 25.76875 64.55729Q25.409374 65.05729 24.971874 65.33854Q24.55 65.61979 23.95625 65.77604Q23.3625 65.916664 22.58125 65.916664L19.471874 65.916664ZM20.6125 64.90104L22.440624 64.90104Q23.3 64.90104 23.784374 64.74479Q24.26875 64.58854 24.55 64.291664Q24.95625 63.90104 25.175 63.21354Q25.409374 62.52604 25.409374 61.55729Q25.409374 60.21354 24.95625 59.49479Q24.51875 58.760414 23.89375 58.510414Q23.425 58.33854 22.425 58.33854L20.6125 58.33854L20.6125 64.90104ZM28.346874 58.541664L28.346874 57.322914L29.409374 57.322914L29.409374 58.541664L28.346874 58.541664ZM28.346874 65.916664L28.346874 59.697914L29.409374 59.697914L29.409374 65.916664L28.346874 65.916664ZM30.925 64.05729L31.95625 63.90104Q32.05 64.52604 32.440624 64.854164Q32.846874 65.18229 33.58125 65.18229Q34.3 65.18229 34.64375 64.90104Q35.003124 64.604164 35.003124 64.197914Q35.003124 63.83854 34.690624 63.635414Q34.471874 63.49479 33.6125 63.27604Q32.45625 62.979164 32.003124 62.77604Q31.565624 62.55729 31.33125 62.18229Q31.096874 61.80729 31.096874 61.33854Q31.096874 60.93229 31.284374 60.572914Q31.471874 60.21354 31.8 59.979164Q32.05 59.80729 32.471874 59.68229Q32.89375 59.55729 33.39375 59.55729Q34.1125 59.55729 34.659374 59.77604Q35.221874 59.979164 35.4875 60.33854Q35.753124 60.697914 35.846874 61.291664L34.815624 61.43229Q34.753124 60.96354 34.409374 60.697914Q34.08125 60.416664 33.45625 60.416664Q32.7375 60.416664 32.425 60.666664Q32.1125 60.90104 32.1125 61.229164Q32.1125 61.43229 32.2375 61.58854Q32.378124 61.760414 32.64375 61.86979Q32.8 61.93229 33.58125 62.135414Q34.70625 62.447914 35.14375 62.635414Q35.58125 62.822914 35.83125 63.18229Q36.08125 63.541664 36.08125 64.08854Q36.08125 64.61979 35.76875 65.08854Q35.471874 65.541664 34.89375 65.80729Q34.315624 66.05729 33.58125 66.05729Q32.3625 66.05729 31.721874 65.55729Q31.096874 65.041664 30.925 64.05729ZM42.409374 65.15104Q41.815624 65.65104 41.26875 65.854164Q40.7375 66.05729 40.1125 66.05729Q39.08125 66.05729 38.534374 65.55729Q37.9875 65.05729 37.9875 64.27604Q37.9875 63.822914 38.190624 63.447914Q38.39375 63.05729 38.7375 62.83854Q39.08125 62.604164 39.503124 62.49479Q39.8 62.40104 40.440624 62.322914Q41.70625 62.18229 42.315624 61.96354Q42.315624 61.74479 42.315624 61.697914Q42.315624 61.041664 42.01875 60.77604Q41.6125 60.43229 40.815624 60.43229Q40.08125 60.43229 39.721874 60.697914Q39.3625 60.947914 39.190624 61.604164L38.159374 61.46354Q38.3 60.80729 38.628124 60.40104Q38.95625 59.99479 39.565624 59.77604Q40.175 59.55729 40.971874 59.55729Q41.76875 59.55729 42.26875 59.74479Q42.76875 59.93229 43.003124 60.21354Q43.2375 60.49479 43.33125 60.93229Q43.378124 61.197914 43.378124 61.90104L43.378124 63.30729Q43.378124 64.77604 43.440624 65.166664Q43.51875 65.55729 43.721874 65.916664L42.6125 65.916664Q42.45625 65.58854 42.409374 65.15104ZM42.315624 62.791664Q41.7375 63.02604 40.596874 63.197914Q39.940624 63.291664 39.675 63.416664Q39.409374 63.52604 39.253124 63.74479Q39.1125 63.96354 39.1125 64.24479Q39.1125 64.666664 39.425 64.947914Q39.753124 65.229164 40.3625 65.229164Q40.971874 65.229164 41.440624 64.96354Q41.925 64.697914 42.14375 64.229164Q42.315624 63.86979 42.315624 63.18229L42.315624 62.791664ZM45.14375 66.43229L46.175 66.58854Q46.2375 67.05729 46.534374 67.27604Q46.925 67.572914 47.596874 67.572914Q48.33125 67.572914 48.721874 67.27604Q49.128124 66.979164 49.26875 66.46354Q49.3625 66.135414 49.346874 65.104164Q48.659374 65.916664 47.628124 65.916664Q46.346874 65.916664 45.64375 64.99479Q44.940624 64.05729 44.940624 62.77604Q44.940624 61.885414 45.253124 61.135414Q45.58125 60.36979 46.190624 59.96354Q46.8 59.55729 47.628124 59.55729Q48.7375 59.55729 49.45625 60.447914L49.45625 59.697914L50.425 59.697914L50.425 65.072914Q50.425 66.52604 50.128124 67.135414Q49.83125 67.74479 49.190624 68.08854Q48.55 68.447914 47.6125 68.447914Q46.503124 68.447914 45.815624 67.947914Q45.128124 67.447914 45.14375 66.43229ZM46.01875 62.697914Q46.01875 63.916664 46.503124 64.479164Q46.9875 65.041664 47.721874 65.041664Q48.45625 65.041664 48.940624 64.479164Q49.440624 63.916664 49.440624 62.729164Q49.440624 61.58854 48.925 61.010414Q48.425 60.43229 47.70625 60.43229Q47.003124 60.43229 46.503124 61.010414Q46.01875 61.572914 46.01875 62.697914ZM52.33125 65.916664L52.33125 59.697914L53.284374 59.697914L53.284374 60.635414Q53.64375 59.979164 53.940624 59.77604Q54.253124 59.55729 54.628124 59.55729Q55.159374 59.55729 55.70625 59.885414L55.346874 60.86979Q54.95625 60.635414 54.58125 60.635414Q54.221874 60.635414 53.940624 60.854164Q53.675 61.05729 53.565624 61.43229Q53.378124 61.99479 53.378124 62.65104L53.378124 65.916664L52.33125 65.916664ZM60.596874 63.916664L61.690624 64.041664Q61.440624 64.99479 60.7375 65.52604Q60.034374 66.05729 58.95625 66.05729Q57.596874 66.05729 56.784374 65.21354Q55.9875 64.36979 55.9875 62.854164Q55.9875 61.291664 56.8 60.43229Q57.6125 59.55729 58.89375 59.55729Q60.14375 59.55729 60.925 60.40104Q61.721874 61.24479 61.721874 62.791664Q61.721874 62.885414 61.721874 63.072914L57.08125 63.072914Q57.14375 64.104164 57.659374 64.65104Q58.175 65.18229 58.95625 65.18229Q59.534374 65.18229 59.940624 64.885414Q60.3625 64.572914 60.596874 63.916664ZM57.14375 62.21354L60.6125 62.21354Q60.55 61.416664 60.221874 61.02604Q59.70625 60.416664 58.909374 60.416664Q58.175 60.416664 57.675 60.90104Q57.190624 61.385414 57.14375 62.21354ZM67.59688 63.916664L68.69063 64.041664Q68.44063 64.99479 67.7375 65.52604Q67.03438 66.05729 65.95625 66.05729Q64.59688 66.05729 63.784374 65.21354Q62.9875 64.36979 62.9875 62.854164Q62.9875 61.291664 63.8 60.43229Q64.6125 59.55729 65.89375 59.55729Q67.14375 59.55729 67.925 60.40104Q68.72188 61.24479 68.72188 62.791664Q68.72188 62.885414 68.72188 63.072914L64.08125 63.072914Q64.14375 64.104164 64.65938 64.65104Q65.175 65.18229 65.95625 65.18229Q66.53438 65.18229 66.94063 64.885414Q67.3625 64.572914 67.59688 63.916664ZM64.14375 62.21354L67.6125 62.21354Q67.55 61.416664 67.22188 61.02604Q66.70625 60.416664 65.90938 60.416664Q65.175 60.416664 64.675 60.90104Q64.19063 61.385414 64.14375 62.21354Z" fill-rule="nonzero"/><path fill="#9e9e9e" d="M19.05 80.666664L20.159374 80.572914Q20.284374 81.385414 20.721874 81.791664Q21.175 82.197914 21.815624 82.197914Q22.565624 82.197914 23.096874 81.61979Q23.628124 81.041664 23.628124 80.104164Q23.628124 79.197914 23.1125 78.68229Q22.6125 78.15104 21.784374 78.15104Q21.284374 78.15104 20.8625 78.385414Q20.45625 78.61979 20.221874 78.979164L19.2375 78.854164L20.065624 74.447914L24.346874 74.447914L24.346874 75.447914L20.909374 75.447914L20.45625 77.760414Q21.221874 77.21354 22.065624 77.21354Q23.190624 77.21354 23.95625 77.99479Q24.7375 78.77604 24.7375 80.010414Q24.7375 81.166664 24.065624 82.02604Q23.2375 83.05729 21.815624 83.05729Q20.64375 83.05729 19.89375 82.40104Q19.159374 81.74479 19.05 80.666664ZM26.64375 82.916664L26.64375 81.71354L27.846874 81.71354L27.846874 82.916664L26.64375 82.916664ZM29.20625 80.93229L30.221874 80.83854Q30.346874 81.55729 30.70625 81.885414Q31.08125 82.197914 31.64375 82.197914Q32.128124 82.197914 32.4875 81.979164Q32.8625 81.74479 33.096874 81.385414Q33.33125 81.010414 33.4875 80.385414Q33.64375 79.74479 33.64375 79.08854Q33.64375 79.010414 33.64375 78.86979Q33.33125 79.36979 32.784374 79.697914Q32.2375 80.010414 31.596874 80.010414Q30.51875 80.010414 29.784374 79.24479Q29.05 78.46354 29.05 77.197914Q29.05 75.885414 29.815624 75.08854Q30.596874 74.291664 31.753124 74.291664Q32.58125 74.291664 33.26875 74.74479Q33.971874 75.197914 34.33125 76.041664Q34.690624 76.86979 34.690624 78.447914Q34.690624 80.08854 34.33125 81.072914Q33.9875 82.041664 33.26875 82.55729Q32.565624 83.05729 31.628124 83.05729Q30.6125 83.05729 29.971874 82.510414Q29.33125 81.947914 29.20625 80.93229ZM33.51875 77.135414Q33.51875 76.229164 33.034374 75.697914Q32.565624 75.166664 31.878124 75.166664Q31.175 75.166664 30.64375 75.74479Q30.128124 76.30729 30.128124 77.229164Q30.128124 78.041664 30.628124 78.55729Q31.128124 79.072914 31.846874 79.072914Q32.58125 79.072914 33.05 78.55729Q33.51875 78.041664 33.51875 77.135414ZM36.253124 76.385414Q36.253124 75.46354 36.70625 74.822914Q37.175 74.18229 38.05 74.18229Q38.8625 74.18229 39.39375 74.760414Q39.925 75.33854 39.925 76.447914Q39.925 77.541664 39.378124 78.135414Q38.846874 78.71354 38.065624 78.71354Q37.284374 78.71354 36.76875 78.135414Q36.253124 77.55729 36.253124 76.385414ZM38.08125 74.90104Q37.690624 74.90104 37.425 75.24479Q37.175 75.58854 37.175 76.49479Q37.175 77.322914 37.425 77.666664Q37.690624 77.99479 38.08125 77.99479Q38.4875 77.99479 38.7375 77.65104Q39.003124 77.30729 39.003124 76.416664Q39.003124 75.572914 38.7375 75.24479Q38.471874 74.90104 38.08125 74.90104ZM38.08125 83.229164L42.784374 74.18229L43.64375 74.18229L38.95625 83.229164L38.08125 83.229164ZM41.8 80.90104Q41.8 79.979164 42.253124 79.33854Q42.721874 78.697914 43.6125 78.697914Q44.425 78.697914 44.95625 79.27604Q45.4875 79.83854 45.4875 80.96354Q45.4875 82.05729 44.940624 82.65104Q44.409374 83.229164 43.6125 83.229164Q42.846874 83.229164 42.315624 82.65104Q41.8 82.072914 41.8 80.90104ZM43.64375 79.416664Q43.2375 79.416664 42.971874 79.760414Q42.721874 80.104164 42.721874 81.010414Q42.721874 81.822914 42.9875 82.166664Q43.253124 82.510414 43.64375 82.510414Q44.034374 82.510414 44.3 82.166664Q44.565624 81.822914 44.565624 80.916664Q44.565624 80.08854 44.3 79.760414Q44.034374 79.416664 43.64375 79.416664Z" fill-rule="nonzero"/><path stroke="#757575" stroke-width="1.0" stroke-linecap="butt" d="M18.55 70.416664L145.23334 70.416664L274.03098 64.76138" fill-rule="nonzero"/><path fill="#9e9e9e" d="M276.03098 64.76138C276.03098 63.656815 275.13556 62.761383 274.03098 62.761383C272.92642 62.761383 272.03098 63.656815 272.03098 64.76138C272.03098 65.86595 272.92642 66.76138 274.03098 66.76138C275.13556 66.76138 276.03098 65.86595 276.03098 64.76138" fill-rule="nonzero"/><path fill="#1a1a1a" d="M18.534374 194.83112L21.83125 186.23737L23.05 186.23737L26.565624 194.83112L25.284374 194.83112L24.26875 192.22174L20.690624 192.22174L19.7375 194.83112L18.534374 194.83112ZM21.01875 191.29987L23.925 191.29987L23.034374 188.92487Q22.6125 187.84674 22.425 187.14362Q22.253124 187.97174 21.95625 188.78424L21.01875 191.29987ZM26.14375 195.34674L27.175 195.50299Q27.2375 195.97174 27.534374 196.19049Q27.925 196.48737 28.596874 196.48737Q29.33125 196.48737 29.721874 196.19049Q30.128124 195.89362 30.26875 195.37799Q30.3625 195.04987 30.346874 194.01862Q29.659374 194.83112 28.628124 194.83112Q27.346874 194.83112 26.64375 193.90924Q25.940624 192.97174 25.940624 191.69049Q25.940624 190.79987 26.253124 190.04987Q26.58125 189.28424 27.190624 188.87799Q27.8 188.47174 28.628124 188.47174Q29.7375 188.47174 30.45625 189.36237L30.45625 188.61237L31.425 188.61237L31.425 193.98737Q31.425 195.44049 31.128124 196.04987Q30.83125 196.65924 30.190624 197.00299Q29.55 197.36237 28.6125 197.36237Q27.503124 197.36237 26.815624 196.86237Q26.128124 196.36237 26.14375 195.34674ZM27.01875 191.61237Q27.01875 192.83112 27.503124 193.39362Q27.9875 193.95612 28.721874 193.95612Q29.45625 193.95612 29.940624 193.39362Q30.440624 192.83112 30.440624 191.64362Q30.440624 190.50299 29.925 189.92487Q29.425 189.34674 28.70625 189.34674Q28.003124 189.34674 27.503124 189.92487Q27.01875 190.48737 27.01875 191.61237ZM33.33125 194.83112L33.33125 188.61237L34.284374 188.61237L34.284374 189.54987Q34.64375 188.89362 34.940624 188.69049Q35.253124 188.47174 35.628124 188.47174Q36.159374 188.47174 36.70625 188.79987L36.346874 189.78424Q35.95625 189.54987 35.58125 189.54987Q35.221874 189.54987 34.940624 189.76862Q34.675 189.97174 34.565624 190.34674Q34.378124 190.90924 34.378124 191.56549L34.378124 194.83112L33.33125 194.83112ZM41.596874 192.83112L42.690624 192.95612Q42.440624 193.90924 41.7375 194.44049Q41.034374 194.97174 39.95625 194.97174Q38.596874 194.97174 37.784374 194.12799Q36.9875 193.28424 36.9875 191.76862Q36.9875 190.20612 37.8 189.34674Q38.6125 188.47174 39.89375 188.47174Q41.14375 188.47174 41.925 189.31549Q42.721874 190.15924 42.721874 191.70612Q42.721874 191.79987 42.721874 191.98737L38.08125 191.98737Q38.14375 193.01862 38.659374 193.56549Q39.175 194.09674 39.95625 194.09674Q40.534374 194.09674 40.940624 193.79987Q41.3625 193.48737 41.596874 192.83112ZM38.14375 191.12799L41.6125 191.12799Q41.55 190.33112 41.221874 189.94049Q40.70625 189.33112 39.909374 189.33112Q39.175 189.33112 38.675 189.81549Q38.190624 190.29987 38.14375 191.12799ZM48.596874 192.83112L49.690624 192.95612Q49.440624 193.90924 48.7375 194.44049Q48.034374 194.97174 46.95625 194.97174Q45.596874 194.97174 44.784374 194.12799Q43.9875 193.28424 43.9875 191.76862Q43.9875 190.20612 44.8 189.34674Q45.6125 188.47174 46.89375 188.47174Q48.14375 188.47174 48.925 189.31549Q49.721874 190.15924 49.721874 191.70612Q49.721874 191.79987 49.721874 191.98737L45.08125 191.98737Q45.14375 193.01862 45.659374 193.56549Q46.175 194.09674 46.95625 194.09674Q47.534374 194.09674 47.940624 193.79987Q48.3625 193.48737 48.596874 192.83112ZM45.14375 191.12799L48.6125 191.12799Q48.55 190.33112 48.221874 189.94049Q47.70625 189.33112 46.909374 189.33112Q46.175 189.33112 45.675 189.81549Q45.190624 190.29987 45.14375 191.12799Z" fill-rule="nonzero"/><path fill="#9e9e9e" d="M19.05 209.56549L20.1125 209.42487Q20.284374 210.31549 20.721874 210.72174Q21.159374 211.11237 21.784374 211.11237Q22.534374 211.11237 23.05 210.59674Q23.565624 210.08112 23.565624 209.31549Q23.565624 208.59674 23.08125 208.12799Q22.6125 207.64362 21.878124 207.64362Q21.58125 207.64362 21.128124 207.76862L21.253124 206.83112Q21.3625 206.84674 21.425 206.84674Q22.096874 206.84674 22.628124 206.50299Q23.175 206.14362 23.175 205.40924Q23.175 204.83112 22.784374 204.45612Q22.39375 204.06549 21.76875 204.06549Q21.159374 204.06549 20.7375 204.45612Q20.33125 204.84674 20.221874 205.61237L19.159374 205.42487Q19.346874 204.37799 20.034374 203.79987Q20.721874 203.20612 21.7375 203.20612Q22.440624 203.20612 23.034374 203.51862Q23.628124 203.81549 23.940624 204.33112Q24.253124 204.84674 24.253124 205.44049Q24.253124 205.98737 23.95625 206.45612Q23.659374 206.90924 23.08125 207.17487Q23.83125 207.34674 24.253124 207.90924Q24.675 208.45612 24.675 209.29987Q24.675 210.42487 23.846874 211.20612Q23.034374 211.98737 21.784374 211.98737Q20.659374 211.98737 19.909374 211.31549Q19.159374 210.62799 19.05 209.56549ZM26.1125 204.36237L26.1125 203.34674L31.675 203.34674L31.675 204.17487Q30.8625 205.04987 30.05 206.50299Q29.253124 207.94049 28.815624 209.47174Q28.4875 210.54987 28.409374 211.83112L27.315624 211.83112Q27.33125 210.81549 27.70625 209.37799Q28.096874 207.94049 28.8 206.61237Q29.51875 205.28424 30.33125 204.36237L26.1125 204.36237ZM33.64375 211.83112L33.64375 210.62799L34.846874 210.62799L34.846874 211.83112L33.64375 211.83112ZM36.05 209.56549L37.1125 209.42487Q37.284374 210.31549 37.721874 210.72174Q38.159374 211.11237 38.784374 211.11237Q39.534374 211.11237 40.05 210.59674Q40.565624 210.08112 40.565624 209.31549Q40.565624 208.59674 40.08125 208.12799Q39.6125 207.64362 38.878124 207.64362Q38.58125 207.64362 38.128124 207.76862L38.253124 206.83112Q38.3625 206.84674 38.425 206.84674Q39.096874 206.84674 39.628124 206.50299Q40.175 206.14362 40.175 205.40924Q40.175 204.83112 39.784374 204.45612Q39.39375 204.06549 38.76875 204.06549Q38.159374 204.06549 37.7375 204.45612Q37.33125 204.84674 37.221874 205.61237L36.159374 205.42487Q36.346874 204.37799 37.034374 203.79987Q37.721874 203.20612 38.7375 203.20612Q39.440624 203.20612 40.034374 203.51862Q40.628124 203.81549 40.940624 204.33112Q41.253124 204.84674 41.253124 205.44049Q41.253124 205.98737 40.95625 206.45612Q40.659374 206.90924 40.08125 207.17487Q40.83125 207.34674 41.253124 207.90924Q41.675 208.45612 41.675 209.29987Q41.675 210.42487 40.846874 211.20612Q40.034374 211.98737 38.784374 211.98737Q37.659374 211.98737 36.909374 211.31549Q36.159374 210.62799 36.05 209.56549ZM43.253124 205.29987Q43.253124 204.37799 43.70625 203.73737Q44.175 203.09674 45.05 203.09674Q45.8625 203.09674 46.39375 203.67487Q46.925 204.25299 46.925 205.36237Q46.925 206.45612 46.378124 207.04987Q45.846874 207.62799 45.065624 207.62799Q44.284374 207.62799 43.76875 207.04987Q43.253124 206.47174 43.253124 205.29987ZM45.08125 203.81549Q44.690624 203.81549 44.425 204.15924Q44.175 204.50299 44.175 205.40924Q44.175 206.23737 44.425 206.58112Q44.690624 206.90924 45.08125 206.90924Q45.4875 206.90924 45.7375 206.56549Q46.003124 206.22174 46.003124 205.33112Q46.003124 204.48737 45.7375 204.15924Q45.471874 203.81549 45.08125 203.81549ZM45.08125 212.14362L49.784374 203.09674L50.64375 203.09674L45.95625 212.14362L45.08125 212.14362ZM48.8 209.81549Q48.8 208.89362 49.253124 208.25299Q49.721874 207.61237 50.6125 207.61237Q51.425 207.61237 51.95625 208.19049Q52.4875 208.75299 52.4875 209.87799Q52.4875 210.97174 51.940624 211.56549Q51.409374 212.14362 50.6125 212.14362Q49.846874 212.14362 49.315624 211.56549Q48.8 210.98737 48.8 209.81549ZM50.64375 208.33112Q50.2375 208.33112 49.971874 208.67487Q49.721874 209.01862 49.721874 209.92487Q49.721874 210.73737 49.9875 211.08112Q50.253124 211.42487 50.64375 211.42487Q51.034374 211.42487 51.3 211.08112Q51.565624 210.73737 51.565624 209.83112Q51.565624 209.00299 51.3 208.67487Q51.034374 208.33112 50.64375 208.33112Z" fill-rule="nonzero"/><path stroke="#757575" stroke-width="1.0" stroke-linecap="butt" d="M18.55 199.33112L145.23334 199.33112L158.7387 199.33112" fill-rule="nonzero"/><path fill="#9e9e9e" d="M160.7387 199.33112C160.7387 198.22655 159.84326 197.33112 158.7387 197.33112C157.63412 197.33112 156.7387 198.22655 156.7387 199.33112C156.7387 200.43568 157.63412 201.33112 158.7387 201.33112C159.84326 201.33112 160.7387 200.43568 160.7387 199.33112" fill-rule="nonzero"/><path fill="#1a1a1a" d="M502.9969 226.65251L504.0594 226.55876Q504.1375 227.21501 504.41876 227.62126Q504.7 228.02751 505.27814 228.29314Q505.8719 228.54314 506.60626 228.54314Q507.2469 228.54314 507.7469 228.35564Q508.2469 228.15251 508.48126 227.82439Q508.73126 227.48064 508.73126 227.09001Q508.73126 226.68376 508.4969 226.38689Q508.2625 226.07439 507.73126 225.87126Q507.3719 225.73064 506.1844 225.44939Q505.0125 225.16814 504.54376 224.91814Q503.91876 224.59001 503.6219 224.12126Q503.325 223.63689 503.325 223.04314Q503.325 222.40251 503.6844 221.84001Q504.0594 221.26189 504.7625 220.98064Q505.48126 220.68376 506.34064 220.68376Q507.29376 220.68376 508.02814 220.99626Q508.7625 221.29314 509.15314 221.90251Q509.54376 222.49626 509.575 223.24626L508.48126 223.32439Q508.3875 222.51189 507.8719 222.10564Q507.3719 221.68376 506.3875 221.68376Q505.35626 221.68376 504.8875 222.05876Q504.41876 222.43376 504.41876 222.96501Q504.41876 223.43376 504.7469 223.73064Q505.075 224.02751 506.45 224.34001Q507.84064 224.65251 508.35626 224.88689Q509.10626 225.24626 509.46564 225.77751Q509.825 226.29314 509.825 226.99626Q509.825 227.68376 509.4344 228.29314Q509.04376 228.88689 508.3094 229.23064Q507.575 229.55876 506.65314 229.55876Q505.48126 229.55876 504.6844 229.23064Q503.90314 228.88689 503.45 228.19939Q503.0125 227.51189 502.9969 226.65251ZM513.54376 228.48064L513.7 229.40251Q513.2469 229.49626 512.90314 229.49626Q512.325 229.49626 512.0125 229.32439Q511.7 229.13689 511.5594 228.84001Q511.4344 228.54314 511.4344 227.59001L511.4344 224.01189L510.66876 224.01189L510.66876 223.19939L511.4344 223.19939L511.4344 221.65251L512.48126 221.02751L512.48126 223.19939L513.54376 223.19939L513.54376 224.01189L512.48126 224.01189L512.48126 227.65251Q512.48126 228.10564 512.52814 228.23064Q512.59064 228.35564 512.71564 228.43376Q512.84064 228.51189 513.075 228.51189Q513.2625 228.51189 513.54376 228.48064ZM514.23126 229.41814L514.23126 223.19939L515.1844 223.19939L515.1844 224.13689Q515.54376 223.48064 515.84064 223.27751Q516.15314 223.05876 516.52814 223.05876Q517.0594 223.05876 517.60626 223.38689L517.2469 224.37126Q516.85626 224.13689 516.48126 224.13689Q516.1219 224.13689 515.84064 224.35564Q515.575 224.55876 515.46564 224.93376Q515.27814 225.49626 515.27814 226.15251L515.27814 229.41814L514.23126 229.41814ZM517.85626 226.30876Q517.85626 224.57439 518.8094 223.74626Q519.60626 223.05876 520.7625 223.05876Q522.04376 223.05876 522.85626 223.90251Q523.6844 224.73064 523.6844 226.21501Q523.6844 227.41814 523.325 228.10564Q522.96564 228.79314 522.2625 229.18376Q521.575 229.55876 520.7625 229.55876Q519.46564 229.55876 518.65314 228.73064Q517.85626 227.88689 517.85626 226.30876ZM518.9344 226.30876Q518.9344 227.49626 519.45 228.09001Q519.98126 228.68376 520.7625 228.68376Q521.5594 228.68376 522.075 228.09001Q522.59064 227.49626 522.59064 226.27751Q522.59064 225.12126 522.0594 224.52751Q521.54376 223.93376 520.7625 223.93376Q519.98126 223.93376 519.45 224.52751Q518.9344 225.10564 518.9344 226.30876ZM525.2469 229.41814L525.2469 223.19939L526.1844 223.19939L526.1844 224.07439Q526.8719 223.05876 528.16876 223.05876Q528.73126 223.05876 529.2 223.26189Q529.6844 223.46501 529.91876 223.79314Q530.15314 224.12126 530.2469 224.55876Q530.29376 224.85564 530.29376 225.59001L530.29376 229.41814L529.2469 229.41814L529.2469 225.63689Q529.2469 224.98064 529.1219 224.66814Q528.9969 224.35564 528.6844 224.16814Q528.3719 223.96501 527.95 223.96501Q527.27814 223.96501 526.77814 224.40251Q526.29376 224.82439 526.29376 226.01189L526.29376 229.41814L525.2469 229.41814ZM532.04376 229.93376L533.075 230.09001Q533.1375 230.55876 533.4344 230.77751Q533.825 231.07439 534.4969 231.07439Q535.23126 231.07439 535.6219 230.77751Q536.02814 230.48064 536.16876 229.96501Q536.2625 229.63689 536.2469 228.60564Q535.5594 229.41814 534.52814 229.41814Q533.2469 229.41814 532.54376 228.49626Q531.84064 227.55876 531.84064 226.27751Q531.84064 225.38689 532.15314 224.63689Q532.48126 223.87126 533.09064 223.46501Q533.7 223.05876 534.52814 223.05876Q535.6375 223.05876 536.35626 223.94939L536.35626 223.19939L537.325 223.19939L537.325 228.57439Q537.325 230.02751 537.02814 230.63689Q536.73126 231.24626 536.09064 231.59001Q535.45 231.94939 534.5125 231.94939Q533.40314 231.94939 532.71564 231.44939Q532.02814 230.94939 532.04376 229.93376ZM532.91876 226.19939Q532.91876 227.41814 533.40314 227.98064Q533.8875 228.54314 534.6219 228.54314Q535.35626 228.54314 535.84064 227.98064Q536.34064 227.41814 536.34064 226.23064Q536.34064 225.09001 535.825 224.51189Q535.325 223.93376 534.60626 223.93376Q533.90314 223.93376 533.40314 224.51189Q532.91876 225.07439 532.91876 226.19939ZM539.21564 229.41814L539.21564 220.82439L540.27814 220.82439L540.27814 229.41814L539.21564 229.41814ZM542.2 231.80876L542.075 230.82439Q542.41876 230.91814 542.6844 230.91814Q543.02814 230.91814 543.23126 230.79314Q543.45 230.68376 543.59064 230.48064Q543.6844 230.30876 543.91876 229.68376Q543.9344 229.60564 544.0125 229.43376L541.6375 223.19939L542.77814 223.19939L544.075 226.79314Q544.325 227.48064 544.52814 228.24626Q544.71564 227.51189 544.96564 226.82439L546.29376 223.19939L547.34064 223.19939L544.98126 229.52751Q544.59064 230.54314 544.3875 230.93376Q544.10626 231.46501 543.73126 231.69939Q543.3719 231.94939 542.8719 231.94939Q542.575 231.94939 542.2 231.80876ZM549.4344 229.41814L552.73126 220.82439L553.95 220.82439L557.46564 229.41814L556.1844 229.41814L555.16876 226.80876L551.59064 226.80876L550.6375 229.41814L549.4344 229.41814ZM551.91876 225.88689L554.825 225.88689L553.9344 223.51189Q553.5125 222.43376 553.325 221.73064Q553.15314 222.55876 552.85626 223.37126L551.91876 225.88689ZM557.04376 229.93376L558.075 230.09001Q558.1375 230.55876 558.4344 230.77751Q558.825 231.07439 559.4969 231.07439Q560.23126 231.07439 560.6219 230.77751Q561.02814 230.48064 561.16876 229.96501Q561.2625 229.63689 561.2469 228.60564Q560.5594 229.41814 559.52814 229.41814Q558.2469 229.41814 557.54376 228.49626Q556.84064 227.55876 556.84064 226.27751Q556.84064 225.38689 557.15314 224.63689Q557.48126 223.87126 558.09064 223.46501Q558.7 223.05876 559.52814 223.05876Q560.6375 223.05876 561.35626 223.94939L561.35626 223.19939L562.325 223.19939L562.325 228.57439Q562.325 230.02751 562.02814 230.63689Q561.73126 231.24626 561.09064 231.59001Q560.45 231.94939 559.5125 231.94939Q558.40314 231.94939 557.71564 231.44939Q557.02814 230.94939 557.04376 229.93376ZM557.91876 226.19939Q557.91876 227.41814 558.40314 227.98064Q558.8875 228.54314 559.6219 228.54314Q560.35626 228.54314 560.84064 227.98064Q561.34064 227.41814 561.34064 226.23064Q561.34064 225.09001 560.825 224.51189Q560.325 223.93376 559.60626 223.93376Q558.90314 223.93376 558.40314 224.51189Q557.91876 225.07439 557.91876 226.19939ZM564.23126 229.41814L564.23126 223.19939L565.1844 223.19939L565.1844 224.13689Q565.54376 223.48064 565.84064 223.27751Q566.15314 223.05876 566.52814 223.05876Q567.0594 223.05876 567.60626 223.38689L567.2469 224.37126Q566.85626 224.13689 566.48126 224.13689Q566.1219 224.13689 565.84064 224.35564Q565.575 224.55876 565.46564 224.93376Q565.27814 225.49626 565.27814 226.15251L565.27814 229.41814L564.23126 229.41814ZM572.4969 227.41814L573.59064 227.54314Q573.34064 228.49626 572.6375 229.02751Q571.9344 229.55876 570.85626 229.55876Q569.4969 229.55876 568.6844 228.71501Q567.8875 227.87126 567.8875 226.35564Q567.8875 224.79314 568.7 223.93376Q569.5125 223.05876 570.79376 223.05876Q572.04376 223.05876 572.825 223.90251Q573.6219 224.74626 573.6219 226.29314Q573.6219 226.38689 573.6219 226.57439L568.98126 226.57439Q569.04376 227.60564 569.5594 228.15251Q570.075 228.68376 570.85626 228.68376Q571.4344 228.68376 571.84064 228.38689Q572.2625 228.07439 572.4969 227.41814ZM569.04376 225.71501L572.5125 225.71501Q572.45 224.91814 572.1219 224.52751Q571.60626 223.91814 570.8094 223.91814Q570.075 223.91814 569.575 224.40251Q569.09064 224.88689 569.04376 225.71501ZM579.4969 227.41814L580.59064 227.54314Q580.34064 228.49626 579.6375 229.02751Q578.9344 229.55876 577.85626 229.55876Q576.4969 229.55876 575.6844 228.71501Q574.8875 227.87126 574.8875 226.35564Q574.8875 224.79314 575.7 223.93376Q576.5125 223.05876 577.79376 223.05876Q579.04376 223.05876 579.825 223.90251Q580.6219 224.74626 580.6219 226.29314Q580.6219 226.38689 580.6219 226.57439L575.98126 226.57439Q576.04376 227.60564 576.5594 228.15251Q577.075 228.68376 577.85626 228.68376Q578.4344 228.68376 578.84064 228.38689Q579.2625 228.07439 579.4969 227.41814ZM576.04376 225.71501L579.5125 225.71501Q579.45 224.91814 579.1219 224.52751Q578.60626 223.91814 577.8094 223.91814Q577.075 223.91814 576.575 224.40251Q576.09064 224.88689 576.04376 225.71501Z" fill-rule="nonzero"/><path fill="#9e9e9e" d="M546.95 244.16814L548.0594 244.07439Q548.1844 244.88689 548.6219 245.29314Q549.075 245.69939 549.71564 245.69939Q550.46564 245.69939 550.9969 245.12126Q551.52814 244.54314 551.52814 243.60564Q551.52814 242.69939 551.0125 242.18376Q550.5125 241.65251 549.6844 241.65251Q549.1844 241.65251 548.7625 241.88689Q548.35626 242.12126 548.1219 242.48064L547.1375 242.35564L547.96564 237.94939L552.2469 237.94939L552.2469 238.94939L548.8094 238.94939L548.35626 241.26189Q549.1219 240.71501 549.96564 240.71501Q551.09064 240.71501 551.85626 241.49626Q552.6375 242.27751 552.6375 243.51189Q552.6375 244.66814 551.96564 245.52751Q551.1375 246.55876 549.71564 246.55876Q548.54376 246.55876 547.79376 245.90251Q547.0594 245.24626 546.95 244.16814ZM559.41876 239.93376L558.3719 240.01189Q558.23126 239.38689 557.98126 239.10564Q557.54376 238.65251 556.91876 238.65251Q556.41876 238.65251 556.02814 238.93376Q555.54376 239.30876 555.2469 240.01189Q554.96564 240.69939 554.95 241.98064Q555.325 241.40251 555.8719 241.12126Q556.4344 240.84001 557.04376 240.84001Q558.09064 240.84001 558.825 241.62126Q559.575 242.40251 559.575 243.62126Q559.575 244.43376 559.21564 245.13689Q558.8719 245.82439 558.2625 246.19939Q557.65314 246.55876 556.8875 246.55876Q555.5594 246.55876 554.73126 245.59001Q553.90314 244.62126 553.90314 242.40251Q553.90314 239.90251 554.825 238.77751Q555.6219 237.79314 556.98126 237.79314Q557.9969 237.79314 558.6375 238.37126Q559.29376 238.93376 559.41876 239.93376ZM555.1219 243.63689Q555.1219 244.18376 555.34064 244.68376Q555.575 245.16814 555.98126 245.43376Q556.40314 245.69939 556.8719 245.69939Q557.52814 245.69939 558.0125 245.16814Q558.4969 244.62126 558.4969 243.69939Q558.4969 242.80876 558.0125 242.29314Q557.54376 241.77751 556.825 241.77751Q556.10626 241.77751 555.60626 242.29314Q555.1219 242.80876 555.1219 243.63689ZM561.54376 246.41814L561.54376 245.21501L562.7469 245.21501L562.7469 246.41814L561.54376 246.41814ZM564.10626 244.43376L565.1219 244.34001Q565.2469 245.05876 565.60626 245.38689Q565.98126 245.69939 566.54376 245.69939Q567.02814 245.69939 567.3875 245.48064Q567.7625 245.24626 567.9969 244.88689Q568.23126 244.51189 568.3875 243.88689Q568.54376 243.24626 568.54376 242.59001Q568.54376 242.51189 568.54376 242.37126Q568.23126 242.87126 567.6844 243.19939Q567.1375 243.51189 566.4969 243.51189Q565.41876 243.51189 564.6844 242.74626Q563.95 241.96501 563.95 240.69939Q563.95 239.38689 564.71564 238.59001Q565.4969 237.79314 566.65314 237.79314Q567.48126 237.79314 568.16876 238.24626Q568.8719 238.69939 569.23126 239.54314Q569.59064 240.37126 569.59064 241.94939Q569.59064 243.59001 569.23126 244.57439Q568.8875 245.54314 568.16876 246.05876Q567.46564 246.55876 566.52814 246.55876Q565.5125 246.55876 564.8719 246.01189Q564.23126 245.44939 564.10626 244.43376ZM568.41876 240.63689Q568.41876 239.73064 567.9344 239.19939Q567.46564 238.66814 566.77814 238.66814Q566.075 238.66814 565.54376 239.24626Q565.02814 239.80876 565.02814 240.73064Q565.02814 241.54314 565.52814 242.05876Q566.02814 242.57439 566.7469 242.57439Q567.48126 242.57439 567.95 242.05876Q568.41876 241.54314 568.41876 240.63689ZM571.15314 239.88689Q571.15314 238.96501 571.60626 238.32439Q572.075 237.68376 572.95 237.68376Q573.7625 237.68376 574.29376 238.26189Q574.825 238.84001 574.825 239.94939Q574.825 241.04314 574.27814 241.63689Q573.7469 242.21501 572.96564 242.21501Q572.1844 242.21501 571.66876 241.63689Q571.15314 241.05876 571.15314 239.88689ZM572.98126 238.40251Q572.59064 238.40251 572.325 238.74626Q572.075 239.09001 572.075 239.99626Q572.075 240.82439 572.325 241.16814Q572.59064 241.49626 572.98126 241.49626Q573.3875 241.49626 573.6375 241.15251Q573.90314 240.80876 573.90314 239.91814Q573.90314 239.07439 573.6375 238.74626Q573.3719 238.40251 572.98126 238.40251ZM572.98126 246.73064L577.6844 237.68376L578.54376 237.68376L573.85626 246.73064L572.98126 246.73064ZM576.7 244.40251Q576.7 243.48064 577.15314 242.84001Q577.6219 242.19939 578.5125 242.19939Q579.325 242.19939 579.85626 242.77751Q580.3875 243.34001 580.3875 244.46501Q580.3875 245.55876 579.84064 246.15251Q579.3094 246.73064 578.5125 246.73064Q577.7469 246.73064 577.21564 246.15251Q576.7 245.57439 576.7 244.40251ZM578.54376 242.91814Q578.1375 242.91814 577.8719 243.26189Q577.6219 243.60564 577.6219 244.51189Q577.6219 245.32439 577.8875 245.66814Q578.15314 246.01189 578.54376 246.01189Q578.9344 246.01189 579.2 245.66814Q579.46564 245.32439 579.46564 244.41814Q579.46564 243.59001 579.2 243.26189Q578.9344 242.91814 578.54376 242.91814Z" fill-rule="nonzero"/><path stroke="#757575" stroke-width="1.0" stroke-linecap="butt" d="M581.45 233.91814L454.76666 233.91814L438.05634 233.91814" fill-rule="nonzero"/><path fill="#9e9e9e" d="M440.05634 233.91814C440.05634 232.81357 439.16092 231.91814 438.05634 231.91814C436.95178 231.91814 436.05634 232.81357 436.05634 233.91814C436.05634 235.0227 436.95178 235.91814 438.05634 235.91814C439.16092 235.91814 440.05634 235.0227 440.05634 233.91814" fill-rule="nonzero"/><path fill="#757575" d="M20.409374 37.55L20.409374 23.2375L22.315624 23.2375L22.315624 37.55L20.409374 37.55ZM33.784374 37.55L30.6125 27.175L32.425 27.175L34.08125 33.159374L34.690624 35.39375Q34.7375 35.221874 35.221874 33.253124L36.878124 27.175L38.690624 27.175L40.2375 33.190624L40.753124 35.175L41.346874 33.175L43.128124 27.175L44.83125 27.175L41.596874 37.55L39.76875 37.55L38.1125 31.33125L37.721874 29.565624L35.6125 37.55L33.784374 37.55ZM46.221874 32.3625Q46.221874 29.4875 47.815624 28.096874Q49.159374 26.940624 51.08125 26.940624Q53.221874 26.940624 54.565624 28.346874Q55.925 29.753124 55.925 32.221874Q55.925 34.221874 55.33125 35.378124Q54.7375 36.51875 53.58125 37.159374Q52.440624 37.784374 51.08125 37.784374Q48.89375 37.784374 47.55 36.39375Q46.221874 34.9875 46.221874 32.3625ZM48.01875 32.3625Q48.01875 34.3625 48.878124 35.346874Q49.753124 36.33125 51.08125 36.33125Q52.39375 36.33125 53.253124 35.346874Q54.128124 34.346874 54.128124 32.3Q54.128124 30.378124 53.253124 29.39375Q52.378124 28.39375 51.08125 28.39375Q49.753124 28.39375 48.878124 29.39375Q48.01875 30.378124 48.01875 32.3625ZM64.65938 37.55L64.65938 36.01875Q63.45625 37.784374 61.378124 37.784374Q60.45625 37.784374 59.659374 37.440624Q58.8625 37.08125 58.471874 36.55Q58.096874 36.01875 57.940624 35.2375Q57.83125 34.721874 57.83125 33.596874L57.83125 27.175L59.58125 27.175L59.58125 32.925Q59.58125 34.3 59.690624 34.784374Q59.8625 35.471874 60.39375 35.878124Q60.940624 36.26875 61.721874 36.26875Q62.51875 36.26875 63.20625 35.8625Q63.909374 35.45625 64.19063 34.76875Q64.4875 34.065624 64.4875 32.7375L64.4875 27.175L66.2375 27.175L66.2375 37.55L64.65938 37.55ZM67.83125 37.55L67.83125 23.2375L69.58125 23.2375L69.58125 37.55L67.83125 37.55ZM78.59688 37.55L78.59688 36.2375Q77.6125 37.784374 75.69063 37.784374Q74.45625 37.784374 73.40938 37.096874Q72.37813 36.409374 71.8 35.190624Q71.2375 33.971874 71.2375 32.378124Q71.2375 30.815624 71.75313 29.55Q72.26875 28.284374 73.3 27.6125Q74.34688 26.940624 75.6125 26.940624Q76.55 26.940624 77.28438 27.346874Q78.01875 27.7375 78.4875 28.3625L78.4875 23.2375L80.22188 23.2375L80.22188 37.55L78.59688 37.55ZM73.03438 32.378124Q73.03438 34.3625 73.87813 35.346874Q74.72188 36.33125 75.8625 36.33125Q77.01875 36.33125 77.81563 35.39375Q78.62813 34.45625 78.62813 32.51875Q78.62813 30.39375 77.8 29.39375Q76.9875 28.39375 75.78438 28.39375Q74.6125 28.39375 73.81563 29.3625Q73.03438 30.315624 73.03438 32.378124ZM88.8625 41.51875L88.8625 27.175L90.47188 27.175L90.47188 28.51875Q91.03438 27.7375 91.7375 27.346874Q92.45625 26.940624 93.47188 26.940624Q94.8 26.940624 95.81563 27.628124Q96.83125 28.315624 97.34688 29.565624Q97.87813 30.8 97.87813 32.284374Q97.87813 33.878124 97.3 35.159374Q96.7375 36.425 95.64375 37.1125Q94.55 37.784374 93.34688 37.784374Q92.47188 37.784374 91.76875 37.409374Q91.08125 37.034374 90.62813 36.471874L90.62813 41.51875L88.8625 41.51875ZM90.45625 32.425Q90.45625 34.425 91.26875 35.378124Q92.08125 36.33125 93.2375 36.33125Q94.40938 36.33125 95.2375 35.346874Q96.08125 34.3625 96.08125 32.26875Q96.08125 30.3 95.25313 29.315624Q94.44063 28.315624 93.31563 28.315624Q92.19063 28.315624 91.31563 29.378124Q90.45625 30.425 90.45625 32.425ZM99.84688 37.55L99.84688 27.175L101.425 27.175L101.425 28.753124Q102.03438 27.64375 102.55 27.3Q103.06563 26.940624 103.675 26.940624Q104.56563 26.940624 105.4875 27.503124L104.87813 29.14375Q104.2375 28.753124 103.59688 28.753124Q103.01875 28.753124 102.55 29.1125Q102.09688 29.45625 101.89375 30.065624Q101.6125 31.003124 101.6125 32.1125L101.6125 37.55L99.84688 37.55ZM113.97188 34.20625L115.78438 34.440624Q115.3625 36.01875 114.19063 36.909374Q113.03438 37.784374 111.22188 37.784374Q108.95625 37.784374 107.6125 36.39375Q106.28438 34.9875 106.28438 32.45625Q106.28438 29.83125 107.62813 28.39375Q108.97188 26.940624 111.12813 26.940624Q113.20625 26.940624 114.51875 28.3625Q115.84688 29.76875 115.84688 32.346874Q115.84688 32.503124 115.83125 32.815624L108.09688 32.815624Q108.19063 34.51875 109.06563 35.425Q109.94063 36.33125 111.2375 36.33125Q112.20625 36.33125 112.87813 35.83125Q113.56563 35.315624 113.97188 34.20625ZM108.19063 31.3625L113.9875 31.3625Q113.87813 30.065624 113.33125 29.409374Q112.4875 28.39375 111.14375 28.39375Q109.94063 28.39375 109.1125 29.20625Q108.28438 30.003124 108.19063 31.3625ZM118.28438 37.55L118.28438 28.55L116.7375 28.55L116.7375 27.175L118.28438 27.175L118.28438 26.08125Q118.28438 25.034374 118.47188 24.51875Q118.72188 23.83125 119.3625 23.409374Q120.00313 22.9875 121.15938 22.9875Q121.90938 22.9875 122.8 23.159374L122.53438 24.690624Q121.9875 24.596874 121.50313 24.596874Q120.70625 24.596874 120.3625 24.940624Q120.03438 25.284374 120.03438 26.221874L120.03438 27.175L122.06563 27.175L122.06563 28.55L120.03438 28.55L120.03438 37.55L118.28438 37.55ZM130.97188 34.20625L132.78438 34.440624Q132.3625 36.01875 131.19063 36.909374Q130.03438 37.784374 128.22188 37.784374Q125.95625 37.784374 124.6125 36.39375Q123.28438 34.9875 123.28438 32.45625Q123.28438 29.83125 124.62813 28.39375Q125.97188 26.940624 128.12813 26.940624Q130.20625 26.940624 131.51875 28.3625Q132.84688 29.76875 132.84688 32.346874Q132.84688 32.503124 132.83125 32.815624L125.09688 32.815624Q125.19063 34.51875 126.06563 35.425Q126.94063 36.33125 128.2375 36.33125Q129.20625 36.33125 129.87813 35.83125Q130.56563 35.315624 130.97188 34.20625ZM125.19063 31.3625L130.9875 31.3625Q130.87813 30.065624 130.33125 29.409374Q129.4875 28.39375 128.14375 28.39375Q126.94063 28.39375 126.1125 29.20625Q125.28438 30.003124 125.19063 31.3625ZM134.84688 37.55L134.84688 27.175L136.425 27.175L136.425 28.753124Q137.03438 27.64375 137.55 27.3Q138.06563 26.940624 138.675 26.940624Q139.56563 26.940624 140.4875 27.503124L139.87813 29.14375Q139.2375 28.753124 138.59688 28.753124Q138.01875 28.753124 137.55 29.1125Q137.09688 29.45625 136.89375 30.065624Q136.6125 31.003124 136.6125 32.1125L136.6125 37.55L134.84688 37.55ZM151.70625 35.971874L151.95625 37.534374Q151.22188 37.690624 150.62813 37.690624Q149.675 37.690624 149.14375 37.39375Q148.62813 37.08125 148.40938 36.596874Q148.19063 36.096874 148.19063 34.51875L148.19063 28.55L146.90938 28.55L146.90938 27.175L148.19063 27.175L148.19063 24.6125L149.94063 23.55L149.94063 27.175L151.70625 27.175L151.70625 28.55L149.94063 28.55L149.94063 34.6125Q149.94063 35.3625 150.03438 35.58125Q150.12813 35.784374 150.33125 35.925Q150.55 36.05 150.94063 36.05Q151.22188 36.05 151.70625 35.971874ZM153.22188 32.3625Q153.22188 29.4875 154.81563 28.096874Q156.15938 26.940624 158.08125 26.940624Q160.22188 26.940624 161.56563 28.346874Q162.925 29.753124 162.925 32.221874Q162.925 34.221874 162.33125 35.378124Q161.7375 36.51875 160.58125 37.159374Q159.44063 37.784374 158.08125 37.784374Q155.89375 37.784374 154.55 36.39375Q153.22188 34.9875 153.22188 32.3625ZM155.01875 32.3625Q155.01875 34.3625 155.87813 35.346874Q156.75313 36.33125 158.08125 36.33125Q159.39375 36.33125 160.25313 35.346874Q161.12813 34.346874 161.12813 32.3Q161.12813 30.378124 160.25313 29.39375Q159.37813 28.39375 158.08125 28.39375Q156.75313 28.39375 155.87813 29.39375Q155.01875 30.378124 155.01875 32.3625ZM172.4875 37.55L170.8625 37.55L170.8625 23.2375L172.6125 23.2375L172.6125 28.346874Q173.7375 26.940624 175.45625 26.940624Q176.40938 26.940624 177.26875 27.33125Q178.12813 27.721874 178.675 28.425Q179.22188 29.1125 179.53438 30.096874Q179.84688 31.08125 179.84688 32.20625Q179.84688 34.878124 178.53438 36.33125Q177.22188 37.784374 175.37813 37.784374Q173.53438 37.784374 172.4875 36.253124L172.4875 37.55ZM172.47188 32.284374Q172.47188 34.14375 172.97188 34.9875Q173.81563 36.33125 175.22188 36.33125Q176.37813 36.33125 177.20625 35.33125Q178.05 34.33125 178.05 32.346874Q178.05 30.315624 177.2375 29.3625Q176.44063 28.39375 175.3 28.39375Q174.14375 28.39375 173.3 29.39375Q172.47188 30.39375 172.47188 32.284374ZM188.97188 34.20625L190.78438 34.440624Q190.3625 36.01875 189.19063 36.909374Q188.03438 37.784374 186.22188 37.784374Q183.95625 37.784374 182.6125 36.39375Q181.28438 34.9875 181.28438 32.45625Q181.28438 29.83125 182.62813 28.39375Q183.97188 26.940624 186.12813 26.940624Q188.20625 26.940624 189.51875 28.3625Q190.84688 29.76875 190.84688 32.346874Q190.84688 32.503124 190.83125 32.815624L183.09688 32.815624Q183.19063 34.51875 184.06563 35.425Q184.94063 36.33125 186.2375 36.33125Q187.20625 36.33125 187.87813 35.83125Q188.56563 35.315624 188.97188 34.20625ZM183.19063 31.3625L188.9875 31.3625Q188.87813 30.065624 188.33125 29.409374Q187.4875 28.39375 186.14375 28.39375Q184.94063 28.39375 184.1125 29.20625Q183.28438 30.003124 183.19063 31.3625ZM205.64375 36.26875Q204.65938 37.096874 203.75313 37.440624Q202.84688 37.784374 201.81563 37.784374Q200.1125 37.784374 199.19063 36.95625Q198.26875 36.1125 198.26875 34.815624Q198.26875 34.05 198.6125 33.425Q198.97188 32.8 199.53438 32.425Q200.09688 32.034374 200.8 31.83125Q201.31563 31.70625 202.3625 31.565624Q204.4875 31.315624 205.4875 30.971874Q205.50313 30.6125 205.50313 30.503124Q205.50313 29.440624 205.00313 28.9875Q204.33125 28.39375 203.00313 28.39375Q201.75313 28.39375 201.15938 28.83125Q200.58125 29.26875 200.3 30.378124L198.58125 30.14375Q198.81563 29.034374 199.34688 28.3625Q199.87813 27.675 200.89375 27.315624Q201.90938 26.940624 203.25313 26.940624Q204.58125 26.940624 205.40938 27.253124Q206.2375 27.565624 206.62813 28.05Q207.01875 28.51875 207.175 29.2375Q207.26875 29.690624 207.26875 30.8625L207.26875 33.20625Q207.26875 35.659374 207.37813 36.315624Q207.4875 36.95625 207.83125 37.55L205.9875 37.55Q205.72188 37.003124 205.64375 36.26875ZM205.4875 32.346874Q204.53438 32.7375 202.6125 33.003124Q201.53438 33.159374 201.08125 33.3625Q200.64375 33.55 200.39375 33.925Q200.14375 34.3 200.14375 34.76875Q200.14375 35.471874 200.675 35.940624Q201.20625 36.409374 202.2375 36.409374Q203.25313 36.409374 204.03438 35.971874Q204.83125 35.51875 205.20625 34.753124Q205.4875 34.14375 205.4875 32.9875L205.4875 32.346874ZM211.4875 37.55L209.8625 37.55L209.8625 23.2375L211.6125 23.2375L211.6125 28.346874Q212.7375 26.940624 214.45625 26.940624Q215.40938 26.940624 216.26875 27.33125Q217.12813 27.721874 217.675 28.425Q218.22188 29.1125 218.53438 30.096874Q218.84688 31.08125 218.84688 32.20625Q218.84688 34.878124 217.53438 36.33125Q216.22188 37.784374 214.37813 37.784374Q212.53438 37.784374 211.4875 36.253124L211.4875 37.55ZM211.47188 32.284374Q211.47188 34.14375 211.97188 34.9875Q212.81563 36.33125 214.22188 36.33125Q215.37813 36.33125 216.20625 35.33125Q217.05 34.33125 217.05 32.346874Q217.05 30.315624 216.2375 29.3625Q215.44063 28.39375 214.3 28.39375Q213.14375 28.39375 212.3 29.39375Q211.47188 30.39375 211.47188 32.284374ZM220.83125 37.55L220.83125 23.2375L222.58125 23.2375L222.58125 37.55L220.83125 37.55ZM231.97188 34.20625L233.78438 34.440624Q233.3625 36.01875 232.19063 36.909374Q231.03438 37.784374 229.22188 37.784374Q226.95625 37.784374 225.6125 36.39375Q224.28438 34.9875 224.28438 32.45625Q224.28438 29.83125 225.62813 28.39375Q226.97188 26.940624 229.12813 26.940624Q231.20625 26.940624 232.51875 28.3625Q233.84688 29.76875 233.84688 32.346874Q233.84688 32.503124 233.83125 32.815624L226.09688 32.815624Q226.19063 34.51875 227.06563 35.425Q227.94063 36.33125 229.2375 36.33125Q230.20625 36.33125 230.87813 35.83125Q231.56563 35.315624 231.97188 34.20625ZM226.19063 31.3625L231.9875 31.3625Q231.87813 30.065624 231.33125 29.409374Q230.4875 28.39375 229.14375 28.39375Q227.94063 28.39375 227.1125 29.20625Q226.28438 30.003124 226.19063 31.3625ZM245.70625 35.971874L245.95625 37.534374Q245.22188 37.690624 244.62813 37.690624Q243.675 37.690624 243.14375 37.39375Q242.62813 37.08125 242.40938 36.596874Q242.19063 36.096874 242.19063 34.51875L242.19063 28.55L240.90938 28.55L240.90938 27.175L242.19063 27.175L242.19063 24.6125L243.94063 23.55L243.94063 27.175L245.70625 27.175L245.70625 28.55L243.94063 28.55L243.94063 34.6125Q243.94063 35.3625 244.03438 35.58125Q244.12813 35.784374 244.33125 35.925Q244.55 36.05 244.94063 36.05Q245.22188 36.05 245.70625 35.971874ZM247.22188 32.3625Q247.22188 29.4875 248.81563 28.096874Q250.15938 26.940624 252.08125 26.940624Q254.22188 26.940624 255.56563 28.346874Q256.925 29.753124 256.925 32.221874Q256.925 34.221874 256.33124 35.378124Q255.7375 36.51875 254.58125 37.159374Q253.44063 37.784374 252.08125 37.784374Q249.89375 37.784374 248.55 36.39375Q247.22188 34.9875 247.22188 32.3625ZM249.01875 32.3625Q249.01875 34.3625 249.87813 35.346874Q250.75313 36.33125 252.08125 36.33125Q253.39375 36.33125 254.25313 35.346874Q255.12813 34.346874 255.12813 32.3Q255.12813 30.378124 254.25313 29.39375Q253.37813 28.39375 252.08125 28.39375Q250.75313 28.39375 249.87813 29.39375Q249.01875 30.378124 249.01875 32.3625ZM266.78436 37.55L263.6125 27.175L265.425 27.175L267.08124 33.159374L267.6906 35.39375Q267.7375 35.221874 268.22186 33.253124L269.8781 27.175L271.6906 27.175L273.2375 33.190624L273.7531 35.175L274.34686 33.175L276.1281 27.175L277.83124 27.175L274.59686 37.55L272.76874 37.55L271.1125 31.33125L270.72186 29.565624L268.6125 37.55L266.78436 37.55ZM286.64374 36.26875Q285.65936 37.096874 284.7531 37.440624Q283.84686 37.784374 282.8156 37.784374Q281.1125 37.784374 280.1906 36.95625Q279.26874 36.1125 279.26874 34.815624Q279.26874 34.05 279.6125 33.425Q279.97186 32.8 280.53436 32.425Q281.09686 32.034374 281.8 31.83125Q282.3156 31.70625 283.3625 31.565624Q285.4875 31.315624 286.4875 30.971874Q286.5031 30.6125 286.5031 30.503124Q286.5031 29.440624 286.0031 28.9875Q285.33124 28.39375 284.0031 28.39375Q282.7531 28.39375 282.15936 28.83125Q281.58124 29.26875 281.3 30.378124L279.58124 30.14375Q279.8156 29.034374 280.34686 28.3625Q280.8781 27.675 281.89374 27.315624Q282.90936 26.940624 284.2531 26.940624Q285.58124 26.940624 286.40936 27.253124Q287.2375 27.565624 287.6281 28.05Q288.01874 28.51875 288.175 29.2375Q288.26874 29.690624 288.26874 30.8625L288.26874 33.20625Q288.26874 35.659374 288.3781 36.315624Q288.4875 36.95625 288.83124 37.55L286.9875 37.55Q286.72186 37.003124 286.64374 36.26875ZM286.4875 32.346874Q285.53436 32.7375 283.6125 33.003124Q282.53436 33.159374 282.08124 33.3625Q281.64374 33.55 281.39374 33.925Q281.14374 34.3 281.14374 34.76875Q281.14374 35.471874 281.675 35.940624Q282.20624 36.409374 283.2375 36.409374Q284.2531 36.409374 285.03436 35.971874Q285.83124 35.51875 286.20624 34.753124Q286.4875 34.14375 286.4875 32.9875L286.4875 32.346874ZM290.83124 37.55L290.83124 23.2375L292.58124 23.2375L292.58124 37.55L290.83124 37.55ZM294.8781 37.55L294.8781 23.2375L296.64374 23.2375L296.64374 31.39375L300.8 27.175L303.0656 27.175L299.1125 31.01875L303.47186 37.55L301.3 37.55L297.8781 32.253124L296.64374 33.440624L296.64374 37.55L294.8781 37.55ZM314.70624 35.971874L314.95624 37.534374Q314.22186 37.690624 313.6281 37.690624Q312.675 37.690624 312.14374 37.39375Q311.6281 37.08125 311.40936 36.596874Q311.1906 36.096874 311.1906 34.51875L311.1906 28.55L309.90936 28.55L309.90936 27.175L311.1906 27.175L311.1906 24.6125L312.9406 23.55L312.9406 27.175L314.70624 27.175L314.70624 28.55L312.9406 28.55L312.9406 34.6125Q312.9406 35.3625 313.03436 35.58125Q313.1281 35.784374 313.33124 35.925Q313.55 36.05 313.9406 36.05Q314.22186 36.05 314.70624 35.971874ZM316.22186 32.3625Q316.22186 29.4875 317.8156 28.096874Q319.15936 26.940624 321.08124 26.940624Q323.22186 26.940624 324.5656 28.346874Q325.925 29.753124 325.925 32.221874Q325.925 34.221874 325.33124 35.378124Q324.7375 36.51875 323.58124 37.159374Q322.4406 37.784374 321.08124 37.784374Q318.89374 37.784374 317.55 36.39375Q316.22186 34.9875 316.22186 32.3625ZM318.01874 32.3625Q318.01874 34.3625 318.8781 35.346874Q319.7531 36.33125 321.08124 36.33125Q322.39374 36.33125 323.2531 35.346874Q324.1281 34.346874 324.1281 32.3Q324.1281 30.378124 323.2531 29.39375Q322.3781 28.39375 321.08124 28.39375Q319.7531 28.39375 318.8781 29.39375Q318.01874 30.378124 318.01874 32.3625ZM333.55 38.409374L335.2531 38.659374Q335.3625 39.45625 335.84686 39.815624Q336.5031 40.3 337.64374 40.3Q338.8625 40.3 339.51874 39.815624Q340.1906 39.33125 340.425 38.45625Q340.5656 37.909374 340.55 36.190624Q339.39374 37.55 337.675 37.55Q335.53436 37.55 334.3625 36.003124Q333.1906 34.45625 333.1906 32.3Q333.1906 30.815624 333.72186 29.565624Q334.26874 28.315624 335.28436 27.628124Q336.3156 26.940624 337.6906 26.940624Q339.51874 26.940624 340.72186 28.425L340.72186 27.175L342.33124 27.175L342.33124 36.14375Q342.33124 38.565624 341.83124 39.565624Q341.34686 40.58125 340.26874 41.159374Q339.20624 41.753124 337.64374 41.753124Q335.8 41.753124 334.64374 40.925Q333.5031 40.096874 333.55 38.409374ZM335.0031 32.175Q335.0031 34.221874 335.8156 35.159374Q336.6281 36.096874 337.84686 36.096874Q339.05 36.096874 339.8625 35.159374Q340.6906 34.221874 340.6906 32.2375Q340.6906 30.33125 339.84686 29.3625Q339.0031 28.39375 337.8156 28.39375Q336.64374 28.39375 335.8156 29.346874Q335.0031 30.3 335.0031 32.175ZM351.97186 34.20625L353.78436 34.440624Q353.3625 36.01875 352.1906 36.909374Q351.03436 37.784374 349.22186 37.784374Q346.95624 37.784374 345.6125 36.39375Q344.28436 34.9875 344.28436 32.45625Q344.28436 29.83125 345.6281 28.39375Q346.97186 26.940624 349.1281 26.940624Q351.20624 26.940624 352.51874 28.3625Q353.84686 29.76875 353.84686 32.346874Q353.84686 32.503124 353.83124 32.815624L346.09686 32.815624Q346.1906 34.51875 347.0656 35.425Q347.9406 36.33125 349.2375 36.33125Q350.20624 36.33125 350.8781 35.83125Q351.5656 35.315624 351.97186 34.20625ZM346.1906 31.3625L351.9875 31.3625Q351.8781 30.065624 351.33124 29.409374Q350.4875 28.39375 349.14374 28.39375Q347.9406 28.39375 347.1125 29.20625Q346.28436 30.003124 346.1906 31.3625ZM359.70624 35.971874L359.95624 37.534374Q359.22186 37.690624 358.6281 37.690624Q357.675 37.690624 357.14374 37.39375Q356.6281 37.08125 356.40936 36.596874Q356.1906 36.096874 356.1906 34.51875L356.1906 28.55L354.90936 28.55L354.90936 27.175L356.1906 27.175L356.1906 24.6125L357.9406 23.55L357.9406 27.175L359.70624 27.175L359.70624 28.55L357.9406 28.55L357.9406 34.6125Q357.9406 35.3625 358.03436 35.58125Q358.1281 35.784374 358.33124 35.925Q358.55 36.05 358.9406 36.05Q359.22186 36.05 359.70624 35.971874ZM368.28436 37.55L368.28436 28.55L366.7375 28.55L366.7375 27.175L368.28436 27.175L368.28436 26.08125Q368.28436 25.034374 368.47186 24.51875Q368.72186 23.83125 369.3625 23.409374Q370.0031 22.9875 371.15936 22.9875Q371.90936 22.9875 372.8 23.159374L372.53436 24.690624Q371.9875 24.596874 371.5031 24.596874Q370.70624 24.596874 370.3625 24.940624Q370.03436 25.284374 370.03436 26.221874L370.03436 27.175L372.0656 27.175L372.0656 28.55L370.03436 28.55L370.03436 37.55L368.28436 37.55ZM373.22186 32.3625Q373.22186 29.4875 374.8156 28.096874Q376.15936 26.940624 378.08124 26.940624Q380.22186 26.940624 381.5656 28.346874Q382.925 29.753124 382.925 32.221874Q382.925 34.221874 382.33124 35.378124Q381.7375 36.51875 380.58124 37.159374Q379.4406 37.784374 378.08124 37.784374Q375.89374 37.784374 374.55 36.39375Q373.22186 34.9875 373.22186 32.3625ZM375.01874 32.3625Q375.01874 34.3625 375.8781 35.346874Q376.7531 36.33125 378.08124 36.33125Q379.39374 36.33125 380.2531 35.346874Q381.1281 34.346874 381.1281 32.3Q381.1281 30.378124 380.2531 29.39375Q379.3781 28.39375 378.08124 28.39375Q376.7531 28.39375 375.8781 29.39375Q375.01874 30.378124 375.01874 32.3625ZM384.22186 32.3625Q384.22186 29.4875 385.8156 28.096874Q387.15936 26.940624 389.08124 26.940624Q391.22186 26.940624 392.5656 28.346874Q393.925 29.753124 393.925 32.221874Q393.925 34.221874 393.33124 35.378124Q392.7375 36.51875 391.58124 37.159374Q390.4406 37.784374 389.08124 37.784374Q386.89374 37.784374 385.55 36.39375Q384.22186 34.9875 384.22186 32.3625ZM386.01874 32.3625Q386.01874 34.3625 386.8781 35.346874Q387.7531 36.33125 389.08124 36.33125Q390.39374 36.33125 391.2531 35.346874Q392.1281 34.346874 392.1281 32.3Q392.1281 30.378124 391.2531 29.39375Q390.3781 28.39375 389.08124 28.39375Q387.7531 28.39375 386.8781 29.39375Q386.01874 30.378124 386.01874 32.3625ZM402.59686 37.55L402.59686 36.2375Q401.6125 37.784374 399.6906 37.784374Q398.45624 37.784374 397.40936 37.096874Q396.3781 36.409374 395.8 35.190624Q395.2375 33.971874 395.2375 32.378124Q395.2375 30.815624 395.7531 29.55Q396.26874 28.284374 397.3 27.6125Q398.34686 26.940624 399.6125 26.940624Q400.55 26.940624 401.28436 27.346874Q402.01874 27.7375 402.4875 28.3625L402.4875 23.2375L404.22186 23.2375L404.22186 37.55L402.59686 37.55ZM397.03436 32.378124Q397.03436 34.3625 397.8781 35.346874Q398.72186 36.33125 399.8625 36.33125Q401.01874 36.33125 401.8156 35.39375Q402.6281 34.45625 402.6281 32.51875Q402.6281 30.39375 401.8 29.39375Q400.9875 28.39375 399.78436 28.39375Q398.6125 28.39375 397.8156 29.3625Q397.03436 30.315624 397.03436 32.378124ZM405.55 37.8L409.70624 22.9875L411.1125 22.9875L406.97186 37.8L405.55 37.8ZM412.15936 34.45625L413.90936 34.175Q414.05 35.221874 414.72186 35.784374Q415.39374 36.33125 416.59686 36.33125Q417.8 36.33125 418.3781 35.846874Q418.97186 35.346874 418.97186 34.690624Q418.97186 34.096874 418.45624 33.753124Q418.09686 33.51875 416.65936 33.159374Q414.72186 32.659374 413.97186 32.315624Q413.2375 31.95625 412.84686 31.33125Q412.45624 30.690624 412.45624 29.925Q412.45624 29.2375 412.76874 28.64375Q413.09686 28.05 413.64374 27.659374Q414.05 27.3625 414.7531 27.159374Q415.47186 26.940624 416.28436 26.940624Q417.5031 26.940624 418.425 27.3Q419.34686 27.64375 419.78436 28.253124Q420.22186 28.846874 420.39374 29.846874L418.675 30.08125Q418.55 29.284374 417.9875 28.846874Q417.425 28.39375 416.40936 28.39375Q415.1906 28.39375 414.675 28.8Q414.15936 29.190624 414.15936 29.721874Q414.15936 30.065624 414.3781 30.346874Q414.58124 30.628124 415.05 30.815624Q415.3156 30.909374 416.59686 31.253124Q418.47186 31.753124 419.20624 32.08125Q419.9406 32.39375 420.3625 33.003124Q420.78436 33.596874 420.78436 34.503124Q420.78436 35.378124 420.26874 36.159374Q419.7531 36.940624 418.78436 37.3625Q417.8156 37.784374 416.59686 37.784374Q414.58124 37.784374 413.51874 36.940624Q412.45624 36.096874 412.15936 34.45625ZM422.8625 37.55L422.8625 23.2375L424.6281 23.2375L424.6281 28.3625Q425.8625 26.940624 427.7375 26.940624Q428.8781 26.940624 429.72186 27.39375Q430.58124 27.846874 430.9406 28.659374Q431.3156 29.45625 431.3156 30.971874L431.3156 37.55L429.5656 37.55L429.5656 30.971874Q429.5656 29.659374 428.9875 29.065624Q428.40936 28.45625 427.3781 28.45625Q426.59686 28.45625 425.89374 28.8625Q425.20624 29.26875 424.90936 29.971874Q424.6281 30.659374 424.6281 31.878124L424.6281 37.55L422.8625 37.55ZM432.22186 32.3625Q432.22186 29.4875 433.8156 28.096874Q435.15936 26.940624 437.08124 26.940624Q439.22186 26.940624 440.5656 28.346874Q441.925 29.753124 441.925 32.221874Q441.925 34.221874 441.33124 35.378124Q440.7375 36.51875 439.58124 37.159374Q438.4406 37.784374 437.08124 37.784374Q434.89374 37.784374 433.55 36.39375Q432.22186 34.9875 432.22186 32.3625ZM434.01874 32.3625Q434.01874 34.3625 434.8781 35.346874Q435.7531 36.33125 437.08124 36.33125Q438.39374 36.33125 439.2531 35.346874Q440.1281 34.346874 440.1281 32.3Q440.1281 30.378124 439.2531 29.39375Q438.3781 28.39375 437.08124 28.39375Q435.7531 28.39375 434.8781 29.39375Q434.01874 30.378124 434.01874 32.3625ZM443.8625 41.51875L443.8625 27.175L445.47186 27.175L445.47186 28.51875Q446.03436 27.7375 446.7375 27.346874Q447.45624 26.940624 448.47186 26.940624Q449.8 26.940624 450.8156 27.628124Q451.83124 28.315624 452.34686 29.565624Q452.8781 30.8 452.8781 32.284374Q452.8781 33.878124 452.3 35.159374Q451.7375 36.425 450.64374 37.1125Q449.55 37.784374 448.34686 37.784374Q447.47186 37.784374 446.76874 37.409374Q446.08124 37.034374 445.6281 36.471874L445.6281 41.51875L443.8625 41.51875ZM445.45624 32.425Q445.45624 34.425 446.26874 35.378124Q447.08124 36.33125 448.2375 36.33125Q449.40936 36.33125 450.2375 35.346874Q451.08124 34.3625 451.08124 32.26875Q451.08124 30.3 450.2531 29.315624Q449.4406 28.315624 448.3156 28.315624Q447.1906 28.315624 446.3156 29.378124Q445.45624 30.425 445.45624 32.425Z" fill-rule="nonzero"/></svg>