<svg id="Layer_1" data-name="Layer 1" xmlns="http://www.w3.org/2000/svg" viewBox="0 0 11.73 10.52"><defs><style>.cls-1{fill:#63bc46;}.cls-2{fill:#fff;}</style></defs><path class="cls-1" d="M8.11,0H3.6A1.36,1.36,0,0,0,2.43.67L.17,4.58a1.36,1.36,0,0,0,0,1.35L2.43,9.84a1.35,1.35,0,0,0,1.17.68H8.11a1.34,1.34,0,0,0,1.17-.68l2.26-3.91a1.36,1.36,0,0,0,0-1.35L9.28.67A1.35,1.35,0,0,0,8.11,0Z" transform="translate(0.01)"/><path class="cls-2" d="M2.57,1.68a.23.23,0,0,0-.1.19V8.65a.22.22,0,0,0,.22.22H4.05a.22.22,0,0,0,.22-.22V8h.46v.68A.22.22,0,0,0,5,8.87H9a.22.22,0,0,0,.23-.22V6.16A.23.23,0,0,0,9.09,6L6.53,5.1V3.68a.22.22,0,0,0-.12-.21L2.79,1.67A.2.2,0,0,0,2.57,1.68Zm4,3.89,2.26.75v2.1H6.53ZM6.08,8.42h-.9V7.74A.22.22,0,0,0,5,7.52h-.9a.22.22,0,0,0-.23.22v.68h-.9V2.23L6.08,3.82Z" transform="translate(0.01)"/><path class="cls-2" d="M8.34,6.61H7.89v.46h.45Zm-.9,0H7v.46h.45Zm.9.91H7.89V8h.45Zm-.9,0H7V8h.45ZM5.63,5.71H5.18v.45h.45Zm-.9,0H4.27v.45h.46Zm.9.9H5.18v.46h.45Zm-.9,0H4.27v.46h.46Zm-.91-.9H3.37v.45h.45Zm0,.9H3.37v.46h.45Zm1.81-1.8H5.18v.45h.45Zm-.9,0H4.27v.45h.46Zm-.91,0H3.37v.45h.45ZM5.63,3.9H5.18v.45h.45Zm-.9,0H4.27v.45h.46Zm-.91,0H3.37v.45h.45Zm0-.9H3.37v.45h.45Z" transform="translate(0.01)"/></svg>