<svg version="1.1" viewBox="0.0 0.0 600.0 371.0" fill="none" stroke="none" stroke-linecap="square" stroke-miterlimit="10" width="600" height="371" xmlns:xlink="http://www.w3.org/1999/xlink" xmlns="http://www.w3.org/2000/svg"><path fill="#ffffff" d="M0 0L600.0 0L600.0 371.0L0 371.0L0 0Z" fill-rule="nonzero"/><path stroke="#333333" stroke-width="1.0" stroke-linecap="butt" d="M77.5 345.5L581.5 345.5" fill-rule="nonzero"/><path stroke="#cccccc" stroke-width="1.0" stroke-linecap="butt" d="M77.5 280.5L581.5 280.5" fill-rule="nonzero"/><path stroke="#cccccc" stroke-width="1.0" stroke-linecap="butt" d="M77.5 215.5L581.5 215.5" fill-rule="nonzero"/><path stroke="#cccccc" stroke-width="1.0" stroke-linecap="butt" d="M77.5 150.5L581.5 150.5" fill-rule="nonzero"/><path stroke="#cccccc" stroke-width="1.0" stroke-linecap="butt" d="M77.5 85.5L581.5 85.5" fill-rule="nonzero"/><clipPath id="id_0"><path d="M77.55 85.416664L581.45 85.416664L581.45 345.45L77.55 345.45L77.55 85.416664Z" clip-rule="nonzero"/></clipPath><path stroke="#000000" stroke-width="2.0" stroke-linecap="butt" stroke-opacity="0.0" clip-path="url(#id_0)" d="M89.0 345.0L82.0 345.0L82.0 315.0C82.0 313.89542 82.89543 313.0 84.0 313.0L87.0 313.0C88.10457 313.0 89.0 313.89542 89.0 315.0Z" fill-rule="nonzero"/><path fill="#4285f4" clip-path="url(#id_0)" d="M89.0 345.0L82.0 345.0L82.0 315.0C82.0 313.89542 82.89543 313.0 84.0 313.0L87.0 313.0C88.10457 313.0 89.0 313.89542 89.0 315.0Z" fill-rule="nonzero"/><path stroke="#000000" stroke-width="2.0" stroke-linecap="butt" stroke-opacity="0.0" clip-path="url(#id_0)" d="M99.0 345.0L92.0 345.0L92.0 282.0C92.0 280.89542 92.89543 280.0 94.0 280.0L97.0 280.0C98.10457 280.0 99.0 280.89542 99.0 282.0Z" fill-rule="nonzero"/><path fill="#4285f4" clip-path="url(#id_0)" d="M99.0 345.0L92.0 345.0L92.0 282.0C92.0 280.89542 92.89543 280.0 94.0 280.0L97.0 280.0C98.10457 280.0 99.0 280.89542 99.0 282.0Z" fill-rule="nonzero"/><path stroke="#000000" stroke-width="2.0" stroke-linecap="butt" stroke-opacity="0.0" clip-path="url(#id_0)" d="M110.0 345.0L103.0 345.0L103.0 315.0C103.0 313.89542 103.89543 313.0 105.0 313.0L108.0 313.0C109.10457 313.0 110.0 313.89542 110.0 315.0Z" fill-rule="nonzero"/><path fill="#4285f4" clip-path="url(#id_0)" d="M110.0 345.0L103.0 345.0L103.0 315.0C103.0 313.89542 103.89543 313.0 105.0 313.0L108.0 313.0C109.10457 313.0 110.0 313.89542 110.0 315.0Z" fill-rule="nonzero"/><path stroke="#000000" stroke-width="2.0" stroke-linecap="butt" stroke-opacity="0.0" clip-path="url(#id_0)" d="M121.0 345.0L114.0 345.0L114.0 282.0C114.0 280.89542 114.89543 280.0 116.0 280.0L119.0 280.0C120.10457 280.0 121.0 280.89542 121.0 282.0Z" fill-rule="nonzero"/><path fill="#4285f4" clip-path="url(#id_0)" d="M121.0 345.0L114.0 345.0L114.0 282.0C114.0 280.89542 114.89543 280.0 116.0 280.0L119.0 280.0C120.10457 280.0 121.0 280.89542 121.0 282.0Z" fill-rule="nonzero"/><path stroke="#000000" stroke-width="2.0" stroke-linecap="butt" stroke-opacity="0.0" clip-path="url(#id_0)" d="M131.0 345.0L124.0 345.0L124.0 325.0C124.0 323.89542 124.89543 323.0 126.0 323.0L129.0 323.0C130.10457 323.0 131.0 323.89542 131.0 325.0Z" fill-rule="nonzero"/><path fill="#4285f4" clip-path="url(#id_0)" d="M131.0 345.0L124.0 345.0L124.0 325.0C124.0 323.89542 124.89543 323.0 126.0 323.0L129.0 323.0C130.10457 323.0 131.0 323.89542 131.0 325.0Z" fill-rule="nonzero"/><path stroke="#000000" stroke-width="2.0" stroke-linecap="butt" stroke-opacity="0.0" clip-path="url(#id_0)" d="M142.0 345.0L135.0 345.0L135.0 201.0C135.0 199.89543 135.89543 199.0 137.0 199.0L140.0 199.0C141.10457 199.0 142.0 199.89543 142.0 201.0Z" fill-rule="nonzero"/><path fill="#4285f4" clip-path="url(#id_0)" d="M142.0 345.0L135.0 345.0L135.0 201.0C135.0 199.89543 135.89543 199.0 137.0 199.0L140.0 199.0C141.10457 199.0 142.0 199.89543 142.0 201.0Z" fill-rule="nonzero"/><path stroke="#000000" stroke-width="2.0" stroke-linecap="butt" stroke-opacity="0.0" clip-path="url(#id_0)" d="M153.0 345.0L146.0 345.0L146.0 250.0C146.0 248.89543 146.89543 248.0 148.0 248.0L151.0 248.0C152.10457 248.0 153.0 248.89543 153.0 250.0Z" fill-rule="nonzero"/><path fill="#4285f4" clip-path="url(#id_0)" d="M153.0 345.0L146.0 345.0L146.0 250.0C146.0 248.89543 146.89543 248.0 148.0 248.0L151.0 248.0C152.10457 248.0 153.0 248.89543 153.0 250.0Z" fill-rule="nonzero"/><path stroke="#000000" stroke-width="2.0" stroke-linecap="butt" stroke-opacity="0.0" clip-path="url(#id_0)" d="M163.0 345.0L156.0 345.0L156.0 266.0C156.0 264.89542 156.89543 264.0 158.0 264.0L161.0 264.0C162.10457 264.0 163.0 264.89542 163.0 266.0Z" fill-rule="nonzero"/><path fill="#4285f4" clip-path="url(#id_0)" d="M163.0 345.0L156.0 345.0L156.0 266.0C156.0 264.89542 156.89543 264.0 158.0 264.0L161.0 264.0C162.10457 264.0 163.0 264.89542 163.0 266.0Z" fill-rule="nonzero"/><path stroke="#000000" stroke-width="2.0" stroke-linecap="butt" stroke-opacity="0.0" clip-path="url(#id_0)" d="M174.0 345.0L167.0 345.0L167.0 250.0C167.0 248.89543 167.89543 248.0 169.0 248.0L172.0 248.0C173.10457 248.0 174.0 248.89543 174.0 250.0Z" fill-rule="nonzero"/><path fill="#4285f4" clip-path="url(#id_0)" d="M174.0 345.0L167.0 345.0L167.0 250.0C167.0 248.89543 167.89543 248.0 169.0 248.0L172.0 248.0C173.10457 248.0 174.0 248.89543 174.0 250.0Z" fill-rule="nonzero"/><path stroke="#000000" stroke-width="2.0" stroke-linecap="butt" stroke-opacity="0.0" clip-path="url(#id_0)" d="M185.0 345.0L178.0 345.0L178.0 299.0C178.0 297.89542 178.89543 297.0 180.0 297.0L183.0 297.0C184.10457 297.0 185.0 297.89542 185.0 299.0Z" fill-rule="nonzero"/><path fill="#4285f4" clip-path="url(#id_0)" d="M185.0 345.0L178.0 345.0L178.0 299.0C178.0 297.89542 178.89543 297.0 180.0 297.0L183.0 297.0C184.10457 297.0 185.0 297.89542 185.0 299.0Z" fill-rule="nonzero"/><path stroke="#000000" stroke-width="2.0" stroke-linecap="butt" stroke-opacity="0.0" clip-path="url(#id_0)" d="M195.0 345.0L188.0 345.0L188.0 250.0C188.0 248.89543 188.89543 248.0 190.0 248.0L193.0 248.0C194.10457 248.0 195.0 248.89543 195.0 250.0Z" fill-rule="nonzero"/><path fill="#4285f4" clip-path="url(#id_0)" d="M195.0 345.0L188.0 345.0L188.0 250.0C188.0 248.89543 188.89543 248.0 190.0 248.0L193.0 248.0C194.10457 248.0 195.0 248.89543 195.0 250.0Z" fill-rule="nonzero"/><path stroke="#000000" stroke-width="2.0" stroke-linecap="butt" stroke-opacity="0.0" clip-path="url(#id_0)" d="M206.0 345.0L199.0 345.0L199.0 274.0C199.0 272.89542 199.89543 272.0 201.0 272.0L204.0 272.0C205.10457 272.0 206.0 272.89542 206.0 274.0Z" fill-rule="nonzero"/><path fill="#4285f4" clip-path="url(#id_0)" d="M206.0 345.0L199.0 345.0L199.0 274.0C199.0 272.89542 199.89543 272.0 201.0 272.0L204.0 272.0C205.10457 272.0 206.0 272.89542 206.0 274.0Z" fill-rule="nonzero"/><path stroke="#000000" stroke-width="2.0" stroke-linecap="butt" stroke-opacity="0.0" clip-path="url(#id_0)" d="M216.0 345.0L209.0 345.0L209.0 321.0C209.0 319.89542 209.89543 319.0 211.0 319.0L214.0 319.0C215.10457 319.0 216.0 319.89542 216.0 321.0Z" fill-rule="nonzero"/><path fill="#4285f4" clip-path="url(#id_0)" d="M216.0 345.0L209.0 345.0L209.0 321.0C209.0 319.89542 209.89543 319.0 211.0 319.0L214.0 319.0C215.10457 319.0 216.0 319.89542 216.0 321.0Z" fill-rule="nonzero"/><path stroke="#000000" stroke-width="2.0" stroke-linecap="butt" stroke-opacity="0.0" clip-path="url(#id_0)" d="M227.0 345.0L220.0 345.0L220.0 308.0C220.0 306.89542 220.89543 306.0 222.0 306.0L225.0 306.0C226.10457 306.0 227.0 306.89542 227.0 308.0Z" fill-rule="nonzero"/><path fill="#4285f4" clip-path="url(#id_0)" d="M227.0 345.0L220.0 345.0L220.0 308.0C220.0 306.89542 220.89543 306.0 222.0 306.0L225.0 306.0C226.10457 306.0 227.0 306.89542 227.0 308.0Z" fill-rule="nonzero"/><path stroke="#000000" stroke-width="2.0" stroke-linecap="butt" stroke-opacity="0.0" clip-path="url(#id_0)" d="M238.0 345.0L231.0 345.0L231.0 282.0C231.0 280.89542 231.89543 280.0 233.0 280.0L236.0 280.0C237.10457 280.0 238.0 280.89542 238.0 282.0Z" fill-rule="nonzero"/><path fill="#4285f4" clip-path="url(#id_0)" d="M238.0 345.0L231.0 345.0L231.0 282.0C231.0 280.89542 231.89543 280.0 233.0 280.0L236.0 280.0C237.10457 280.0 238.0 280.89542 238.0 282.0Z" fill-rule="nonzero"/><path stroke="#000000" stroke-width="2.0" stroke-linecap="butt" stroke-opacity="0.0" clip-path="url(#id_0)" d="M248.0 345.0L241.0 345.0L241.0 250.0C241.0 248.89543 241.89543 248.0 243.0 248.0L246.0 248.0C247.10457 248.0 248.0 248.89543 248.0 250.0Z" fill-rule="nonzero"/><path fill="#4285f4" clip-path="url(#id_0)" d="M248.0 345.0L241.0 345.0L241.0 250.0C241.0 248.89543 241.89543 248.0 243.0 248.0L246.0 248.0C247.10457 248.0 248.0 248.89543 248.0 250.0Z" fill-rule="nonzero"/><path stroke="#000000" stroke-width="2.0" stroke-linecap="butt" stroke-opacity="0.0" clip-path="url(#id_0)" d="M259.0 345.0L252.0 345.0L252.0 104.0C252.0 102.89543 252.89543 102.0 254.0 102.0L257.0 102.0C258.10458 102.0 259.0 102.89543 259.0 104.0Z" fill-rule="nonzero"/><path fill="#4285f4" clip-path="url(#id_0)" d="M259.0 345.0L252.0 345.0L252.0 104.0C252.0 102.89543 252.89543 102.0 254.0 102.0L257.0 102.0C258.10458 102.0 259.0 102.89543 259.0 104.0Z" fill-rule="nonzero"/><path stroke="#000000" stroke-width="2.0" stroke-linecap="butt" stroke-opacity="0.0" clip-path="url(#id_0)" d="M270.0 345.0L263.0 345.0L263.0 217.0C263.0 215.89543 263.89542 215.0 265.0 215.0L268.0 215.0C269.10458 215.0 270.0 215.89543 270.0 217.0Z" fill-rule="nonzero"/><path fill="#4285f4" clip-path="url(#id_0)" d="M270.0 345.0L263.0 345.0L263.0 217.0C263.0 215.89543 263.89542 215.0 265.0 215.0L268.0 215.0C269.10458 215.0 270.0 215.89543 270.0 217.0Z" fill-rule="nonzero"/><path stroke="#000000" stroke-width="2.0" stroke-linecap="butt" stroke-opacity="0.0" clip-path="url(#id_0)" d="M280.0 345.0L273.0 345.0L273.0 258.0C273.0 256.89542 273.89542 256.0 275.0 256.0L278.0 256.0C279.10458 256.0 280.0 256.89542 280.0 258.0Z" fill-rule="nonzero"/><path fill="#4285f4" clip-path="url(#id_0)" d="M280.0 345.0L273.0 345.0L273.0 258.0C273.0 256.89542 273.89542 256.0 275.0 256.0L278.0 256.0C279.10458 256.0 280.0 256.89542 280.0 258.0Z" fill-rule="nonzero"/><path stroke="#000000" stroke-width="2.0" stroke-linecap="butt" stroke-opacity="0.0" clip-path="url(#id_0)" d="M291.0 345.0L284.0 345.0L284.0 307.0C284.0 305.89542 284.89542 305.0 286.0 305.0L289.0 305.0C290.10458 305.0 291.0 305.89542 291.0 307.0Z" fill-rule="nonzero"/><path fill="#4285f4" clip-path="url(#id_0)" d="M291.0 345.0L284.0 345.0L284.0 307.0C284.0 305.89542 284.89542 305.0 286.0 305.0L289.0 305.0C290.10458 305.0 291.0 305.89542 291.0 307.0Z" fill-rule="nonzero"/><path stroke="#000000" stroke-width="2.0" stroke-linecap="butt" stroke-opacity="0.0" clip-path="url(#id_0)" d="M302.0 345.0L295.0 345.0L295.0 250.0C295.0 248.89543 295.89542 248.0 297.0 248.0L300.0 248.0C301.10458 248.0 302.0 248.89543 302.0 250.0Z" fill-rule="nonzero"/><path fill="#4285f4" clip-path="url(#id_0)" d="M302.0 345.0L295.0 345.0L295.0 250.0C295.0 248.89543 295.89542 248.0 297.0 248.0L300.0 248.0C301.10458 248.0 302.0 248.89543 302.0 250.0Z" fill-rule="nonzero"/><path stroke="#000000" stroke-width="2.0" stroke-linecap="butt" stroke-opacity="0.0" clip-path="url(#id_0)" d="M312.0 345.0L305.0 345.0L305.0 226.0C305.0 224.89543 305.89542 224.0 307.0 224.0L310.0 224.0C311.10458 224.0 312.0 224.89543 312.0 226.0Z" fill-rule="nonzero"/><path fill="#4285f4" clip-path="url(#id_0)" d="M312.0 345.0L305.0 345.0L305.0 226.0C305.0 224.89543 305.89542 224.0 307.0 224.0L310.0 224.0C311.10458 224.0 312.0 224.89543 312.0 226.0Z" fill-rule="nonzero"/><path stroke="#000000" stroke-width="2.0" stroke-linecap="butt" stroke-opacity="0.0" clip-path="url(#id_0)" d="M323.0 345.0L316.0 345.0L316.0 299.0C316.0 297.89542 316.89542 297.0 318.0 297.0L321.0 297.0C322.10458 297.0 323.0 297.89542 323.0 299.0Z" fill-rule="nonzero"/><path fill="#4285f4" clip-path="url(#id_0)" d="M323.0 345.0L316.0 345.0L316.0 299.0C316.0 297.89542 316.89542 297.0 318.0 297.0L321.0 297.0C322.10458 297.0 323.0 297.89542 323.0 299.0Z" fill-rule="nonzero"/><path stroke="#000000" stroke-width="2.0" stroke-linecap="butt" stroke-opacity="0.0" clip-path="url(#id_0)" d="M334.0 345.0L327.0 345.0L327.0 201.0C327.0 199.89543 327.89542 199.0 329.0 199.0L332.0 199.0C333.10458 199.0 334.0 199.89543 334.0 201.0Z" fill-rule="nonzero"/><path fill="#4285f4" clip-path="url(#id_0)" d="M334.0 345.0L327.0 345.0L327.0 201.0C327.0 199.89543 327.89542 199.0 329.0 199.0L332.0 199.0C333.10458 199.0 334.0 199.89543 334.0 201.0Z" fill-rule="nonzero"/><path stroke="#000000" stroke-width="2.0" stroke-linecap="butt" stroke-opacity="0.0" clip-path="url(#id_0)" d="M344.0 345.0L337.0 345.0L337.0 282.0C337.0 280.89542 337.89542 280.0 339.0 280.0L342.0 280.0C343.10458 280.0 344.0 280.89542 344.0 282.0Z" fill-rule="nonzero"/><path fill="#4285f4" clip-path="url(#id_0)" d="M344.0 345.0L337.0 345.0L337.0 282.0C337.0 280.89542 337.89542 280.0 339.0 280.0L342.0 280.0C343.10458 280.0 344.0 280.89542 344.0 282.0Z" fill-rule="nonzero"/><path stroke="#000000" stroke-width="2.0" stroke-linecap="butt" stroke-opacity="0.0" clip-path="url(#id_0)" d="M355.0 345.0L348.0 345.0L348.0 315.0C348.0 313.89542 348.89542 313.0 350.0 313.0L353.0 313.0C354.10458 313.0 355.0 313.89542 355.0 315.0Z" fill-rule="nonzero"/><path fill="#4285f4" clip-path="url(#id_0)" d="M355.0 345.0L348.0 345.0L348.0 315.0C348.0 313.89542 348.89542 313.0 350.0 313.0L353.0 313.0C354.10458 313.0 355.0 313.89542 355.0 315.0Z" fill-rule="nonzero"/><path stroke="#000000" stroke-width="2.0" stroke-linecap="butt" stroke-opacity="0.0" clip-path="url(#id_0)" d="M365.0 345.0L358.0 345.0L358.0 201.0C358.0 199.89543 358.89542 199.0 360.0 199.0L363.0 199.0C364.10458 199.0 365.0 199.89543 365.0 201.0Z" fill-rule="nonzero"/><path fill="#4285f4" clip-path="url(#id_0)" d="M365.0 345.0L358.0 345.0L358.0 201.0C358.0 199.89543 358.89542 199.0 360.0 199.0L363.0 199.0C364.10458 199.0 365.0 199.89543 365.0 201.0Z" fill-rule="nonzero"/><path stroke="#000000" stroke-width="2.0" stroke-linecap="butt" stroke-opacity="0.0" clip-path="url(#id_0)" d="M376.0 345.0L369.0 345.0L369.0 266.0C369.0 264.89542 369.89542 264.0 371.0 264.0L374.0 264.0C375.10458 264.0 376.0 264.89542 376.0 266.0Z" fill-rule="nonzero"/><path fill="#4285f4" clip-path="url(#id_0)" d="M376.0 345.0L369.0 345.0L369.0 266.0C369.0 264.89542 369.89542 264.0 371.0 264.0L374.0 264.0C375.10458 264.0 376.0 264.89542 376.0 266.0Z" fill-rule="nonzero"/><path stroke="#000000" stroke-width="2.0" stroke-linecap="butt" stroke-opacity="0.0" clip-path="url(#id_0)" d="M387.0 345.0L380.0 345.0L380.0 325.0C380.0 323.89542 380.89542 323.0 382.0 323.0L385.0 323.0C386.10458 323.0 387.0 323.89542 387.0 325.0Z" fill-rule="nonzero"/><path fill="#4285f4" clip-path="url(#id_0)" d="M387.0 345.0L380.0 345.0L380.0 325.0C380.0 323.89542 380.89542 323.0 382.0 323.0L385.0 323.0C386.10458 323.0 387.0 323.89542 387.0 325.0Z" fill-rule="nonzero"/><path stroke="#000000" stroke-width="2.0" stroke-linecap="butt" stroke-opacity="0.0" clip-path="url(#id_0)" d="M397.0 345.0L390.0 345.0L390.0 234.0C390.0 232.89543 390.89542 232.0 392.0 232.0L395.0 232.0C396.10458 232.0 397.0 232.89543 397.0 234.0Z" fill-rule="nonzero"/><path fill="#4285f4" clip-path="url(#id_0)" d="M397.0 345.0L390.0 345.0L390.0 234.0C390.0 232.89543 390.89542 232.0 392.0 232.0L395.0 232.0C396.10458 232.0 397.0 232.89543 397.0 234.0Z" fill-rule="nonzero"/><path stroke="#000000" stroke-width="2.0" stroke-linecap="butt" stroke-opacity="0.0" clip-path="url(#id_0)" d="M408.0 345.0L401.0 345.0L401.0 299.0C401.0 297.89542 401.89542 297.0 403.0 297.0L406.0 297.0C407.10458 297.0 408.0 297.89542 408.0 299.0Z" fill-rule="nonzero"/><path fill="#4285f4" clip-path="url(#id_0)" d="M408.0 345.0L401.0 345.0L401.0 299.0C401.0 297.89542 401.89542 297.0 403.0 297.0L406.0 297.0C407.10458 297.0 408.0 297.89542 408.0 299.0Z" fill-rule="nonzero"/><path stroke="#000000" stroke-width="2.0" stroke-linecap="butt" stroke-opacity="0.0" clip-path="url(#id_0)" d="M419.0 345.0L412.0 345.0L412.0 217.0C412.0 215.89543 412.89542 215.0 414.0 215.0L417.0 215.0C418.10458 215.0 419.0 215.89543 419.0 217.0Z" fill-rule="nonzero"/><path fill="#4285f4" clip-path="url(#id_0)" d="M419.0 345.0L412.0 345.0L412.0 217.0C412.0 215.89543 412.89542 215.0 414.0 215.0L417.0 215.0C418.10458 215.0 419.0 215.89543 419.0 217.0Z" fill-rule="nonzero"/><path stroke="#000000" stroke-width="2.0" stroke-linecap="butt" stroke-opacity="0.0" clip-path="url(#id_0)" d="M429.0 345.0L422.0 345.0L422.0 299.0C422.0 297.89542 422.89542 297.0 424.0 297.0L427.0 297.0C428.10458 297.0 429.0 297.89542 429.0 299.0Z" fill-rule="nonzero"/><path fill="#4285f4" clip-path="url(#id_0)" d="M429.0 345.0L422.0 345.0L422.0 299.0C422.0 297.89542 422.89542 297.0 424.0 297.0L427.0 297.0C428.10458 297.0 429.0 297.89542 429.0 299.0Z" fill-rule="nonzero"/><path stroke="#000000" stroke-width="2.0" stroke-linecap="butt" stroke-opacity="0.0" clip-path="url(#id_0)" d="M440.0 345.0L433.0 345.0L433.0 299.0C433.0 297.89542 433.89542 297.0 435.0 297.0L438.0 297.0C439.10458 297.0 440.0 297.89542 440.0 299.0Z" fill-rule="nonzero"/><path fill="#4285f4" clip-path="url(#id_0)" d="M440.0 345.0L433.0 345.0L433.0 299.0C433.0 297.89542 433.89542 297.0 435.0 297.0L438.0 297.0C439.10458 297.0 440.0 297.89542 440.0 299.0Z" fill-rule="nonzero"/><path stroke="#000000" stroke-width="2.0" stroke-linecap="butt" stroke-opacity="0.0" clip-path="url(#id_0)" d="M451.0 345.0L444.0 345.0L444.0 282.0C444.0 280.89542 444.89542 280.0 446.0 280.0L449.0 280.0C450.10458 280.0 451.0 280.89542 451.0 282.0Z" fill-rule="nonzero"/><path fill="#4285f4" clip-path="url(#id_0)" d="M451.0 345.0L444.0 345.0L444.0 282.0C444.0 280.89542 444.89542 280.0 446.0 280.0L449.0 280.0C450.10458 280.0 451.0 280.89542 451.0 282.0Z" fill-rule="nonzero"/><path stroke="#000000" stroke-width="2.0" stroke-linecap="butt" stroke-opacity="0.0" clip-path="url(#id_0)" d="M461.0 345.0L454.0 345.0L454.0 315.0C454.0 313.89542 454.89542 313.0 456.0 313.0L459.0 313.0C460.10458 313.0 461.0 313.89542 461.0 315.0Z" fill-rule="nonzero"/><path fill="#4285f4" clip-path="url(#id_0)" d="M461.0 345.0L454.0 345.0L454.0 315.0C454.0 313.89542 454.89542 313.0 456.0 313.0L459.0 313.0C460.10458 313.0 461.0 313.89542 461.0 315.0Z" fill-rule="nonzero"/><path stroke="#000000" stroke-width="2.0" stroke-linecap="butt" stroke-opacity="0.0" clip-path="url(#id_0)" d="M472.0 345.0L465.0 345.0L465.0 282.0C465.0 280.89542 465.89542 280.0 467.0 280.0L470.0 280.0C471.10458 280.0 472.0 280.89542 472.0 282.0Z" fill-rule="nonzero"/><path fill="#4285f4" clip-path="url(#id_0)" d="M472.0 345.0L465.0 345.0L465.0 282.0C465.0 280.89542 465.89542 280.0 467.0 280.0L470.0 280.0C471.10458 280.0 472.0 280.89542 472.0 282.0Z" fill-rule="nonzero"/><path stroke="#000000" stroke-width="2.0" stroke-linecap="butt" stroke-opacity="0.0" clip-path="url(#id_0)" d="M482.0 345.0L475.0 345.0L475.0 299.0C475.0 297.89542 475.89542 297.0 477.0 297.0L480.0 297.0C481.10458 297.0 482.0 297.89542 482.0 299.0Z" fill-rule="nonzero"/><path fill="#4285f4" clip-path="url(#id_0)" d="M482.0 345.0L475.0 345.0L475.0 299.0C475.0 297.89542 475.89542 297.0 477.0 297.0L480.0 297.0C481.10458 297.0 482.0 297.89542 482.0 299.0Z" fill-rule="nonzero"/><path stroke="#000000" stroke-width="2.0" stroke-linecap="butt" stroke-opacity="0.0" clip-path="url(#id_0)" d="M493.0 345.0L486.0 345.0L486.0 307.0C486.0 305.89542 486.89542 305.0 488.0 305.0L491.0 305.0C492.10458 305.0 493.0 305.89542 493.0 307.0Z" fill-rule="nonzero"/><path fill="#4285f4" clip-path="url(#id_0)" d="M493.0 345.0L486.0 345.0L486.0 307.0C486.0 305.89542 486.89542 305.0 488.0 305.0L491.0 305.0C492.10458 305.0 493.0 305.89542 493.0 307.0Z" fill-rule="nonzero"/><path stroke="#000000" stroke-width="2.0" stroke-linecap="butt" stroke-opacity="0.0" clip-path="url(#id_0)" d="M504.0 345.0L497.0 345.0L497.0 250.0C497.0 248.89543 497.89542 248.0 499.0 248.0L502.0 248.0C503.10458 248.0 504.0 248.89543 504.0 250.0Z" fill-rule="nonzero"/><path fill="#4285f4" clip-path="url(#id_0)" d="M504.0 345.0L497.0 345.0L497.0 250.0C497.0 248.89543 497.89542 248.0 499.0 248.0L502.0 248.0C503.10458 248.0 504.0 248.89543 504.0 250.0Z" fill-rule="nonzero"/><path stroke="#000000" stroke-width="2.0" stroke-linecap="butt" stroke-opacity="0.0" clip-path="url(#id_0)" d="M514.0 345.0L507.0 345.0L507.0 282.0C507.0 280.89542 507.89542 280.0 509.0 280.0L512.0 280.0C513.10455 280.0 514.0 280.89542 514.0 282.0Z" fill-rule="nonzero"/><path fill="#4285f4" clip-path="url(#id_0)" d="M514.0 345.0L507.0 345.0L507.0 282.0C507.0 280.89542 507.89542 280.0 509.0 280.0L512.0 280.0C513.10455 280.0 514.0 280.89542 514.0 282.0Z" fill-rule="nonzero"/><path stroke="#000000" stroke-width="2.0" stroke-linecap="butt" stroke-opacity="0.0" clip-path="url(#id_0)" d="M525.0 345.0L518.0 345.0L518.0 325.0C518.0 323.89542 518.89545 323.0 520.0 323.0L523.0 323.0C524.10455 323.0 525.0 323.89542 525.0 325.0Z" fill-rule="nonzero"/><path fill="#4285f4" clip-path="url(#id_0)" d="M525.0 345.0L518.0 345.0L518.0 325.0C518.0 323.89542 518.89545 323.0 520.0 323.0L523.0 323.0C524.10455 323.0 525.0 323.89542 525.0 325.0Z" fill-rule="nonzero"/><path stroke="#000000" stroke-width="2.0" stroke-linecap="butt" stroke-opacity="0.0" clip-path="url(#id_0)" d="M536.0 345.0L529.0 345.0L529.0 282.0C529.0 280.89542 529.89545 280.0 531.0 280.0L534.0 280.0C535.10455 280.0 536.0 280.89542 536.0 282.0Z" fill-rule="nonzero"/><path fill="#4285f4" clip-path="url(#id_0)" d="M536.0 345.0L529.0 345.0L529.0 282.0C529.0 280.89542 529.89545 280.0 531.0 280.0L534.0 280.0C535.10455 280.0 536.0 280.89542 536.0 282.0Z" fill-rule="nonzero"/><path stroke="#000000" stroke-width="2.0" stroke-linecap="butt" stroke-opacity="0.0" clip-path="url(#id_0)" d="M546.0 345.0L539.0 345.0L539.0 315.0C539.0 313.89542 539.89545 313.0 541.0 313.0L544.0 313.0C545.10455 313.0 546.0 313.89542 546.0 315.0Z" fill-rule="nonzero"/><path fill="#4285f4" clip-path="url(#id_0)" d="M546.0 345.0L539.0 345.0L539.0 315.0C539.0 313.89542 539.89545 313.0 541.0 313.0L544.0 313.0C545.10455 313.0 546.0 313.89542 546.0 315.0Z" fill-rule="nonzero"/><path stroke="#000000" stroke-width="2.0" stroke-linecap="butt" stroke-opacity="0.0" clip-path="url(#id_0)" d="M557.0 345.0L550.0 345.0L550.0 258.0C550.0 256.89542 550.89545 256.0 552.0 256.0L555.0 256.0C556.10455 256.0 557.0 256.89542 557.0 258.0Z" fill-rule="nonzero"/><path fill="#4285f4" clip-path="url(#id_0)" d="M557.0 345.0L550.0 345.0L550.0 258.0C550.0 256.89542 550.89545 256.0 552.0 256.0L555.0 256.0C556.10455 256.0 557.0 256.89542 557.0 258.0Z" fill-rule="nonzero"/><path stroke="#000000" stroke-width="2.0" stroke-linecap="butt" stroke-opacity="0.0" clip-path="url(#id_0)" d="M568.0 345.0L561.0 345.0L561.0 299.0C561.0 297.89542 561.89545 297.0 563.0 297.0L566.0 297.0C567.10455 297.0 568.0 297.89542 568.0 299.0Z" fill-rule="nonzero"/><path fill="#4285f4" clip-path="url(#id_0)" d="M568.0 345.0L561.0 345.0L561.0 299.0C561.0 297.89542 561.89545 297.0 563.0 297.0L566.0 297.0C567.10455 297.0 568.0 297.89542 568.0 299.0Z" fill-rule="nonzero"/><path stroke="#000000" stroke-width="2.0" stroke-linecap="butt" stroke-opacity="0.0" clip-path="url(#id_0)" d="M578.0 345.0L571.0 345.0L571.0 266.0C571.0 264.89542 571.89545 264.0 573.0 264.0L576.0 264.0C577.10455 264.0 578.0 264.89542 578.0 266.0Z" fill-rule="nonzero"/><path fill="#4285f4" clip-path="url(#id_0)" d="M578.0 345.0L571.0 345.0L571.0 266.0C571.0 264.89542 571.89545 264.0 573.0 264.0L576.0 264.0C577.10455 264.0 578.0 264.89542 578.0 266.0Z" fill-rule="nonzero"/><path fill="#000000" d="M29.550013 303.46457L20.956263 303.46457L20.956263 302.33957L24.487513 302.33957L24.487513 297.87082L20.956263 297.87082L20.956263 296.7302L29.550013 296.7302L29.550013 297.87082L25.503138 297.87082L25.503138 302.33957L29.550013 302.33957L29.550013 303.46457ZM26.440638 295.02707Q24.706263 295.02707 23.878138 294.07394Q23.190638 293.27707 23.190638 292.12082Q23.190638 290.83957 24.034388 290.02707Q24.862513 289.19894 26.346888 289.19894Q27.550013 289.19894 28.237513 289.55832Q28.925013 289.9177 29.315638 290.62082Q29.690638 291.30832 29.690638 292.12082Q29.690638 293.4177 28.862513 294.2302Q28.018763 295.02707 26.440638 295.02707ZM26.440638 293.94894Q27.628138 293.94894 28.221888 293.43332Q28.815638 292.90207 28.815638 292.12082Q28.815638 291.32394 28.221888 290.80832Q27.628138 290.2927 26.409388 290.2927Q25.253138 290.2927 24.659388 290.82394Q24.065638 291.33957 24.065638 292.12082Q24.065638 292.90207 24.659388 293.43332Q25.237513 293.94894 26.440638 293.94894ZM29.550013 286.49582L23.331263 288.40207L23.331263 287.30832L26.925013 286.32394L28.253138 285.94894Q28.159388 285.9177 26.971888 285.62082L23.331263 284.63644L23.331263 283.55832L26.940638 282.62082L28.128138 282.30832L26.925013 281.94894L23.331263 280.88644L23.331263 279.8552L29.550013 281.80832L29.550013 282.90207L25.815638 283.88644L24.768763 284.13644L29.550013 285.38644L29.550013 286.49582ZM29.550013 275.6677L20.956263 275.6677L20.956263 274.6052L29.550013 274.6052L29.550013 275.6677ZM26.440638 273.02707Q24.706263 273.02707 23.878138 272.07394Q23.190638 271.27707 23.190638 270.12082Q23.190638 268.83957 24.034388 268.02707Q24.862513 267.19894 26.346888 267.19894Q27.550013 267.19894 28.237513 267.55832Q28.925013 267.9177 29.315638 268.62082Q29.690638 269.30832 29.690638 270.12082Q29.690638 271.4177 28.862513 272.2302Q28.018763 273.02707 26.440638 273.02707ZM26.440638 271.94894Q27.628138 271.94894 28.221888 271.43332Q28.815638 270.90207 28.815638 270.12082Q28.815638 269.32394 28.221888 268.80832Q27.628138 268.2927 26.409388 268.2927Q25.253138 268.2927 24.659388 268.82394Q24.065638 269.33957 24.065638 270.12082Q24.065638 270.90207 24.659388 271.43332Q25.237513 271.94894 26.440638 271.94894ZM29.550013 265.63644L23.331263 265.63644L23.331263 264.69894L24.206263 264.69894Q23.190638 264.01144 23.190638 262.71457Q23.190638 262.15207 23.393763 261.68332Q23.596888 261.19894 23.925013 260.96457Q24.253138 260.7302 24.690638 260.63644Q24.987513 260.58957 25.721888 260.58957L29.550013 260.58957L29.550013 261.63644L25.768763 261.63644Q25.112513 261.63644 24.800013 261.76144Q24.487513 261.88644 24.300013 262.19894Q24.096888 262.51144 24.096888 262.93332Q24.096888 263.6052 24.534388 264.1052Q24.956263 264.58957 26.143763 264.58957L29.550013 264.58957L29.550013 265.63644ZM30.065638 258.83957L30.221888 257.80832Q30.690638 257.74582 30.909388 257.44894Q31.206263 257.05832 31.206263 256.38644Q31.206263 255.65208 30.909388 255.26146Q30.612513 254.85521 30.096888 254.71458Q29.768763 254.62083 28.737513 254.63646Q29.550013 255.32396 29.550013 256.3552Q29.550013 257.63644 28.628138 258.33957Q27.690638 259.0427 26.409388 259.0427Q25.518763 259.0427 24.768763 258.7302Q24.003138 258.40207 23.596888 257.7927Q23.190638 257.18332 23.190638 256.3552Q23.190638 255.24583 24.081263 254.52708L23.331263 254.52708L23.331263 253.55833L28.706263 253.55833Q30.159388 253.55833 30.768763 253.85521Q31.378138 254.15208 31.721888 254.79271Q32.08126 255.43333 32.08126 256.37082Q32.08126 257.4802 31.581263 258.1677Q31.081263 258.8552 30.065638 258.83957ZM26.331263 257.96457Q27.550013 257.96457 28.112513 257.4802Q28.675013 256.99582 28.675013 256.26144Q28.675013 255.52708 28.112513 255.04271Q27.550013 254.54271 26.362513 254.54271Q25.221888 254.54271 24.643763 255.05833Q24.065638 255.55833 24.065638 256.27707Q24.065638 256.9802 24.643763 257.4802Q25.206263 257.96457 26.331263 257.96457ZM22.175013 248.63646L20.956263 248.63646L20.956263 247.57396L22.175013 247.57396L22.175013 248.63646ZM29.550013 248.63646L23.331263 248.63646L23.331263 247.57396L29.550013 247.57396L29.550013 248.63646ZM27.690638 246.05833L27.534388 245.02708Q28.159388 244.93333 28.487513 244.54271Q28.815638 244.13646 28.815638 243.40208Q28.815638 242.68333 28.534388 242.33958Q28.237513 241.98021 27.831263 241.98021Q27.471888 241.98021 27.268763 242.29271Q27.128138 242.51146 26.909388 243.37083Q26.612513 244.52708 26.409388 244.98021Q26.190638 245.41771 25.815638 245.65208Q25.440638 245.88646 24.971888 245.88646Q24.565638 245.88646 24.206263 245.69896Q23.846888 245.51146 23.612513 245.18333Q23.440638 244.93333 23.315638 244.51146Q23.190638 244.08958 23.190638 243.58958Q23.190638 242.87083 23.409388 242.32396Q23.612513 241.76146 23.971888 241.49583Q24.331263 241.23021 24.925013 241.13646L25.065638 242.16771Q24.596888 242.23021 24.331263 242.57396Q24.050013 242.90208 24.050013 243.52708Q24.050013 244.24583 24.300013 244.55833Q24.534388 244.87083 24.862513 244.87083Q25.065638 244.87083 25.221888 244.74583Q25.393763 244.60521 25.503138 244.33958Q25.565638 244.18333 25.768763 243.40208Q26.081263 242.27708 26.268763 241.83958Q26.456263 241.40208 26.815638 241.15208Q27.175013 240.90208 27.721888 240.90208Q28.253138 240.90208 28.721888 241.21458Q29.175013 241.51146 29.440638 242.08958Q29.690638 242.66771 29.690638 243.40208Q29.690638 244.62083 29.190638 245.26146Q28.675013 245.88646 27.690638 246.05833ZM31.940638 235.68333L30.956263 235.80833Q31.050013 235.46458 31.050013 235.19896Q31.050013 234.85521 30.925013 234.65208Q30.815638 234.43333 30.612513 234.29271Q30.440638 234.19896 29.815638 233.96458Q29.737513 233.94896 29.565638 233.87083L23.331263 236.24583L23.331263 235.10521L26.925013 233.80833Q27.612513 233.55833 28.378138 233.35521Q27.643763 233.16771 26.956263 232.91771L23.331263 231.58958L23.331263 230.54271L29.659388 232.90208Q30.675013 233.29271 31.065638 233.49583Q31.596888 233.77708 31.831263 234.15208Q32.08126 234.51146 32.08126 235.01146Q32.08126 235.30833 31.940638 235.68333ZM26.440638 231.02708Q24.706263 231.02708 23.878138 230.07396Q23.190638 229.27708 23.190638 228.12083Q23.190638 226.83958 24.034388 226.02708Q24.862513 225.19896 26.346888 225.19896Q27.550013 225.19896 28.237513 225.55833Q28.925013 225.91771 29.315638 226.62083Q29.690638 227.30833 29.690638 228.12083Q29.690638 229.41771 28.862513 230.23021Q28.018763 231.02708 26.440638 231.02708ZM26.440638 229.94896Q27.628138 229.94896 28.221888 229.43333Q28.815638 228.90208 28.815638 228.12083Q28.815638 227.32396 28.221888 226.80833Q27.628138 226.29271 26.409388 226.29271Q25.253138 226.29271 24.659388 226.82396Q24.065638 227.33958 24.065638 228.12083Q24.065638 228.90208 24.659388 229.43333Q25.237513 229.94896 26.440638 229.94896ZM29.550013 219.55833L28.628138 219.55833Q29.690638 220.29271 29.690638 221.54271Q29.690638 222.08958 29.487513 222.57396Q29.268763 223.04271 28.956263 223.27708Q28.628138 223.51146 28.159388 223.60521Q27.862513 223.66771 27.175013 223.66771L23.331263 223.66771L23.331263 222.60521L26.784388 222.60521Q27.596888 222.60521 27.893763 222.54271Q28.300013 222.44896 28.550013 222.13646Q28.784388 221.80833 28.784388 221.32396Q28.784388 220.85521 28.550013 220.44896Q28.300013 220.02708 27.878138 219.85521Q27.456263 219.66771 26.659388 219.66771L23.331263 219.66771L23.331263 218.62083L29.550013 218.62083L29.550013 219.55833ZM29.550013 216.65208L23.331263 216.65208L23.331263 215.69896L24.268763 215.69896Q23.612513 215.33958 23.409388 215.04271Q23.190638 214.73021 23.190638 214.35521Q23.190638 213.82396 23.518763 213.27708L24.503138 213.63646Q24.268763 214.02708 24.268763 214.40208Q24.268763 214.76146 24.487513 215.04271Q24.690638 215.30833 25.065638 215.41771Q25.628138 215.60521 26.284388 215.60521L29.550013 215.60521L29.550013 216.65208ZM27.268763 205.57396L27.409388 204.54271Q28.471888 204.71458 29.081263 205.41771Q29.690638 206.12083 29.690638 207.13646Q29.690638 208.41771 28.862513 209.19896Q28.018763 209.96458 26.456263 209.96458Q25.456263 209.96458 24.706263 209.63646Q23.940638 209.29271 23.565638 208.62083Q23.190638 207.93333 23.190638 207.12083Q23.190638 206.12083 23.706263 205.48021Q24.206263 204.82396 25.159388 204.63646L25.315638 205.66771Q24.690638 205.80833 24.378138 206.18333Q24.050013 206.55833 24.050013 207.08958Q24.050013 207.88646 24.628138 208.38646Q25.190638 208.88646 26.425013 208.88646Q27.690638 208.88646 28.253138 208.40208Q28.815638 207.91771 28.815638 207.15208Q28.815638 206.52708 28.440638 206.12083Q28.065638 205.69896 27.268763 205.57396ZM26.440638 204.02708Q24.706263 204.02708 23.878138 203.07396Q23.190638 202.27708 23.190638 201.12083Q23.190638 199.83958 24.034388 199.02708Q24.862513 198.19896 26.346888 198.19896Q27.550013 198.19896 28.237513 198.55833Q28.925013 198.91771 29.315638 199.62083Q29.690638 200.30833 29.690638 201.12083Q29.690638 202.41771 28.862513 203.23021Q28.018763 204.02708 26.440638 204.02708ZM26.440638 202.94896Q27.628138 202.94896 28.221888 202.43333Q28.815638 201.90208 28.815638 201.12083Q28.815638 200.32396 28.221888 199.80833Q27.628138 199.29271 26.409388 199.29271Q25.253138 199.29271 24.659388 199.82396Q24.065638 200.33958 24.065638 201.12083Q24.065638 201.90208 24.659388 202.43333Q25.237513 202.94896 26.440638 202.94896ZM29.550013 196.63646L23.331263 196.63646L23.331263 195.69896L24.206263 195.69896Q23.737513 195.40208 23.471888 194.91771Q23.190638 194.43333 23.190638 193.80833Q23.190638 193.12083 23.471888 192.68333Q23.753138 192.23021 24.268763 192.05833Q23.190638 191.30833 23.190638 190.13646Q23.190638 189.19896 23.706263 188.71458Q24.206263 188.21458 25.284388 188.21458L29.550013 188.21458L29.550013 189.26146L25.628138 189.26146Q25.003138 189.26146 24.721888 189.37083Q24.440638 189.46458 24.268763 189.73021Q24.096888 189.99583 24.096888 190.37083Q24.096888 191.02708 24.534388 191.46458Q24.971888 191.88646 25.940638 191.88646L29.550013 191.88646L29.550013 192.94896L25.503138 192.94896Q24.800013 192.94896 24.456263 193.21458Q24.096888 193.46458 24.096888 194.04271Q24.096888 194.49583 24.331263 194.87083Q24.565638 195.24583 25.018763 195.41771Q25.471888 195.58958 26.315638 195.58958L29.550013 195.58958L29.550013 196.63646ZM29.550013 185.63646L23.331263 185.63646L23.331263 184.69896L24.206263 184.69896Q23.737513 184.40208 23.471888 183.91771Q23.190638 183.43333 23.190638 182.80833Q23.190638 182.12083 23.471888 181.68333Q23.753138 181.23021 24.268763 181.05833Q23.190638 180.30833 23.190638 179.13646Q23.190638 178.19896 23.706263 177.71458Q24.206263 177.21458 25.284388 177.21458L29.550013 177.21458L29.550013 178.26146L25.628138 178.26146Q25.003138 178.26146 24.721888 178.37083Q24.440638 178.46458 24.268763 178.73021Q24.096888 178.99583 24.096888 179.37083Q24.096888 180.02708 24.534388 180.46458Q24.971888 180.88646 25.940638 180.88646L29.550013 180.88646L29.550013 181.94896L25.503138 181.94896Q24.800013 181.94896 24.456263 182.21458Q24.096888 182.46458 24.096888 183.04271Q24.096888 183.49583 24.331263 183.87083Q24.565638 184.24583 25.018763 184.41771Q25.471888 184.58958 26.315638 184.58958L29.550013 184.58958L29.550013 185.63646ZM29.550013 170.55833L28.628138 170.55833Q29.690638 171.29271 29.690638 172.54271Q29.690638 173.08958 29.487513 173.57396Q29.268763 174.04271 28.956263 174.27708Q28.628138 174.51146 28.159388 174.60521Q27.862513 174.66771 27.175013 174.66771L23.331263 174.66771L23.331263 173.60521L26.784388 173.60521Q27.596888 173.60521 27.893763 173.54271Q28.300013 173.44896 28.550013 173.13646Q28.784388 172.80833 28.784388 172.32396Q28.784388 171.85521 28.550013 171.44896Q28.300013 171.02708 27.878138 170.85521Q27.456263 170.66771 26.659388 170.66771L23.331263 170.66771L23.331263 169.62083L29.550013 169.62083L29.550013 170.55833ZM28.612513 165.33958L29.534388 165.18333Q29.628138 165.63646 29.628138 165.98021Q29.628138 166.55833 29.456263 166.87083Q29.268763 167.18333 28.971888 167.32396Q28.675013 167.44896 27.721888 167.44896L24.143763 167.44896L24.143763 168.21458L23.331263 168.21458L23.331263 167.44896L21.784388 167.44896L21.159388 166.40208L23.331263 166.40208L23.331263 165.33958L24.143763 165.33958L24.143763 166.40208L27.784388 166.40208Q28.237513 166.40208 28.362513 166.35521Q28.487513 166.29271 28.565638 166.16771Q28.643763 166.04271 28.643763 165.80833Q28.643763 165.62083 28.612513 165.33958ZM27.550013 160.38646L27.675013 159.29271Q28.628138 159.54271 29.159388 160.24583Q29.690638 160.94896 29.690638 162.02708Q29.690638 163.38646 28.846888 164.19896Q28.003138 164.99583 26.487513 164.99583Q24.925013 164.99583 24.065638 164.18333Q23.190638 163.37083 23.190638 162.08958Q23.190638 160.83958 24.034388 160.05833Q24.878138 159.26146 26.425013 159.26146Q26.518763 159.26146 26.706263 159.26146L26.706263 163.90208Q27.737513 163.83958 28.284388 163.32396Q28.815638 162.80833 28.815638 162.02708Q28.815638 161.44896 28.518763 161.04271Q28.206263 160.62083 27.550013 160.38646ZM25.846888 163.83958L25.846888 160.37083Q25.050013 160.43333 24.659388 160.76146Q24.050013 161.27708 24.050013 162.07396Q24.050013 162.80833 24.534388 163.30833Q25.018763 163.79271 25.846888 163.83958ZM32.08126 152.62083Q30.971888 153.49583 29.503138 154.10521Q28.018763 154.69896 26.440638 154.69896Q25.050013 154.69896 23.768763 154.26146Q22.284388 153.73021 20.815638 152.62083L20.815638 151.87083Q22.034388 152.57396 22.550013 152.80833Q23.362513 153.16771 24.237513 153.37083Q25.331263 153.62083 26.440638 153.62083Q29.268763 153.62083 32.08126 151.87083L32.08126 152.62083ZM29.550013 150.63646L23.331263 150.63646L23.331263 149.69896L24.206263 149.69896Q23.737513 149.40208 23.471888 148.91771Q23.190638 148.43333 23.190638 147.80833Q23.190638 147.12083 23.471888 146.68333Q23.753138 146.23021 24.268763 146.05833Q23.190638 145.30833 23.190638 144.13646Q23.190638 143.19896 23.706263 142.71458Q24.206263 142.21458 25.284388 142.21458L29.550013 142.21458L29.550013 143.26146L25.628138 143.26146Q25.003138 143.26146 24.721888 143.37083Q24.440638 143.46458 24.268763 143.73021Q24.096888 143.99583 24.096888 144.37083Q24.096888 145.02708 24.534388 145.46458Q24.971888 145.88646 25.940638 145.88646L29.550013 145.88646L29.550013 146.94896L25.503138 146.94896Q24.800013 146.94896 24.456263 147.21458Q24.096888 147.46458 24.096888 148.04271Q24.096888 148.49583 24.331263 148.87083Q24.565638 149.24583 25.018763 149.41771Q25.471888 149.58958 26.315638 149.58958L29.550013 149.58958L29.550013 150.63646ZM22.175013 139.63646L20.956263 139.63646L20.956263 138.57396L22.175013 138.57396L22.175013 139.63646ZM29.550013 139.63646L23.331263 139.63646L23.331263 138.57396L29.550013 138.57396L29.550013 139.63646ZM29.550013 136.63646L23.331263 136.63646L23.331263 135.69896L24.206263 135.69896Q23.190638 135.01146 23.190638 133.71458Q23.190638 133.15208 23.393763 132.68333Q23.596888 132.19896 23.925013 131.96458Q24.253138 131.73021 24.690638 131.63646Q24.987513 131.58958 25.721888 131.58958L29.550013 131.58958L29.550013 132.63646L25.768763 132.63646Q25.112513 132.63646 24.800013 132.76146Q24.487513 132.88646 24.300013 133.19896Q24.096888 133.51146 24.096888 133.93333Q24.096888 134.60521 24.534388 135.10521Q24.956263 135.58958 26.143763 135.58958L29.550013 135.58958L29.550013 136.63646ZM32.08126 128.94896L32.08126 129.69896Q29.268763 127.94896 26.440638 127.94896Q25.346888 127.94896 24.253138 128.19896Q23.378138 128.40208 22.565638 128.76146Q22.050013 128.99583 20.815638 129.69896L20.815638 128.94896Q22.284388 127.85521 23.768763 127.32396Q25.050013 126.870834 26.440638 126.870834Q28.018763 126.870834 29.503138 127.48021Q30.971888 128.08958 32.08126 128.94896Z" fill-rule="nonzero"/><path fill="#000000" d="M65.05 345.21564Q65.05 343.6844 65.3625 342.7625Q65.675 341.825 66.28438 341.325Q66.90938 340.825 67.84688 340.825Q68.53438 340.825 69.05 341.10626Q69.58125 341.3875 69.925 341.91876Q70.26875 342.4344 70.45625 343.1844Q70.64375 343.9344 70.64375 345.21564Q70.64375 346.73126 70.33125 347.65314Q70.03438 348.575 69.40938 349.09064Q68.8 349.59064 67.84688 349.59064Q66.6125 349.59064 65.89375 348.7Q65.05 347.6375 65.05 345.21564ZM66.12813 345.21564Q66.12813 347.325 66.62813 348.02814Q67.12813 348.73126 67.84688 348.73126Q68.58125 348.73126 69.06563 348.02814Q69.56563 347.325 69.56563 345.21564Q69.56563 343.09064 69.06563 342.40314Q68.58125 341.7 67.83125 341.7Q67.1125 341.7 66.675 342.3094Q66.12813 343.09064 66.12813 345.21564Z" fill-rule="nonzero"/><path fill="#000000" d="M63.596874 283.42606L63.596874 284.44168L57.909374 284.44168Q57.909374 284.06668 58.034374 283.7073Q58.253124 283.12918 58.721874 282.56668Q59.20625 282.00418 60.1125 281.2698Q61.51875 280.11356 62.003124 279.44168Q62.503124 278.7698 62.503124 278.17606Q62.503124 277.55106 62.05 277.12918Q61.596874 276.69168 60.878124 276.69168Q60.1125 276.69168 59.659374 277.1448Q59.20625 277.59793 59.190624 278.41043L58.1125 278.30106Q58.221874 277.0823 58.940624 276.4573Q59.675 275.81668 60.909374 275.81668Q62.14375 275.81668 62.8625 276.50418Q63.58125 277.19168 63.58125 278.2073Q63.58125 278.72293 63.3625 279.22293Q63.159374 279.7073 62.659374 280.2698Q62.175 280.81668 61.05 281.7698Q60.096874 282.56668 59.815624 282.86356Q59.55 283.1448 59.378124 283.42606L63.596874 283.42606ZM65.05 280.2073Q65.05 278.67606 65.3625 277.75418Q65.675 276.81668 66.28438 276.31668Q66.90938 275.81668 67.84688 275.81668Q68.53438 275.81668 69.05 276.09793Q69.58125 276.37918 69.925 276.91043Q70.26875 277.42606 70.45625 278.17606Q70.64375 278.92606 70.64375 280.2073Q70.64375 281.72293 70.33125 282.6448Q70.03438 283.56668 69.40938 284.0823Q68.8 284.5823 67.84688 284.5823Q66.6125 284.5823 65.89375 283.69168Q65.05 282.62918 65.05 280.2073ZM66.12813 280.2073Q66.12813 282.31668 66.62813 283.0198Q67.12813 283.72293 67.84688 283.72293Q68.58125 283.72293 69.06563 283.0198Q69.56563 282.31668 69.56563 280.2073Q69.56563 278.0823 69.06563 277.3948Q68.58125 276.69168 67.83125 276.69168Q67.1125 276.69168 66.675 277.30106Q66.12813 278.0823 66.12813 280.2073Z" fill-rule="nonzero"/><path fill="#000000" d="M61.425 219.43333L61.425 217.37083L57.70625 217.37083L57.70625 216.40208L61.628124 210.83958L62.4875 210.83958L62.4875 216.40208L63.64375 216.40208L63.64375 217.37083L62.4875 217.37083L62.4875 219.43333L61.425 219.43333ZM61.425 216.40208L61.425 212.54271L58.7375 216.40208L61.425 216.40208ZM65.05 215.19896Q65.05 213.66771 65.3625 212.74583Q65.675 211.80833 66.28438 211.30833Q66.90938 210.80833 67.84688 210.80833Q68.53438 210.80833 69.05 211.08958Q69.58125 211.37083 69.925 211.90208Q70.26875 212.41771 70.45625 213.16771Q70.64375 213.91771 70.64375 215.19896Q70.64375 216.71458 70.33125 217.63646Q70.03438 218.55833 69.40938 219.07396Q68.8 219.57396 67.84688 219.57396Q66.6125 219.57396 65.89375 218.68333Q65.05 217.62083 65.05 215.19896ZM66.12813 215.19896Q66.12813 217.30833 66.62813 218.01146Q67.12813 218.71458 67.84688 218.71458Q68.58125 218.71458 69.06563 218.01146Q69.56563 217.30833 69.56563 215.19896Q69.56563 213.07396 69.06563 212.38646Q68.58125 211.68333 67.83125 211.68333Q67.1125 211.68333 66.675 212.29271Q66.12813 213.07396 66.12813 215.19896Z" fill-rule="nonzero"/><path fill="#000000" d="M63.51875 147.94063L62.471874 148.01875Q62.33125 147.39375 62.08125 147.1125Q61.64375 146.65938 61.01875 146.65938Q60.51875 146.65938 60.128124 146.94063Q59.64375 147.31563 59.346874 148.01875Q59.065624 148.70625 59.05 149.9875Q59.425 149.40938 59.971874 149.12813Q60.534374 148.84688 61.14375 148.84688Q62.190624 148.84688 62.925 149.62813Q63.675 150.40938 63.675 151.62813Q63.675 152.44063 63.315624 153.14375Q62.971874 153.83125 62.3625 154.20625Q61.753124 154.56563 60.9875 154.56563Q59.659374 154.56563 58.83125 153.59688Q58.003124 152.62813 58.003124 150.40938Q58.003124 147.90938 58.925 146.78438Q59.721874 145.8 61.08125 145.8Q62.096874 145.8 62.7375 146.37813Q63.39375 146.94063 63.51875 147.94063ZM59.221874 151.64375Q59.221874 152.19063 59.440624 152.69063Q59.675 153.175 60.08125 153.44063Q60.503124 153.70625 60.971874 153.70625Q61.628124 153.70625 62.1125 153.175Q62.596874 152.62813 62.596874 151.70625Q62.596874 150.81563 62.1125 150.3Q61.64375 149.78438 60.925 149.78438Q60.20625 149.78438 59.70625 150.3Q59.221874 150.81563 59.221874 151.64375ZM65.05 150.19063Q65.05 148.65938 65.3625 147.7375Q65.675 146.8 66.28438 146.3Q66.90938 145.8 67.84688 145.8Q68.53438 145.8 69.05 146.08125Q69.58125 146.3625 69.925 146.89375Q70.26875 147.40938 70.45625 148.15938Q70.64375 148.90938 70.64375 150.19063Q70.64375 151.70625 70.33125 152.62813Q70.03438 153.55 69.40938 154.06563Q68.8 154.56563 67.84688 154.56563Q66.6125 154.56563 65.89375 153.675Q65.05 152.6125 65.05 150.19063ZM66.12813 150.19063Q66.12813 152.3 66.62813 153.00313Q67.12813 153.70625 67.84688 153.70625Q68.58125 153.70625 69.06563 153.00313Q69.56563 152.3 69.56563 150.19063Q69.56563 148.06563 69.06563 147.37813Q68.58125 146.675 67.83125 146.675Q67.1125 146.675 66.675 147.28438Q66.12813 148.06563 66.12813 150.19063Z" fill-rule="nonzero"/><path fill="#000000" d="M59.675 84.760414Q59.01875 84.510414 58.690624 84.072914Q58.378124 83.61979 58.378124 83.010414Q58.378124 82.072914 59.05 81.43229Q59.7375 80.791664 60.846874 80.791664Q61.971874 80.791664 62.659374 81.447914Q63.346874 82.104164 63.346874 83.041664Q63.346874 83.635414 63.034374 84.072914Q62.721874 84.510414 62.08125 84.760414Q62.878124 85.010414 63.284374 85.58854Q63.690624 86.166664 63.690624 86.96354Q63.690624 88.05729 62.909374 88.80729Q62.14375 89.55729 60.8625 89.55729Q59.596874 89.55729 58.815624 88.80729Q58.034374 88.05729 58.034374 86.93229Q58.034374 86.08854 58.45625 85.52604Q58.89375 84.96354 59.675 84.760414ZM59.45625 82.96354Q59.45625 83.572914 59.846874 83.96354Q60.253124 84.354164 60.878124 84.354164Q61.4875 84.354164 61.878124 83.979164Q62.26875 83.58854 62.26875 83.02604Q62.26875 82.447914 61.8625 82.05729Q61.45625 81.65104 60.8625 81.65104Q60.253124 81.65104 59.846874 82.041664Q59.45625 82.43229 59.45625 82.96354ZM59.128124 86.93229Q59.128124 87.385414 59.33125 87.80729Q59.55 88.229164 59.971874 88.46354Q60.39375 88.697914 60.878124 88.697914Q61.628124 88.697914 62.1125 88.21354Q62.6125 87.729164 62.6125 86.979164Q62.6125 86.21354 62.1125 85.71354Q61.6125 85.21354 60.846874 85.21354Q60.096874 85.21354 59.6125 85.71354Q59.128124 86.197914 59.128124 86.93229ZM65.05 85.18229Q65.05 83.65104 65.3625 82.729164Q65.675 81.791664 66.28438 81.291664Q66.90938 80.791664 67.84688 80.791664Q68.53438 80.791664 69.05 81.072914Q69.58125 81.354164 69.925 81.885414Q70.26875 82.40104 70.45625 83.15104Q70.64375 83.90104 70.64375 85.18229Q70.64375 86.697914 70.33125 87.61979Q70.03438 88.541664 69.40938 89.05729Q68.8 89.55729 67.84688 89.55729Q66.6125 89.55729 65.89375 88.666664Q65.05 87.604164 65.05 85.18229ZM66.12813 85.18229Q66.12813 87.291664 66.62813 87.99479Q67.12813 88.697914 67.84688 88.697914Q68.58125 88.697914 69.06563 87.99479Q69.56563 87.291664 69.56563 85.18229Q69.56563 83.05729 69.06563 82.36979Q68.58125 81.666664 67.83125 81.666664Q67.1125 81.666664 66.675 82.27604Q66.12813 83.05729 66.12813 85.18229Z" fill-rule="nonzero"/><path fill="#999999" d="M18.534374 63.05L22.378124 53.034374L23.8 53.034374L27.909374 63.05L26.39375 63.05L25.221874 60.01875L21.034374 60.01875L19.940624 63.05L18.534374 63.05ZM21.425 58.940624L24.815624 58.940624L23.76875 56.159374Q23.3 54.89375 23.065624 54.08125Q22.878124 55.05 22.51875 55.9875L21.425 58.940624ZM30.4875 63.05L27.721874 55.784374L29.034374 55.784374L30.58125 60.14375Q30.83125 60.846874 31.05 61.596874Q31.221874 61.01875 31.503124 60.221874L33.128124 55.784374L34.39375 55.784374L31.64375 63.05L30.4875 63.05ZM40.440624 60.70625L41.721874 60.8625Q41.409374 61.9875 40.596874 62.6125Q39.784374 63.221874 38.51875 63.221874Q36.925 63.221874 35.9875 62.2375Q35.065624 61.253124 35.065624 59.4875Q35.065624 57.64375 36.003124 56.64375Q36.95625 55.628124 38.45625 55.628124Q39.909374 55.628124 40.83125 56.628124Q41.753124 57.6125 41.753124 59.409374Q41.753124 59.51875 41.753124 59.7375L36.33125 59.7375Q36.409374 60.925 37.003124 61.565624Q37.6125 62.20625 38.534374 62.20625Q39.20625 62.20625 39.675 61.846874Q40.159374 61.4875 40.440624 60.70625ZM36.409374 58.721874L40.45625 58.721874Q40.378124 57.8 39.9875 57.346874Q39.409374 56.64375 38.471874 56.64375Q37.6125 56.64375 37.034374 57.20625Q36.471874 57.76875 36.409374 58.721874ZM43.45625 63.05L43.45625 55.784374L44.565624 55.784374L44.565624 56.89375Q44.9875 56.1125 45.346874 55.878124Q45.70625 55.628124 46.14375 55.628124Q46.76875 55.628124 47.409374 56.01875L46.9875 57.159374Q46.534374 56.89375 46.08125 56.89375Q45.675 56.89375 45.346874 57.14375Q45.034374 57.378124 44.89375 57.815624Q44.690624 58.471874 44.690624 59.253124L44.690624 63.05L43.45625 63.05ZM53.20625 62.159374Q52.534374 62.7375 51.89375 62.9875Q51.26875 63.221874 50.534374 63.221874Q49.346874 63.221874 48.690624 62.64375Q48.05 62.05 48.05 61.128124Q48.05 60.596874 48.284374 60.159374Q48.534374 59.721874 48.925 59.45625Q49.33125 59.190624 49.815624 59.05Q50.175 58.95625 50.909374 58.8625Q52.409374 58.690624 53.1125 58.440624Q53.1125 58.190624 53.1125 58.128124Q53.1125 57.3625 52.76875 57.065624Q52.3 56.64375 51.3625 56.64375Q50.503124 56.64375 50.08125 56.95625Q49.675 57.253124 49.471874 58.01875L48.26875 57.8625Q48.425 57.08125 48.8 56.6125Q49.190624 56.14375 49.89375 55.89375Q50.6125 55.628124 51.55 55.628124Q52.471874 55.628124 53.05 55.846874Q53.628124 56.065624 53.89375 56.39375Q54.175 56.721874 54.284374 57.2375Q54.346874 57.55 54.346874 58.3625L54.346874 60.003124Q54.346874 61.721874 54.425 62.175Q54.503124 62.628124 54.7375 63.05L53.45625 63.05Q53.26875 62.659374 53.20625 62.159374ZM53.1125 59.409374Q52.440624 59.675 51.096874 59.878124Q50.346874 59.9875 50.01875 60.128124Q49.70625 60.253124 49.534374 60.51875Q49.3625 60.784374 49.3625 61.096874Q49.3625 61.596874 49.7375 61.925Q50.1125 62.253124 50.83125 62.253124Q51.55 62.253124 52.096874 61.940624Q52.64375 61.628124 52.909374 61.08125Q53.1125 60.675 53.1125 59.8625L53.1125 59.409374ZM56.253124 63.659374L57.440624 63.83125Q57.51875 64.37813 57.8625 64.64375Q58.315624 64.97188 59.1125 64.97188Q59.971874 64.97188 60.425 64.62813Q60.89375 64.3 61.065624 63.675Q61.159374 63.3 61.14375 62.096874Q60.346874 63.05 59.14375 63.05Q57.64375 63.05 56.815624 61.971874Q56.003124 60.89375 56.003124 59.378124Q56.003124 58.346874 56.378124 57.471874Q56.753124 56.58125 57.45625 56.1125Q58.175 55.628124 59.14375 55.628124Q60.425 55.628124 61.26875 56.659374L61.26875 55.784374L62.39375 55.784374L62.39375 62.065624Q62.39375 63.76875 62.05 64.47188Q61.70625 65.175 60.95625 65.58125Q60.20625 66.00313 59.1125 66.00313Q57.815624 66.00313 57.01875 65.40938Q56.221874 64.83125 56.253124 63.659374ZM57.26875 59.284374Q57.26875 60.721874 57.83125 61.378124Q58.39375 62.034374 59.253124 62.034374Q60.096874 62.034374 60.675 61.378124Q61.253124 60.721874 61.253124 59.33125Q61.253124 58.003124 60.659374 57.33125Q60.065624 56.64375 59.2375 56.64375Q58.409374 56.64375 57.83125 57.315624Q57.26875 57.971874 57.26875 59.284374ZM69.44063 60.70625L70.72188 60.8625Q70.40938 61.9875 69.59688 62.6125Q68.78438 63.221874 67.51875 63.221874Q65.925 63.221874 64.9875 62.2375Q64.06563 61.253124 64.06563 59.4875Q64.06563 57.64375 65.00313 56.64375Q65.95625 55.628124 67.45625 55.628124Q68.90938 55.628124 69.83125 56.628124Q70.75313 57.6125 70.75313 59.409374Q70.75313 59.51875 70.75313 59.7375L65.33125 59.7375Q65.40938 60.925 66.00313 61.565624Q66.6125 62.20625 67.53438 62.20625Q68.20625 62.20625 68.675 61.846874Q69.15938 61.4875 69.44063 60.70625ZM65.40938 58.721874L69.45625 58.721874Q69.37813 57.8 68.9875 57.346874Q68.40938 56.64375 67.47188 56.64375Q66.6125 56.64375 66.03438 57.20625Q65.47188 57.76875 65.40938 58.721874ZM72.81563 57.190624L72.81563 55.784374L74.22188 55.784374L74.22188 57.190624L72.81563 57.190624ZM72.81563 63.05L72.81563 61.64375L74.22188 61.64375L74.22188 63.05L72.81563 63.05ZM80.14375 59.2375L80.14375 57.846874Q80.8625 57.01875 82.05 57.01875Q82.45625 57.01875 82.90938 57.14375Q83.3625 57.253124 84.19063 57.6125Q84.65938 57.815624 84.89375 57.878124Q85.12813 57.940624 85.37813 57.940624Q85.81563 57.940624 86.28438 57.675Q86.76875 57.409374 87.14375 57.003124L87.14375 58.45625Q86.70625 58.8625 86.25313 59.05Q85.8 59.221874 85.2375 59.221874Q84.83125 59.221874 84.45625 59.128124Q84.09688 59.034374 83.28438 58.675Q82.47188 58.315624 81.925 58.315624Q81.4875 58.315624 81.09688 58.503124Q80.72188 58.690624 80.14375 59.2375ZM94.59688 61.8625L94.59688 63.05L87.97188 63.05Q87.95625 62.6125 88.1125 62.190624Q88.37813 61.51875 88.925 60.8625Q89.4875 60.20625 90.53438 59.346874Q92.175 58.003124 92.7375 57.221874Q93.31563 56.440624 93.31563 55.7375Q93.31563 55.003124 92.78438 54.503124Q92.26875 54.003124 91.44063 54.003124Q90.55 54.003124 90.00313 54.534374Q89.47188 55.065624 89.47188 56.01875L88.20625 55.878124Q88.33125 54.471874 89.175 53.7375Q90.03438 52.9875 91.45625 52.9875Q92.90938 52.9875 93.7375 53.784374Q94.58125 54.58125 94.58125 55.76875Q94.58125 56.378124 94.33125 56.95625Q94.09688 57.534374 93.51875 58.175Q92.95625 58.815624 91.62813 59.940624Q90.51875 60.8625 90.20625 61.20625Q89.89375 61.534374 89.69063 61.8625L94.59688 61.8625ZM96.14375 60.409374L97.3625 60.2375Q97.58125 61.284374 98.08125 61.753124Q98.59688 62.20625 99.33125 62.20625Q100.20625 62.20625 100.8 61.6125Q101.39375 61.003124 101.39375 60.1125Q101.39375 59.26875 100.83125 58.721874Q100.28438 58.175 99.44063 58.175Q99.08125 58.175 98.56563 58.3L98.70625 57.221874Q98.83125 57.2375 98.89375 57.2375Q99.69063 57.2375 100.31563 56.83125Q100.94063 56.425 100.94063 55.565624Q100.94063 54.89375 100.4875 54.45625Q100.03438 54.003124 99.3 54.003124Q98.58125 54.003124 98.09688 54.45625Q97.62813 54.89375 97.4875 55.8L96.26875 55.58125Q96.4875 54.346874 97.28438 53.675Q98.08125 52.9875 99.26875 52.9875Q100.09688 52.9875 100.78438 53.346874Q101.47188 53.690624 101.83125 54.3Q102.20625 54.909374 102.20625 55.596874Q102.20625 56.2375 101.8625 56.76875Q101.51875 57.3 100.83125 57.628124Q101.72188 57.83125 102.20625 58.471874Q102.70625 59.1125 102.70625 60.096874Q102.70625 61.409374 101.7375 62.315624Q100.78438 63.221874 99.33125 63.221874Q98.00313 63.221874 97.12813 62.440624Q96.26875 61.659374 96.14375 60.409374ZM108.47188 63.05L108.47188 55.784374L109.58125 55.784374L109.58125 56.815624Q109.90938 56.26875 110.47188 55.95625Q111.05 55.628124 111.76875 55.628124Q112.58125 55.628124 113.09688 55.971874Q113.6125 56.3 113.83125 56.89375Q114.69063 55.628124 116.06563 55.628124Q117.14375 55.628124 117.72188 56.221874Q118.31563 56.815624 118.31563 58.065624L118.31563 63.05L117.08125 63.05L117.08125 58.471874Q117.08125 57.7375 116.95625 57.409374Q116.84688 57.08125 116.53438 56.89375Q116.22188 56.690624 115.8 56.690624Q115.03438 56.690624 114.51875 57.20625Q114.01875 57.70625 114.01875 58.83125L114.01875 63.05L112.78438 63.05L112.78438 58.33125Q112.78438 57.51875 112.4875 57.1125Q112.19063 56.690624 111.50313 56.690624Q110.9875 56.690624 110.53438 56.971874Q110.09688 57.2375 109.89375 57.76875Q109.70625 58.284374 109.70625 59.284374L109.70625 63.05L108.47188 63.05ZM119.4875 54.440624L119.4875 53.034374L120.70625 53.034374L120.70625 54.440624L119.4875 54.440624ZM119.4875 63.05L119.4875 55.784374L120.70625 55.784374L120.70625 63.05L119.4875 63.05ZM122.47188 63.05L122.47188 55.784374L123.58125 55.784374L123.58125 56.815624Q124.37813 55.628124 125.89375 55.628124Q126.55 55.628124 127.09688 55.8625Q127.64375 56.096874 127.90938 56.4875Q128.19063 56.8625 128.3 57.39375Q128.37813 57.7375 128.37813 58.58125L128.37813 63.05L127.14375 63.05L127.14375 58.628124Q127.14375 57.878124 127.00313 57.51875Q126.8625 57.14375 126.4875 56.925Q126.12813 56.690624 125.62813 56.690624Q124.84688 56.690624 124.26875 57.190624Q123.70625 57.690624 123.70625 59.08125L123.70625 63.05L122.47188 63.05Z" fill-rule="nonzero"/><path fill="#757575" d="M20.159374 37.55L20.159374 23.2375L22.05 23.2375L22.05 29.1125L29.4875 29.1125L29.4875 23.2375L31.378124 23.2375L31.378124 37.55L29.4875 37.55L29.4875 30.8L22.05 30.8L22.05 37.55L20.159374 37.55ZM32.221874 32.3625Q32.221874 29.4875 33.815624 28.096874Q35.159374 26.940624 37.08125 26.940624Q39.221874 26.940624 40.565624 28.346874Q41.925 29.753124 41.925 32.221874Q41.925 34.221874 41.33125 35.378124Q40.7375 36.51875 39.58125 37.159374Q38.440624 37.784374 37.08125 37.784374Q34.89375 37.784374 33.55 36.39375Q32.221874 34.9875 32.221874 32.3625ZM34.01875 32.3625Q34.01875 34.3625 34.878124 35.346874Q35.753124 36.33125 37.08125 36.33125Q38.39375 36.33125 39.253124 35.346874Q40.128124 34.346874 40.128124 32.3Q40.128124 30.378124 39.253124 29.39375Q38.378124 28.39375 37.08125 28.39375Q35.753124 28.39375 34.878124 29.39375Q34.01875 30.378124 34.01875 32.3625ZM45.784374 37.55L42.6125 27.175L44.425 27.175L46.08125 33.159374L46.690624 35.39375Q46.7375 35.221874 47.221874 33.253124L48.878124 27.175L50.690624 27.175L52.2375 33.190624L52.753124 35.175L53.346874 33.175L55.128124 27.175L56.83125 27.175L53.596874 37.55L51.76875 37.55L50.1125 31.33125L49.721874 29.565624L47.6125 37.55L45.784374 37.55ZM64.83125 37.55L64.83125 23.2375L66.58125 23.2375L66.58125 37.55L64.83125 37.55ZM68.22188 32.3625Q68.22188 29.4875 69.81563 28.096874Q71.15938 26.940624 73.08125 26.940624Q75.22188 26.940624 76.56563 28.346874Q77.925 29.753124 77.925 32.221874Q77.925 34.221874 77.33125 35.378124Q76.7375 36.51875 75.58125 37.159374Q74.44063 37.784374 73.08125 37.784374Q70.89375 37.784374 69.55 36.39375Q68.22188 34.9875 68.22188 32.3625ZM70.01875 32.3625Q70.01875 34.3625 70.87813 35.346874Q71.75313 36.33125 73.08125 36.33125Q74.39375 36.33125 75.25313 35.346874Q76.12813 34.346874 76.12813 32.3Q76.12813 30.378124 75.25313 29.39375Q74.37813 28.39375 73.08125 28.39375Q71.75313 28.39375 70.87813 29.39375Q70.01875 30.378124 70.01875 32.3625ZM79.8625 37.55L79.8625 27.175L81.45625 27.175L81.45625 28.659374Q82.59688 26.940624 84.75313 26.940624Q85.69063 26.940624 86.47188 27.284374Q87.26875 27.6125 87.65938 28.159374Q88.05 28.70625 88.20625 29.45625Q88.3 29.95625 88.3 31.175L88.3 37.55L86.53438 37.55L86.53438 31.2375Q86.53438 30.159374 86.33125 29.628124Q86.12813 29.096874 85.59688 28.784374Q85.08125 28.471874 84.37813 28.471874Q83.25313 28.471874 82.44063 29.190624Q81.62813 29.89375 81.62813 31.878124L81.62813 37.55L79.8625 37.55ZM89.55 38.409374L91.25313 38.659374Q91.3625 39.45625 91.84688 39.815624Q92.50313 40.3 93.64375 40.3Q94.8625 40.3 95.51875 39.815624Q96.19063 39.33125 96.425 38.45625Q96.56563 37.909374 96.55 36.190624Q95.39375 37.55 93.675 37.55Q91.53438 37.55 90.3625 36.003124Q89.19063 34.45625 89.19063 32.3Q89.19063 30.815624 89.72188 29.565624Q90.26875 28.315624 91.28438 27.628124Q92.31563 26.940624 93.69063 26.940624Q95.51875 26.940624 96.72188 28.425L96.72188 27.175L98.33125 27.175L98.33125 36.14375Q98.33125 38.565624 97.83125 39.565624Q97.34688 40.58125 96.26875 41.159374Q95.20625 41.753124 93.64375 41.753124Q91.8 41.753124 90.64375 40.925Q89.50313 40.096874 89.55 38.409374ZM91.00313 32.175Q91.00313 34.221874 91.81563 35.159374Q92.62813 36.096874 93.84688 36.096874Q95.05 36.096874 95.8625 35.159374Q96.69063 34.221874 96.69063 32.2375Q96.69063 30.33125 95.84688 29.3625Q95.00313 28.39375 93.81563 28.39375Q92.64375 28.39375 91.81563 29.346874Q91.00313 30.3 91.00313 32.175ZM106.87813 25.253124L106.87813 23.2375L108.64375 23.2375L108.64375 25.253124L106.87813 25.253124ZM106.87813 37.55L106.87813 27.175L108.64375 27.175L108.64375 37.55L106.87813 37.55ZM110.15938 34.45625L111.90938 34.175Q112.05 35.221874 112.72188 35.784374Q113.39375 36.33125 114.59688 36.33125Q115.8 36.33125 116.37813 35.846874Q116.97188 35.346874 116.97188 34.690624Q116.97188 34.096874 116.45625 33.753124Q116.09688 33.51875 114.65938 33.159374Q112.72188 32.659374 111.97188 32.315624Q111.2375 31.95625 110.84688 31.33125Q110.45625 30.690624 110.45625 29.925Q110.45625 29.2375 110.76875 28.64375Q111.09688 28.05 111.64375 27.659374Q112.05 27.3625 112.75313 27.159374Q113.47188 26.940624 114.28438 26.940624Q115.50313 26.940624 116.425 27.3Q117.34688 27.64375 117.78438 28.253124Q118.22188 28.846874 118.39375 29.846874L116.675 30.08125Q116.55 29.284374 115.9875 28.846874Q115.425 28.39375 114.40938 28.39375Q113.19063 28.39375 112.675 28.8Q112.15938 29.190624 112.15938 29.721874Q112.15938 30.065624 112.37813 30.346874Q112.58125 30.628124 113.05 30.815624Q113.31563 30.909374 114.59688 31.253124Q116.47188 31.753124 117.20625 32.08125Q117.94063 32.39375 118.3625 33.003124Q118.78438 33.596874 118.78438 34.503124Q118.78438 35.378124 118.26875 36.159374Q117.75313 36.940624 116.78438 37.3625Q115.81563 37.784374 114.59688 37.784374Q112.58125 37.784374 111.51875 36.940624Q110.45625 36.096874 110.15938 34.45625ZM126.78438 41.55L126.59688 39.89375Q127.175 40.05 127.59688 40.05Q128.19063 40.05 128.53438 39.846874Q128.89375 39.659374 129.1125 39.315624Q129.28438 39.05 129.65938 38.003124Q129.70625 37.846874 129.81563 37.565624L125.87813 27.175L127.76875 27.175L129.925 33.190624Q130.34688 34.33125 130.675 35.58125Q130.9875 34.378124 131.39375 33.221874L133.6125 27.175L135.37813 27.175L131.425 37.721874Q130.8 39.440624 130.44063 40.08125Q129.97188 40.95625 129.3625 41.346874Q128.76875 41.753124 127.925 41.753124Q127.40938 41.753124 126.78438 41.55ZM136.22188 32.3625Q136.22188 29.4875 137.81563 28.096874Q139.15938 26.940624 141.08125 26.940624Q143.22188 26.940624 144.56563 28.346874Q145.925 29.753124 145.925 32.221874Q145.925 34.221874 145.33125 35.378124Q144.7375 36.51875 143.58125 37.159374Q142.44063 37.784374 141.08125 37.784374Q138.89375 37.784374 137.55 36.39375Q136.22188 34.9875 136.22188 32.3625ZM138.01875 32.3625Q138.01875 34.3625 138.87813 35.346874Q139.75313 36.33125 141.08125 36.33125Q142.39375 36.33125 143.25313 35.346874Q144.12813 34.346874 144.12813 32.3Q144.12813 30.378124 143.25313 29.39375Q142.37813 28.39375 141.08125 28.39375Q139.75313 28.39375 138.87813 29.39375Q138.01875 30.378124 138.01875 32.3625ZM154.65938 37.55L154.65938 36.01875Q153.45625 37.784374 151.37813 37.784374Q150.45625 37.784374 149.65938 37.440624Q148.8625 37.08125 148.47188 36.55Q148.09688 36.01875 147.94063 35.2375Q147.83125 34.721874 147.83125 33.596874L147.83125 27.175L149.58125 27.175L149.58125 32.925Q149.58125 34.3 149.69063 34.784374Q149.8625 35.471874 150.39375 35.878124Q150.94063 36.26875 151.72188 36.26875Q152.51875 36.26875 153.20625 35.8625Q153.90938 35.45625 154.19063 34.76875Q154.4875 34.065624 154.4875 32.7375L154.4875 27.175L156.2375 27.175L156.2375 37.55L154.65938 37.55ZM157.84688 37.55L157.84688 27.175L159.425 27.175L159.425 28.753124Q160.03438 27.64375 160.55 27.3Q161.06563 26.940624 161.675 26.940624Q162.56563 26.940624 163.4875 27.503124L162.87813 29.14375Q162.2375 28.753124 161.59688 28.753124Q161.01875 28.753124 160.55 29.1125Q160.09688 29.45625 159.89375 30.065624Q159.6125 31.003124 159.6125 32.1125L159.6125 37.55L157.84688 37.55ZM177.64375 33.753124L179.3625 33.971874Q179.08125 35.76875 177.90938 36.784374Q176.75313 37.784374 175.05 37.784374Q172.925 37.784374 171.62813 36.39375Q170.33125 35.003124 170.33125 32.409374Q170.33125 30.721874 170.87813 29.471874Q171.44063 28.20625 172.58125 27.58125Q173.72188 26.940624 175.06563 26.940624Q176.75313 26.940624 177.81563 27.8Q178.89375 28.659374 179.20625 30.221874L177.4875 30.4875Q177.25313 29.440624 176.62813 28.925Q176.00313 28.39375 175.12813 28.39375Q173.8 28.39375 172.97188 29.346874Q172.14375 30.3 172.14375 32.346874Q172.14375 34.440624 172.94063 35.39375Q173.7375 36.33125 175.03438 36.33125Q176.06563 36.33125 176.75313 35.70625Q177.45625 35.065624 177.64375 33.753124ZM180.22188 32.3625Q180.22188 29.4875 181.81563 28.096874Q183.15938 26.940624 185.08125 26.940624Q187.22188 26.940624 188.56563 28.346874Q189.925 29.753124 189.925 32.221874Q189.925 34.221874 189.33125 35.378124Q188.7375 36.51875 187.58125 37.159374Q186.44063 37.784374 185.08125 37.784374Q182.89375 37.784374 181.55 36.39375Q180.22188 34.9875 180.22188 32.3625ZM182.01875 32.3625Q182.01875 34.3625 182.87813 35.346874Q183.75313 36.33125 185.08125 36.33125Q186.39375 36.33125 187.25313 35.346874Q188.12813 34.346874 188.12813 32.3Q188.12813 30.378124 187.25313 29.39375Q186.37813 28.39375 185.08125 28.39375Q183.75313 28.39375 182.87813 29.39375Q182.01875 30.378124 182.01875 32.3625ZM191.8625 37.55L191.8625 27.175L193.44063 27.175L193.44063 28.628124Q193.925 27.878124 194.7375 27.409374Q195.55 26.940624 196.58125 26.940624Q197.7375 26.940624 198.47188 27.425Q199.20625 27.89375 199.51875 28.753124Q200.75313 26.940624 202.72188 26.940624Q204.26875 26.940624 205.09688 27.8Q205.925 28.659374 205.925 30.425L205.925 37.55L204.175 37.55L204.175 31.01875Q204.175 29.95625 204.00313 29.503124Q203.83125 29.034374 203.37813 28.753124Q202.94063 28.471874 202.33125 28.471874Q201.2375 28.471874 200.50313 29.20625Q199.78438 29.925 199.78438 31.51875L199.78438 37.55L198.03438 37.55L198.03438 30.815624Q198.03438 29.64375 197.59688 29.065624Q197.175 28.471874 196.19063 28.471874Q195.45625 28.471874 194.81563 28.8625Q194.19063 29.253124 193.90938 30.003124Q193.62813 30.753124 193.62813 32.175L193.62813 37.55L191.8625 37.55ZM207.8625 37.55L207.8625 27.175L209.44063 27.175L209.44063 28.628124Q209.925 27.878124 210.7375 27.409374Q211.55 26.940624 212.58125 26.940624Q213.7375 26.940624 214.47188 27.425Q215.20625 27.89375 215.51875 28.753124Q216.75313 26.940624 218.72188 26.940624Q220.26875 26.940624 221.09688 27.8Q221.925 28.659374 221.925 30.425L221.925 37.55L220.175 37.55L220.175 31.01875Q220.175 29.95625 220.00313 29.503124Q219.83125 29.034374 219.37813 28.753124Q218.94063 28.471874 218.33125 28.471874Q217.2375 28.471874 216.50313 29.20625Q215.78438 29.925 215.78438 31.51875L215.78438 37.55L214.03438 37.55L214.03438 30.815624Q214.03438 29.64375 213.59688 29.065624Q213.175 28.471874 212.19063 28.471874Q211.45625 28.471874 210.81563 28.8625Q210.19063 29.253124 209.90938 30.003124Q209.62813 30.753124 209.62813 32.175L209.62813 37.55L207.8625 37.55ZM230.65938 37.55L230.65938 36.01875Q229.45625 37.784374 227.37813 37.784374Q226.45625 37.784374 225.65938 37.440624Q224.8625 37.08125 224.47188 36.55Q224.09688 36.01875 223.94063 35.2375Q223.83125 34.721874 223.83125 33.596874L223.83125 27.175L225.58125 27.175L225.58125 32.925Q225.58125 34.3 225.69063 34.784374Q225.8625 35.471874 226.39375 35.878124Q226.94063 36.26875 227.72188 36.26875Q228.51875 36.26875 229.20625 35.8625Q229.90938 35.45625 230.19063 34.76875Q230.4875 34.065624 230.4875 32.7375L230.4875 27.175L232.2375 27.175L232.2375 37.55L230.65938 37.55ZM237.70625 35.971874L237.95625 37.534374Q237.22188 37.690624 236.62813 37.690624Q235.675 37.690624 235.14375 37.39375Q234.62813 37.08125 234.40938 36.596874Q234.19063 36.096874 234.19063 34.51875L234.19063 28.55L232.90938 28.55L232.90938 27.175L234.19063 27.175L234.19063 24.6125L235.94063 23.55L235.94063 27.175L237.70625 27.175L237.70625 28.55L235.94063 28.55L235.94063 34.6125Q235.94063 35.3625 236.03438 35.58125Q236.12813 35.784374 236.33125 35.925Q236.55 36.05 236.94063 36.05Q237.22188 36.05 237.70625 35.971874ZM246.97188 34.20625L248.78438 34.440624Q248.3625 36.01875 247.19063 36.909374Q246.03438 37.784374 244.22188 37.784374Q241.95625 37.784374 240.6125 36.39375Q239.28438 34.9875 239.28438 32.45625Q239.28438 29.83125 240.62813 28.39375Q241.97188 26.940624 244.12813 26.940624Q246.20625 26.940624 247.51875 28.3625Q248.84688 29.76875 248.84688 32.346874Q248.84688 32.503124 248.83125 32.815624L241.09688 32.815624Q241.19063 34.51875 242.06563 35.425Q242.94063 36.33125 244.2375 36.33125Q245.20625 36.33125 245.87813 35.83125Q246.56563 35.315624 246.97188 34.20625ZM241.19063 31.3625L246.9875 31.3625Q246.87813 30.065624 246.33125 29.409374Q245.4875 28.39375 244.14375 28.39375Q242.94063 28.39375 242.1125 29.20625Q241.28438 30.003124 241.19063 31.3625ZM260.22186 41.753124Q258.76874 39.925 257.76874 37.471874Q256.76874 35.003124 256.76874 32.3625Q256.76874 30.034374 257.51874 27.909374Q258.39374 25.440624 260.22186 22.9875L261.4875 22.9875Q260.3 25.01875 259.925 25.89375Q259.33124 27.2375 258.9875 28.70625Q258.5656 30.534374 258.5656 32.378124Q258.5656 37.065624 261.4875 41.753124L260.22186 41.753124ZM263.8625 37.55L263.8625 27.175L265.4406 27.175L265.4406 28.628124Q265.925 27.878124 266.7375 27.409374Q267.55 26.940624 268.58124 26.940624Q269.7375 26.940624 270.47186 27.425Q271.20624 27.89375 271.51874 28.753124Q272.7531 26.940624 274.72186 26.940624Q276.26874 26.940624 277.09686 27.8Q277.925 28.659374 277.925 30.425L277.925 37.55L276.175 37.55L276.175 31.01875Q276.175 29.95625 276.0031 29.503124Q275.83124 29.034374 275.3781 28.753124Q274.9406 28.471874 274.33124 28.471874Q273.2375 28.471874 272.5031 29.20625Q271.78436 29.925 271.78436 31.51875L271.78436 37.55L270.03436 37.55L270.03436 30.815624Q270.03436 29.64375 269.59686 29.065624Q269.175 28.471874 268.1906 28.471874Q267.45624 28.471874 266.8156 28.8625Q266.1906 29.253124 265.90936 30.003124Q265.6281 30.753124 265.6281 32.175L265.6281 37.55L263.8625 37.55ZM279.8781 25.253124L279.8781 23.2375L281.64374 23.2375L281.64374 25.253124L279.8781 25.253124ZM279.8781 37.55L279.8781 27.175L281.64374 27.175L281.64374 37.55L279.8781 37.55ZM283.8625 37.55L283.8625 27.175L285.45624 27.175L285.45624 28.659374Q286.59686 26.940624 288.7531 26.940624Q289.6906 26.940624 290.47186 27.284374Q291.26874 27.6125 291.65936 28.159374Q292.05 28.70625 292.20624 29.45625Q292.3 29.95625 292.3 31.175L292.3 37.55L290.53436 37.55L290.53436 31.2375Q290.53436 30.159374 290.33124 29.628124Q290.1281 29.096874 289.59686 28.784374Q289.08124 28.471874 288.3781 28.471874Q287.2531 28.471874 286.4406 29.190624Q285.6281 29.89375 285.6281 31.878124L285.6281 37.55L283.8625 37.55ZM295.01874 41.753124L293.76874 41.753124Q296.675 37.065624 296.675 32.378124Q296.675 30.534374 296.26874 28.7375Q295.925 27.26875 295.33124 25.925Q294.95624 25.034374 293.76874 22.9875L295.01874 22.9875Q296.8625 25.440624 297.7375 27.909374Q298.4875 30.034374 298.4875 32.3625Q298.4875 35.003124 297.47186 37.471874Q296.47186 39.925 295.01874 41.753124Z" fill-rule="nonzero"/></svg>